SplineFontDB: 1.0
FontName: CMUTypewriter-Regular
FullName: CMU Typewriter Text Regular
FamilyName: CMU Typewriter Text
Weight: Regular
Copyright: Generated from MetaFont bitmap by mftrace 1.1.17, http://www.xs4all.nl/~hanwen/mftrace/ 
Version: 001.001
ItalicAngle: 0
UnderlinePosition: -100
UnderlineWidth: 50
Ascent: 800
Descent: 200
NeedsXUIDChange: 1
FSType: 8
PfmFamily: 17
TTFWeight: 400
TTFWidth: 5
LineGap: 90
VLineGap: 0
OS2TypoAscent: 0
OS2TypoAOffset: 1
OS2TypoDescent: 0
OS2TypoDOffset: 1
OS2TypoLinegap: 90
OS2WinAscent: 0
OS2WinAOffset: 1
OS2WinDescent: 0
OS2WinDOffset: 1
HheadAscent: 0
HheadAOffset: 1
HheadDescent: 0
HheadDOffset: 1
OS2Vendor: 'PfEd'
ScriptLang: 2
 1 latn 1 dflt 
 1 hebr 1 dflt 
Encoding: UnicodeBmp
Compacted: 1
UnicodeInterp: none
NameList: Adobe Glyph List
DisplaySize: -24
AntiAlias: 1
FitToEm: 1
WinInfo: 0 16 23
BeginPrivate: 3
lenIV 1 4
BlueValues 2 []
ForceBold 5 false
EndPrivate
BeginChars: 65539 335
StartChar: grave
Encoding: 96 96 0
Width: 525
Flags: W
HStem: 619 20G<137.5 150>
Fore
108 604 m 0
 109 631 133 639 142 639 c 0
 158 639 191 620 293 577 c 0
 314 568 320 560 321 547 c 0
 321 531 309 506 288 506 c 0
 281 506 275 509 268 511 c 0
 120 576 126 573 120 579 c 0
 114 584 108 593 108 604 c 0
EndSplineSet
EndChar
StartChar: acute
Encoding: 180 180 1
Width: 525
Flags: W
Fore
357.417 632.455 m 2
 366.607 636.326 374.671 637.998 381.626 637.998 c 0
 404.022 637.998 414.92 620.654 414.92 603.511 c 0
 414.92 576.804 391.717 573.018 384.917 567.902 c 2
 256.583 512.072 l 2
 248.457 508.541 240.964 506.238 234.157 506.238 c 0
 223.552 506.238 214.613 511.829 207.546 527.083 c 0
 203.889 534.982 202.171 541.562 202.171 547.193 c 0
 202.171 561.559 213.35 569.747 232 577.905 c 2
 357.417 632.455 l 2
EndSplineSet
EndChar
StartChar: circumflex
Encoding: 710 710 2
Width: 525
Flags: W
HStem: 568.574 75.2278<258.684 265.65>
Fore
238.167 633.895 m 2
 248.196 640.408 255.131 643.802 262.237 643.802 c 0
 269.063 643.802 276.047 640.672 286.083 634.167 c 2
 401.916 557.5 l 2
 417.854 546.914 425.39 537.399 425.39 526.74 c 0
 425.39 519.66 422.064 512.074 415.667 503.333 c 0
 407.339 491.954 398.94 487.615 390.543 487.615 c 0
 382.226 487.615 373.91 491.873 365.667 497.764 c 2
 275.667 562.083 l 2
 269.827 566.182 266.562 568.574 262.801 568.574 c 0
 257.05 568.574 250.139 562.979 231.083 549.337 c 2
 164.833 501.913 l 2
 153.652 493.918 143.545 487.507 133.632 487.507 c 0
 125.447 487.507 117.394 491.876 108.976 503.333 c 0
 102.382 512.388 99.2793 520.052 99.2793 526.948 c 0
 99.2793 538.191 107.527 547.39 122.333 557.245 c 2
 238.167 633.895 l 2
EndSplineSet
EndChar
StartChar: tilde
Encoding: 732 732 3
Width: 525
Flags: W
HStem: 490.939 66.4066<300.648 330.759> 543.978 66.3717<193.208 223.084>
Fore
104.083 550.815 m 0x40
 135.008 579.986 173.092 610.35 213.323 610.35 c 0x40
 232.845 610.35 252.873 603.2 272.833 585.295 c 0
 290.268 569.656 298.54 557.345 312.841 557.345 c 0
 318.971 557.345 326.208 559.607 335.75 564.839 c 0
 368.083 582.567 385.168 610.346 405.604 610.346 c 0
 409.386 610.346 413.281 609.395 417.41 607.253 c 0
 428.692 601.317 436.003 592.052 436.003 580.885 c 0
 436.003 571.966 431.339 561.833 420.31 551.214 c 0
 389.693 521.996 351.162 490.939 310.356 490.939 c 0x80
 290.939 490.939 271.006 497.972 251.167 515.582 c 0
 233.28 531.459 225.153 543.978 210.828 543.978 c 0
 204.709 543.978 197.458 541.694 187.833 536.411 c 0
 155.516 518.675 138.62 490.937 117.985 490.937 c 0
 114.084 490.937 110.048 491.929 105.75 494.167 c 0
 94.7336 500.197 87.5722 509.245 87.5722 520.234 c 0
 87.5722 529.307 92.4552 539.703 104.083 550.815 c 0x40
EndSplineSet
EndChar
StartChar: dieresis
Encoding: 168 168 4
Width: 525
Flags: W
HStem: 510.684 99.5887<148.26 166.744 352.427 370.911>
VStem: 110.143 99.9681<540.237 565.373>
Fore
316.524 575 m 0
 324.062 599.997 342.906 610.273 361.948 610.273 c 0
 379.874 610.273 397.974 601.166 406.982 586.66 c 0
 411.96 578.643 414.278 569.763 414.278 560.984 c 0
 414.278 519.487 375.774 510.684 365.091 510.684 c 0
 339.804 510.684 314.277 531.711 314.277 560.198 c 0
 314.277 564.946 314.986 569.901 316.524 575 c 0
112.357 575 m 0
 119.895 599.997 138.74 610.273 157.781 610.273 c 0
 175.707 610.273 193.807 601.166 202.815 586.66 c 0
 207.793 578.643 210.111 569.763 210.111 560.984 c 0
 210.111 519.49 171.669 510.688 161.004 510.688 c 0
 135.968 510.688 110.143 531.697 110.143 560.32 c 0
 110.143 565.027 110.842 569.94 112.357 575 c 0
EndSplineSet
EndChar
StartChar: ring
Encoding: 730 730 6
Width: 525
Flags: W
HStem: 473.43 36.0475<243.578 275.255> 611.126 35.9395<252.699 268.367>
VStem: 172.129 58.6901<549.158 566.292> 293.163 58.6457<543.367 576.085>
Fore
287.537 589.583 m 0
 280.636 605.138 271.542 611.126 262.767 611.126 c 0
 252.574 611.126 242.811 603.046 237.415 592.497 c 0
 233.074 584.01 230.819 572.281 230.819 560.304 c 0
 230.819 538.012 238.629 514.863 255.333 510.171 c 0
 256.993 509.707 258.707 509.478 260.448 509.478 c 0
 275.782 509.478 293.163 527.274 293.163 559.46 c 0
 293.163 562.69 292.988 566.066 292.618 569.583 c 0
 291.872 576.44 290.315 583.252 287.537 589.583 c 0
261.963 647.065 m 0
 274.772 647.065 287.947 644.323 300.75 638.333 c 0
 331.329 624.027 351.809 592.665 351.809 559.504 c 0
 351.809 541.467 345.749 522.897 331.96 506.25 c 0
 313.164 483.623 287.769 473.43 262.74 473.43 c 0
 224.416 473.43 186.947 497.329 175.333 537.083 c 0
 173.253 544.541 172.129 552.306 172.129 560.063 c 0
 173.197 633.727 243.435 647.065 261.963 647.065 c 0
EndSplineSet
EndChar
StartChar: caron
Encoding: 711 711 7
Width: 525
Flags: W
HStem: 483.978 78.2607<256.581 264.955>
Fore
146.593 639.074 m 0
 158.38 639.074 167.961 630.887 177 624.025 c 0
 236.702 578.704 238.285 576.899 251.583 567.316 c 0
 256.108 564.055 258.983 562.238 262.119 562.238 c 0
 267.376 562.238 273.365 567.343 289.083 579.306 c 2
 353.25 628.118 l 2
 363.46 635.636 372.307 638.595 379.718 638.595 c 0
 396.494 638.595 405.91 623.43 407.112 611.651 c 0
 407.188 610.844 407.224 610.051 407.224 609.272 c 0
 407.224 593.962 393.157 584.115 388.245 579.977 c 2
 287.417 495.83 l 2
 276.757 487.187 268.469 483.978 261.441 483.978 c 0
 251.72 483.978 244.412 490.12 236.583 496.513 c 2
 137.417 579.306 l 2
 122.662 591.742 117.447 602.593 117.447 611.509 c 0
 117.447 627.273 133.791 638.488 146.593 639.074 c 0
EndSplineSet
EndChar
StartChar: breve
Encoding: 728 728 8
Width: 525
Flags: W
HStem: 498.333 64.1759<193.334 293.432>
Fore
85.3241 605.924 m 0
 85.3241 626.806 98.3022 638.633 115.388 638.633 c 0
 117.427 638.633 119.525 638.465 121.667 638.123 c 0
 160.932 631.805 129.491 596.069 175.833 576.201 c 0
 196.824 567.201 228.728 562.509 260.916 562.509 c 0
 310.915 562.509 361.6 573.831 373.14 597.917 c 0
 377.464 607.045 374.282 629.26 395.833 636.84 c 0
 397.757 637.516 401.604 638.24 406.229 638.24 c 0
 416.112 638.24 429.551 634.937 435.377 620.819 c 0
 437.202 616.396 437.972 611.47 437.972 606.34 c 0
 437.972 587.047 427.085 564.879 420.49 555.833 c 0
 389.559 513.402 325.196 498.333 261.667 498.333 c 0
 125.001 498.333 85.3241 561.207 85.3241 605.924 c 0
EndSplineSet
EndChar
StartChar: macron
Encoding: 175 175 9
Width: 525
Flags: W
HStem: 558.75 63.333<105.75 414.083>
Fore
105.75 558.75 m 2
 77.7204 559.497 72.1405 576.863 72.1405 590.315 c 0
 72.3352 596.29 73.4034 617.388 96.5833 621.418 c 0
 102.71 622.483 109.083 622.083 115.333 622.083 c 2
 414.083 622.083 l 1
 414.083 622.083 450.165 620.801 450.612 590.393 c 0
 450.612 583.476 449.052 570.502 436.099 562.916 c 0
 427 557.609 415.834 558.75 405.75 558.75 c 2
 105.75 558.75 l 2
EndSplineSet
EndChar
StartChar: dotaccent
Encoding: 729 729 10
Width: 525
Flags: W
HStem: 511.063 99.8894<273.453 295.236>
Fore
242.732 583.333 m 0
 252.588 602.635 269.342 610.952 286.03 610.952 c 0
 304.441 610.952 322.771 600.83 331.67 584.166 c 0
 335.719 576.575 337.616 568.51 337.616 560.614 c 0
 337.616 518.805 297.725 511.063 287.655 511.063 c 0
 259.251 511.063 237.449 535.204 237.449 561.533 c 0
 237.449 568.786 239.104 576.206 242.732 583.333 c 0
EndSplineSet
EndChar
StartChar: cedilla
Encoding: 184 184 11
Width: 525
Flags: W
HStem: -208.333 61.664<161.333 226.6>
VStem: 225.879 70.8708<-17.5398 24.7418> 324.767 70.16<-119.744 -100.307>
Fore
249.25 -143.784 m 0
 308.195 -137.951 324.767 -122.8 324.767 -108.279 c 0
 324.767 -94.3212 309.455 -80.9448 301.748 -76.9846 c 0
 269.229 -60.2756 235.138 -76.3845 227.483 -43.75 c 0
 226.649 -40.1968 225.879 -25.6875 225.879 -9.39218 c 0
 225.879 11.5736 227.154 35.4959 231.21 42.8437 c 0
 237.28 53.8404 250.934 56.7986 262.036 56.7986 c 0
 268.126 56.7986 273.449 55.9085 276.33 54.9667 c 0
 295.899 48.5708 296.75 34.4837 296.75 15 c 2
 296.75 -9.16668 l 1
 335.991 -17.222 370.528 -35.9323 386.585 -69.5833 c 0
 391.875 -80.7175 394.927 -93.6466 394.927 -106.968 c 0
 394.927 -132.52 383.699 -159.517 355.5 -178.06 c 0
 325.412 -197.847 280.618 -208.333 172.583 -208.333 c 2
 161.333 -208.333 l 2
 137.46 -207.557 128.52 -192.735 128.52 -178.206 c 0
 128.52 -169.898 131.443 -161.685 136.17 -156.25 c 0
 144.246 -146.732 155.722 -146.716 167.167 -146.669 c 2
 190.917 -146.57 l 2
 210.379 -146.136 229.865 -145.702 249.25 -143.784 c 0
EndSplineSet
EndChar
StartChar: ogonek
Encoding: 731 731 12
Width: 525
Flags: W
HStem: -229.381 61.1268<243.014 279.444>
VStem: 139.25 57.5256<-123.683 -102.641>
Fore
219.833 17.3192 m 0
 253.558 41.5079 278.105 56.2987 296.607 56.2987 c 0
 302.377 56.2987 307.56 54.8603 312.249 51.82 c 0
 320.933 46.1899 325.324 37.248 325.324 28.3025 c 0
 325.324 22.671 323.584 17.0381 320.079 12.2292 c 0
 308.792 -3.06514 262.149 -16.9908 223.262 -56.315 c 0
 204.543 -75.2441 196.775 -94.1874 196.775 -111.094 c 0
 196.775 -131.047 207.594 -148.163 224 -159.074 c 0
 229.17 -162.51 242.936 -168.254 259.073 -168.254 c 0
 274.755 -168.254 292.676 -162.828 307.118 -144.583 c 0
 316.961 -132.147 325.73 -123.707 336.719 -123.707 c 0
 341.867 -123.707 347.501 -125.56 353.962 -129.721 c 0
 361.187 -134.376 368.491 -142.548 368.491 -154.103 c 0
 368.491 -160.149 366.491 -167.121 361.434 -175 c 0
 339.805 -208.699 299.946 -229.381 258.942 -229.381 c 0
 227.085 -229.381 194.537 -216.897 169.31 -188.333 c 0
 150.381 -166.79 139.25 -138.415 139.25 -108.951 c 0
 139.25 -96.5731 141.214 -84.003 145.391 -71.6667 c 0
 158.106 -34.1667 188.362 -5.25297 219.833 17.3192 c 0
EndSplineSet
EndChar
StartChar: uni04C0
Encoding: 1216 1216 13
Width: 525
Flags: W
HStem: 2.19047e-05 61.6667<110.082 226.75 112.583 408> 549.167 61.666<102.336 413.308>
VStem: 226.75 70<61.6667 549.167>
Fore
226.75 549.167 m 1
 115.5 549.167 l 1
 115.5 549.167 78.8616 550.242 78.2652 580.418 c 0
 78.2652 597.775 87.5041 610.833 117.167 610.833 c 2
 410.917 610.833 l 2
 435.367 610.459 445.364 594.635 445.364 579.736 c 0
 445.364 575.291 444.474 570.928 442.813 567.083 c 0
 434.895 548.757 419.033 549.167 407.583 549.167 c 2
 296.75 549.167 l 1
 296.75 61.6667 l 1
 408 61.6667 l 1
 408 61.6667 444.627 60.6032 445.236 30.3805 c 0
 445.236 13.0619 435.974 2.22524e-05 406.333 2.19047e-05 c 2
 112.583 2.19047e-05 l 2
 87.8339 0.467112 78.1265 16.2344 78.1265 30.9848 c 0
 78.1265 35.4859 79.0304 39.8923 80.6867 43.7404 c 0
 88.5737 62.0619 104.247 61.6667 115.917 61.6667 c 2
 226.75 61.6667 l 1
 226.75 549.167 l 1
EndSplineSet
EndChar
StartChar: angleleft
Encoding: 9001 9001 14
Width: 525
Flags: W
VStem: 87.2194 70.1044<302.024 310.999>
Fore
436.56 693.705 m 0
 451.724 693.705 464.453 680.589 464.453 665.741 c 0
 464.453 663.166 464.07 660.538 463.25 657.917 c 0
 460.325 648.567 452.83 641.253 446.502 634.167 c 2
 171.307 325.417 l 2
 162.202 315.024 157.324 310.342 157.324 305.453 c 0
 157.324 302.394 159.234 299.254 163.214 294.583 c 2
 452.754 -30.4167 l 2
 461.19 -40.2999 464.392 -49.0191 464.392 -56.3664 c 0
 464.392 -72.7927 448.387 -82.3623 439.083 -82.7533 c 0
 438.557 -82.7754 438.04 -82.7862 437.531 -82.7862 c 0
 422.025 -82.7862 414.497 -72.7616 409.917 -67.9167 c 2
 102.082 277.5 l 2
 91.619 289.394 87.2194 298.092 87.2194 305.956 c 0
 87.2194 316.041 94.454 324.756 105.415 337.083 c 2
 403.25 671.249 l 2
 407.288 674.227 417.979 693.705 436.56 693.705 c 0
EndSplineSet
EndChar
StartChar: angleright
Encoding: 9002 9002 15
Width: 525
Flags: W
VStem: 397.333 67.453<299 311.833>
Fore
397.333 305.833 m 1
 384.417 318.23 372.193 331.286 359.7 344.167 c 2
 74.3946 638.333 l 2
 63.8117 649.265 59.2294 659.112 59.2294 667.594 c 0
 59.2294 676.11 63.8485 683.249 71.6512 688.726 c 0
 77.0242 692.497 82.021 694.15 86.8372 694.15 c 0
 101.996 694.15 115.365 677.781 133.045 659.583 c 2
 445.435 337.5 l 2
 456.06 326.501 464.786 318.25 464.786 305.417 c 0
 464.786 292.583 456.219 284.496 445.435 273.333 c 2
 133.449 -48.3333 l 2
 115.07 -67.2852 101.999 -83.4426 87.0259 -83.4426 c 0
 82.1816 -83.4426 77.1381 -81.7515 71.6512 -77.9166 c 0
 64.5527 -72.9148 59.4679 -65.8083 59.4679 -56.7775 c 0
 59.4679 -48.5646 63.6734 -38.7602 74.3946 -27.5 c 2
 359.7 266.667 l 2
 372.162 279.515 384.417 292.604 397.333 305 c 1
 397.333 305.833 l 1
EndSplineSet
EndChar
StartChar: quotedblleft
Encoding: 8220 8220 16
Width: 525
Flags: W
Fore
410.833 469.167 m 1
 415.726 470.319 423.076 471.803 431.591 471.803 c 0
 445.394 471.803 462.257 467.904 476.667 452.374 c 0
 487.956 440.207 493.199 424.967 493.199 409.882 c 0
 493.199 383.693 477.398 357.967 450 349.583 c 0
 443.725 347.727 437.163 346.805 430.519 346.805 c 0
 390.102 346.805 346.674 380.913 346.674 446.18 c 0
 346.674 455.195 347.503 464.804 349.282 475 c 0
 365.106 565.661 445.967 610.366 471.554 610.366 c 0
 491.807 609.871 502.8 591.455 502.8 578.515 c 0
 502.8 574.361 501.848 570.185 499.746 566.25 c 0
 487.598 543.786 432.784 548.134 410.833 469.167 c 1
74.1666 469.167 m 1
 79.0592 470.319 86.4096 471.803 94.924 471.803 c 0
 108.727 471.803 125.59 467.904 140 452.374 c 0
 151.289 440.207 156.532 424.967 156.532 409.882 c 0
 156.532 383.693 140.731 357.967 113.333 349.583 c 0
 107.058 347.727 100.496 346.805 93.8524 346.805 c 0
 53.4359 346.805 10.0074 380.913 10.0074 446.18 c 0
 10.0074 455.194 10.8359 464.804 12.6154 475 c 0
 28.4383 565.66 109.301 610.366 134.888 610.366 c 0
 155.14 609.871 166.133 591.455 166.133 578.515 c 0
 166.133 574.361 165.181 570.185 163.079 566.25 c 0
 150.932 543.786 96.1175 548.134 74.1666 469.167 c 1
EndSplineSet
EndChar
StartChar: quotedblright
Encoding: 8221 8221 17
Width: 525
Flags: W
Fore
450.167 488.333 m 1
 445.267 487.187 437.913 485.705 429.397 485.705 c 0
 415.596 485.705 398.742 489.598 384.332 505.126 c 0
 373.073 517.26 367.8 532.577 367.8 547.752 c 0
 367.8 573.863 383.411 599.555 411 607.885 c 0
 417.197 609.756 423.708 610.685 430.32 610.685 c 0
 470.453 610.685 514.302 576.46 514.302 511.077 c 0
 514.302 502.132 513.481 492.604 511.718 482.5 c 0
 495.795 391.266 414.357 347.08 389.285 347.08 c 0
 368.849 347.713 358.185 366.186 358.185 378.923 c 0
 358.185 383.098 359.145 387.288 361.254 391.218 c 0
 373.325 413.707 428.21 409.346 450.167 488.333 c 1
113.5 488.333 m 1
 108.6 487.187 101.246 485.705 92.7305 485.705 c 0
 78.9291 485.705 62.075 489.598 47.6654 505.126 c 0
 36.4064 517.26 31.1335 532.577 31.1335 547.752 c 0
 31.1335 573.863 46.7446 599.555 74.3333 607.885 c 0
 80.5307 609.756 87.0415 610.685 93.6531 610.685 c 0
 133.787 610.685 177.635 576.461 177.635 511.079 c 0
 177.635 502.133 176.814 492.604 175.051 482.5 c 0
 159.129 391.267 77.6905 347.08 52.6177 347.08 c 0
 32.1897 347.706 21.5198 366.188 21.5198 378.926 c 0
 21.5198 383.1 22.4788 387.289 24.5875 391.218 c 0
 36.6588 413.707 91.5434 409.346 113.5 488.333 c 1
EndSplineSet
EndChar
StartChar: cyrflex
Encoding: 63189 63189 18
Width: 525
Flags: W
HStem: 579.149 64.6431<231.269 270.849>
Fore
90.27 545.833 m 0
 113.41 620.123 198.636 643.792 263.901 643.792 c 0
 277.797 643.792 290.789 642.719 302.083 640.833 c 0
 406.311 623.431 438.257 555.592 438.257 518.172 c 0
 438.257 511.791 437.328 506.294 435.67 502.083 c 0
 430.465 488.864 419.808 483.571 408.988 483.571 c 0
 396.263 483.571 383.314 490.893 378.75 501.25 c 0
 371.798 517.717 383.45 534.667 346.666 558.258 c 0
 325.7 571.704 292.804 579.149 259.671 579.149 c 0
 213.017 579.149 165.892 564.387 150.943 530.833 c 0
 143.784 514.695 150.603 497.056 130.397 486.667 c 0
 128.203 485.539 122.599 484.109 116.037 484.109 c 0
 105.872 484.109 93.4075 487.539 87.7604 500.833 c 0
 85.8957 505.089 85.2025 510.302 85.2025 515.691 c 0
 85.2025 527.791 88.6965 540.78 90.27 545.833 c 0
EndSplineSet
EndChar
StartChar: cyrbreve
Encoding: 63188 63188 20
Width: 525
Flags: W
HStem: 492.916 63.2907<244.471 291.792>
VStem: 110.25 99.4983<573.944 622.042> 313.764 100.515<565.858 617.017 598.122 617.017>
Fore
186.25 563.333 m 1
 210.729 556.867 235.229 556.206 253.713 556.206 c 0
 329.871 556.206 323.664 561.512 338.333 563.75 c 1
 320.633 576.187 313.764 591.056 313.764 605.188 c 0
 313.764 628.846 333.011 650.441 352.917 655.113 c 0
 355.709 655.768 359.598 656.337 364.124 656.337 c 0
 375.622 656.337 391.233 652.666 403.424 637.41 c 0
 411.965 626.72 414.279 616.06 414.279 607.264 c 0
 414.279 599.789 412.608 593.659 411.667 590 c 2
 413.276 584.914 414.044 579.587 414.044 574.191 c 0
 414.044 557.526 406.721 540.205 394.239 527.298 c 0
 361.486 493.617 293.517 492.916 266.238 492.916 c 0
 235.291 492.918 124.707 491.767 111.509 563.75 c 0
 110.596 568.44 110.25 572.317 110.25 575.571 c 0
 110.25 582.733 111.926 586.871 112.916 590 c 1
 111.37 595.898 110.655 601.497 110.655 606.756 c 0
 110.655 637.328 134.81 656.441 160.194 656.441 c 0
 164.436 656.441 168.712 655.907 172.916 654.804 c 0
 196.888 648.513 209.748 628.175 209.748 607.071 c 0
 209.748 593.946 204.774 580.524 194.405 570 c 0
 191.914 567.5 189.026 565.489 186.25 563.333 c 1
EndSplineSet
EndChar
StartChar: endash
Encoding: 8211 8211 21
Width: 525
Flags: W
HStem: 184.583 61.667<120.333 411.327>
Fore
400.75 246.25 m 2
 421.903 246.25 436.385 237.284 436.385 215.459 c 0
 436.231 210.666 436.062 196.713 421.527 188.518 c 0
 412.833 183.64 402.402 184.583 392.833 184.583 c 2
 120.333 184.583 l 1
 120.333 184.583 87.8563 185.656 87.1604 216.1 c 0
 87.1604 238.469 105.973 244.609 111.583 245.585 c 0
 117.309 246.58 123.25 246.25 129.083 246.25 c 2
 400.75 246.25 l 2
EndSplineSet
EndChar
StartChar: perthousandzero
Encoding: 65537 61698 23
Width: 525
Flags: W
HStem: -83.292 63.2251<259.054 278.396> 119.198 63.7516<242.612 266.758>
VStem: 175 57.1006<36.4598 94.9139> 292.894 56.669<35.9231 63.3868>
Fore
286.741 90.4167 m 0
 279.16 112.195 269.697 119.198 261.91 119.198 c 0
 257.812 119.198 254.178 117.259 251.526 114.514 c 0
 238.707 101.246 232.101 75.1432 232.101 49.1853 c 0
 232.101 23.7344 238.452 -1.57696 251.526 -14.5138 c 0
 255.189 -18.1381 258.946 -20.0669 262.723 -20.0669 c 0
 270.222 -20.0669 277.797 -12.4594 284.853 4.58333 c 0
 290.759 18.8496 292.894 34.4711 292.894 48.8843 c 0
 292.894 65.7538 289.969 80.9681 286.741 90.4167 c 0
175 50 m 0
 175 139.828 221.726 182.949 263.498 182.949 c 0
 270.018 182.949 276.418 181.899 282.5 179.811 c 0
 342.449 159.169 349.563 76.7736 349.563 50 c 0
 349.563 21.8463 344.583 -6.77958 331.86 -32.0833 c 0
 319.57 -56.4055 294.506 -83.292 262.285 -83.292 c 0
 255.824 -83.292 249.075 -82.2109 242.083 -79.8112 c 0
 182.16 -59.244 175 23.2264 175 50 c 0
EndSplineSet
EndChar
StartChar: dotlessi
Encoding: 305 305 24
Width: 525
Flags: W
HStem: -1.25691e-05 61.6666<106.21 420.5 106.21 420.5> 368.75 61.667<127.167 273.417>
VStem: 239.667 70<61.6666 395.417>
Fore
117.167 -1.25691e-05 m 2
 95.2535 -1.25691e-05 78.163 5.73433 78.163 30.3583 c 0
 79.0013 67.3495 109.638 58.4246 116.75 61.6666 c 1
 239.667 61.6666 l 1
 239.667 368.75 l 1
 127.167 368.75 l 2
 98.705 368.75 85.9085 380.065 85.9085 397.996 c 0
 85.9085 400.612 86.1807 403.368 86.7163 406.25 c 0
 91.5173 432.087 114.343 430.417 128.417 430.417 c 2
 273.417 430.417 l 2
 295.328 430.247 309.319 423.768 309.667 395.417 c 2
 309.667 61.6666 l 1
 417.583 61.6666 l 2
 442.815 61.6666 455.31 48.1052 455.31 31.5248 c 0
 455.31 27.7959 454.678 23.9144 453.417 20 c 0
 448.057 3.36375 434.422 0.235441 420.5 -1.25691e-05 c 2
 117.167 -1.25691e-05 l 2
EndSplineSet
EndChar
StartChar: dotlessj
Encoding: 63166 63166 25
Width: 525
Flags: W
HStem: -227.5 61.6168<149.309 209.941> 368.75 61.658<164.917 332.833>
VStem: 47.2257 88.5296<-157.077 -145.381> 298.25 70<-54.301 392.5>
Fore
134.917 -161.667 m 1
 143.637 -162.305 146.021 -165.883 198.369 -165.883 c 0
 215.643 -165.883 241.515 -163.938 266.44 -135.833 c 0
 297.497 -100.651 298.25 -61.0833 298.25 -20.8333 c 2
 298.25 368.75 l 1
 171.583 368.75 l 2
 163.647 368.75 143.892 365.696 133.107 382.571 c 0
 130.519 386.621 128.605 393.196 128.605 400.206 c 0
 128.605 411.179 133.293 423.215 147.417 428.295 c 0
 153.061 430.321 158.997 430.366 164.917 430.408 c 2
 332.833 430.408 l 2
 363.499 430.084 368.25 414.712 368.25 392.5 c 2
 368.25 -23.3334 l 2
 368.25 -85.2687 360.261 -135.625 310.325 -183.166 c 0
 273.049 -218.653 234.549 -227.5 185.333 -227.5 c 0
 113.286 -227.5 69.3652 -216.309 52.8333 -178.75 c 0
 49.5257 -171.131 47.2257 -161.817 47.2257 -152.337 c 0
 47.2257 -138.425 52.1783 -124.155 66.1667 -114.359 c 0
 70.0002 -111.71 80.7565 -107.148 93.0713 -107.148 c 0
 104.302 -107.148 116.829 -110.942 126.583 -123.445 c 0
 133.422 -132.211 135.755 -141.055 135.755 -150.687 c 0
 135.755 -154.229 135.44 -157.877 134.917 -161.667 c 1
EndSplineSet
EndChar
StartChar: ff
Encoding: 64256 64256 26
Width: 525
Flags: W
HStem: -0 62<45 90 46 209 290.5 477> 369 61<62 90 160 224 409 474> 555 61<234 310>
VStem: 90 70<62 369 430 483.5> 339 70<62 481.5>
Fore
263 31 m 0
 263 56 279 62 302 62 c 2
 339 62 l 1
 339 475 l 2
 339 488 340 500 342 511 c 1
 335 517 322 527 324 552 c 1
 316 553 302 555 283 555 c 0
 233 555 180 539 163 503 c 0
 159 494 160 484 160 474 c 2
 160 430 l 1
 224 430 l 2
 239 430 258 424 258 400 c 0
 258 387 253 369 224 369 c 2
 160 369 l 1
 160 62 l 1
 197 62 l 2
 220 62 237 56 237 31 c 0
 237 6 219 -0 199 -0 c 2
 46 -0 l 2
 24 0 9 8 9 31 c 0
 9 44 15 52 24 57 c 0
 31 62 41 62 49 62 c 2
 90 62 l 1
 90 369 l 1
 62 369 l 2
 42 369 24 375 24 399 c 0
 24 423 40 430 62 430 c 2
 90 430 l 1
 90 470 l 2
 90 497 89 515 105 540 c 0
 124 569 179 616 289 616 c 0
 331 616 364 613 393 588 c 1
 418 607 448 616 483 616 c 0
 555 616 573 580 573 556 c 0
 572 529 552 513 530 513 c 0
 522 513 490 518 487 554 c 1
 430 557 415 519 412 505 c 0
 409 495 409 484 409 474 c 2
 409 430 l 1
 474 430 l 2
 489 430 508 424 508 400 c 0
 508 387 502 369 474 369 c 2
 409 369 l 1
 409 62 l 1
 477 62 l 2
 498 61 511 47 511 31 c 0
 511 27 509.976 23.0095 508 18 c 0
 500.914 0.0340681 486 -0 473 -0 c 2
 304 -0 l 2
 280 0 263 4 263 31 c 0
EndSplineSet
Ligature: 0 0 'liga' f f
EndChar
StartChar: fi
Encoding: 64257 64257 27
Width: 525
Flags: W
HStem: -0 62<48.5 96 49 221.5 305 358 314 485.5> 369 61<53.5 96 166 388> 555 61<271.5 350.5>
VStem: 96 70<62 369 430 474> 340 88<520.5 537> 358 70<62 390>
Fore
26 400 m 0xf4
 26 425 43 430 64 430 c 2
 96 430 l 1
 96 474 l 2
 96 491 95 502 101 519 c 0
 133 603 259 616 299 616 c 0
 402 616 427 571 428 536 c 0
 428 508 407 490 383 490 c 0
 361 490 340 506 340 535 c 0xf8
 340 539 340 544 341 549 c 1
 327 552 311 555 295 555 c 0
 248 555 189 540 170 504 c 0
 165 494 166 484 166 474 c 2
 166 430 l 1
 388 430 l 2
 422 430 428 419 428 390 c 2
 428 62 l 1
 471 62 l 2
 480 62 490 62 498 58 c 0
 506 53 513 44 513 31 c 0
 513 6 496 -0 475 -0 c 2
 314 -0 l 2
 292 0 276 6 276 31 c 0
 276 58 293 62 317 62 c 2
 358 62 l 1
 358 369 l 1
 166 369 l 1
 166 62 l 1
 207 62 l 2
 230 62 248 58 248 31 c 0
 248 5 233 -0 210 -0 c 2
 49 -0 l 2
 28 0 11 6 11 31 c 0
 11 44 18 53 26 58 c 0
 34 62 44 62 53 62 c 2
 96 62 l 1
 96 369 l 1
 65 369 l 2
 44 369 26 374 26 400 c 0xf4
EndSplineSet
Ligature: 0 0 'liga' f i
EndChar
StartChar: fl
Encoding: 64258 64258 28
Width: 525
Flags: W
HStem: -0 62<48.5 96 49 221.5 305 358 314 485.5> 369 61<53.5 96 166 358> 555 61<266 338.5>
VStem: 96 70<62 369 430 474> 358 70<62 574>
Fore
26 400 m 0
 26 425 43 430 64 430 c 2
 96 430 l 1
 96 474 l 2
 96 491 95 502 101 519 c 0
 132 604 262 616 306 616 c 0
 371 616 369 610 386 611 c 1
 386 608 l 1
 391 609 396 610 399 610 c 0
 421 610 428 595 428 574 c 2
 428 62 l 1
 471 62 l 2
 480 62 490 62 498 58 c 0
 506 53 513 44 513 31 c 0
 513 6 496 -0 475 -0 c 2
 314 -0 l 2
 292 0 276 6 276 31 c 0
 276 58 293 62 317 62 c 2
 358 62 l 1
 358 369 l 1
 166 369 l 1
 166 62 l 1
 207 62 l 2
 230 62 248 58 248 31 c 0
 248 5 233 -0 210 -0 c 2
 49 -0 l 2
 28 0 11 6 11 31 c 0
 11 44 18 53 26 58 c 0
 34 62 44 62 53 62 c 2
 96 62 l 1
 96 369 l 1
 65 369 l 2
 44 369 26 374 26 400 c 0
358 522 m 1
 353 527 346 533 343 553 c 1
 328 554 313 555 299 555 c 0
 233 555 199 536 182 520 c 0
 169 507 166 501 166 474 c 2
 166 430 l 1
 358 430 l 1
 358 522 l 1
EndSplineSet
Ligature: 0 0 'liga' f l
EndChar
StartChar: ffi
Encoding: 64259 64259 29
Width: 525
Flags: W
HStem: -0 62<16 129 22 53 31 129 219 303 396 501> 369 61<45.5 53 123 228 298 434> 554 62<177 216.5 355 408.5>
VStem: 53 70<62 369 430 474> 228 70<62 369 430 497> 383 89<521.5 552.5> 402 70<62 390>
Fore
166 31 m 0xfa
 166 18 160 -1 129 -0 c 2
 31 -0 l 2
 1 0 -4 19 -4 31 c 0
 -4 54 11 62 33 62 c 2
 53 62 l 1
 53 369 l 1
 38 369 17 373 17 399 c 0
 17 412 24 431 53 430 c 1
 53 470 l 2
 53 505 54 531 78 560 c 0
 106 596 153 616 201 616 c 0
 232 616 256 607 278 585 c 1
 279 585 l 1
 312 611 356 616 375 616 c 0
 442 616 472 570 472 535 c 0
 472 508 451 490 428 490 c 0
 403 490 383 510 383 535 c 0xfc
 383 539 384 542 386 552 c 1
 381 553 375 554 370 554 c 0
 340 554 309 535 300 505 c 0
 297 495 298 484 298 473 c 2
 298 430 l 1
 434 430 l 2
 466 430 472 420 472 390 c 2
 472 62 l 1
 492 62 l 2
 523 62 529 44 529 31 c 0
 529 5 508 0 494 -0 c 2
 396 -0 l 2
 374 -1 359 9 359 31 c 0
 359 46 367 54 372 56 c 0
 381 62 392 62 402 62 c 1
 402 369 l 1
 298 369 l 1
 298 62 l 1
 308 62 320 62 329 56 c 0
 337 50 341 40 341 31 c 0
 341 21 336 10 327 5 c 0
 318 -1 307 -0 296 -0 c 2
 219 -0 l 2
 205 0 185 5 185 31 c 0
 185 48 196 58 206 60 c 0
 213 62 221 62 228 62 c 1
 228 369 l 1
 123 369 l 1
 123 62 l 1
 133 62 144 62 153 56 c 0
 162 51 166 41 166 31 c 0xfa
228 430 m 1
 228 497 l 1
 217 508 209 517 209 533 c 0
 209 539 210 545 212 552 c 1
 202 554 199 554 195 554 c 0
 165 554 134 535 125 505 c 0
 122 495 123 484 123 474 c 2
 123 430 l 1
 228 430 l 1
EndSplineSet
Ligature: 0 0 'liga' ff i
Ligature: 0 0 'liga' f f i
EndChar
StartChar: ffl
Encoding: 64260 64260 30
Width: 525
Flags: W
HStem: -0 62<16 129 22 53 31 129 219 303 396 501> 369 61<45.5 53 123 228 298 402> 554 62<178 225.5>
VStem: 53 70<62 369 430 474> 228 70<62 369 430 479.5> 402 70<62 575>
Fore
166 31 m 0
 166 18 160 -1 129 -0 c 2
 31 -0 l 2
 1 0 -4 19 -4 31 c 0
 -4 54 11 62 33 62 c 2
 53 62 l 1
 53 369 l 1
 38 369 17 373 17 399 c 0
 17 412 24 431 53 430 c 1
 53 470 l 2
 53 503 54 532 80 562 c 0
 110 598 156 616 202 616 c 0
 249 616 271 598 281 587 c 1
 310 606 340 616 379 616 c 0
 408 616 414 612 431 611 c 1
 431 609 l 1
 433 609 438 610 443 610 c 0
 455 610 472 605 472 575 c 2
 472 62 l 1
 492 62 l 2
 523 62 529 44 529 31 c 0
 529 5 508 0 494 -0 c 2
 396 -0 l 2
 374 -1 359 9 359 31 c 0
 359 46 367 54 372 56 c 0
 381 62 392 62 402 62 c 1
 402 369 l 1
 298 369 l 1
 298 62 l 1
 308 62 320 62 329 56 c 0
 337 50 341 40 341 31 c 0
 341 21 336 10 327 5 c 0
 318 -1 307 -0 296 -0 c 2
 219 -0 l 2
 205 0 185 5 185 31 c 0
 185 48 196 58 206 60 c 0
 213 62 221 62 228 62 c 1
 228 369 l 1
 123 369 l 1
 123 62 l 1
 133 62 144 62 153 56 c 0
 162 51 166 41 166 31 c 0
228 469 m 1
 230 511 l 1
 223 518 211 527 213 553 c 1
 207 554 202 554 197 554 c 0
 159 554 132 531 125 505 c 0
 122 495 123 484 123 474 c 2
 123 430 l 1
 228 430 l 1
 228 469 l 1
402 522 m 1
 395 530 388 540 387 554 c 1
 337.543 558.121 309.789 534.144 300 506 c 0
 297 496 298 485 298 474 c 2
 298 430 l 1
 402 430 l 1
 402 522 l 1
EndSplineSet
LCarets: 0 65535 '    ' 2 0 0 
Ligature: 0 0 'liga' ff l
Ligature: 0 0 'liga' f f l
EndChar
StartChar: uni2423
Encoding: 9251 9251 31
Width: 525
Flags: W
HStem: -132.917 372.581<62.2803 459.941 456.76 459.941>
VStem: 43 43.28<-105.833 222.869> 436.75 43.333<-102.083 214.583>
Fore
75.5 -132.917 m 2
 56.3047 -132.917 43.865 -130.159 43 -105.833 c 2
 43 212.083 l 2
 43 233.655 52.6004 239.664 62.2803 239.664 c 0
 70.5155 239.664 78.8082 235.315 81.2958 232.5 c 0
 83.6734 229.809 86.022 225.32 86.28 215 c 2
 86.3333 203.75 l 1
 86.3333 -89.5833 l 1
 436.75 -89.5833 l 1
 436.75 214.583 l 2
 437.432 234.051 447.045 240.248 456.76 240.248 c 0
 463.122 240.248 469.528 237.59 473.497 234.262 c 0
 478.9 229.732 479.976 221.475 480.083 213.333 c 2
 480.083 -102.083 l 2
 479.957 -120.407 476.559 -132.285 452.167 -132.917 c 2
 75.5 -132.917 l 2
EndSplineSet
EndChar
StartChar: exclam
Encoding: 33 33 32
Width: 525
Flags: W
HStem: 0 21<250.5 268>
Fore
262 622 m 0
 287 622 327 605 324 550 c 2
 312 236 l 2
 310 203 291 202 274 202 c 2
 247 202 l 2
 209 202 212 227 211 247 c 2
 199 548 l 2
 196 608 239 622 262 622 c 0
EndSplineSet
Refer: 45 46 S 1 0 0 1 0 0 2
EndChar
StartChar: quotedbl
Encoding: 34 34 33
Width: 525
Flags: W
VStem: 129 89<564.5 589> 305 89<571.5 596>
Fore
129 575 m 0
 129 603 150 621 174 621 c 0
 197 621 218 604 218 576 c 2
 218 575 l 2
 218 570 207 400 206 368 c 0
 204 344 200 328 173 328 c 0
 142 328 143 361 142 365 c 2
 142 365 129 554 129 575 c 0
350 621 m 0
 373 621 394 604 394 576 c 0
 394 567 384 410 381 368 c 0
 380 347 377 328 350 328 c 0
 318 328 319 358 318 365 c 0
 306 554 305 579 305 580 c 0
 305 612 339 621 350 621 c 0
EndSplineSet
EndChar
StartChar: numbersign
Encoding: 35 35 34
Width: 525
Flags: W
HStem: 0 21G<132 144.5 310.5 323> 167 62<79 132 185 310 364 452> 382 62<56.5 160 214 339 393 445> 590 20G<196.5 214 375 399>
Fore
35 413 m 0
 35 425 42 444 73 444 c 2
 160 444 l 1
 161 445 162 454 177 567 c 0
 180 586 183 610 210 610 c 0
 218 610 240 604 240 580 c 0
 240 562 231 514 223 444 c 1
 339 444 l 1
 340 445 341 454 356 567 c 0
 358 586 362 610 388 610 c 0
 410 610 419 592 419 580 c 0
 419 562 410 514 402 444 c 1
 445 444 l 2
 455 444 464 445 472 440 c 0
 477 438 489 429 489 413 c 0
 489 396 476 388 472 386 c 0
 464 382 453 382 443 382 c 2
 393 382 l 1
 372 229 l 1
 452 229 l 2
 484 229 489 209 489 198 c 0
 489 186 483 167 452 167 c 2
 364 167 l 1
 353 88 348 32 343 19 c 0
 340 13 331 0 315 0 c 0
 306 0 284 7 284 31 c 0
 284 43 296 122 302 167 c 1
 185 167 l 1
 174 88 169 32 164 19 c 0
 161 13 153 0 136 0 c 0
 128 0 105 7 105 31 c 0
 105 44 118 126 123 167 c 1
 79 167 l 2
 70 167 60 166 52 171 c 0
 47 174 35 182 35 199 c 0
 36 215 48 223 52 225 c 0
 61 230 72 229 81 229 c 2
 132 229 l 1
 152 382 l 1
 72 382 l 2
 41 382 35 402 35 413 c 0
331 382 m 1
 214 382 l 1
 194 229 l 1
 310 229 l 1
 331 382 l 1
EndSplineSet
EndChar
StartChar: dollar
Encoding: 36 36 35
Width: 525
Flags: W
VStem: 58 65<435.5 500.5> 58 77<130.5 183> 58 89<161 188.5> 231 62<-53 -3 58 288 347 552 615 654> 377 89<440 461.5> 401 65<136.5 223>
Fore
263 -83 m 0x14
 232 -83 231 -60 231 -43 c 2
 231 -4 l 1
 185 -0 62 27 58 168 c 0x54
 58 198 78 216 103 216 c 0
 117 216 147 205 147 172 c 0x30
 147 150 135 146 135 133 c 0x50
 135 128 137 121 144 110 c 0
 163 79 192 65 231 58 c 1
 231 288 l 1
 73 320 59 414 58 452 c 0
 58 549 150 603 231 615 c 1
 231 653 l 2
 231 679 237 694 262 694 c 0
 292 694 293 670 293 654 c 2
 293 615 l 1
 342 609 463 587 466 455 c 0
 466 425 446 407 421 407 c 0
 393 408 377 429 377 452 c 0x98
 377 471 389 482 391 485 c 1
 370 540 319 549 293 552 c 1
 293 347 l 1
 376 333 466 275 466 171 c 0
 465 67 373 8 293 -3 c 1
 293 -42 l 2
 293 -64 290 -83 263 -83 c 0x14
231 552 m 1
 160 541 123 494 123 455 c 0x90
 123 416 158 373 231 360 c 1
 231 552 l 1
293 275 m 1
 293 59 l 1
 343 68 401 106 401 167 c 0x14
 401 210 369 259 293 275 c 1
EndSplineSet
EndChar
StartChar: percent
Encoding: 37 37 36
Width: 525
Flags: W
HStem: -83 62<377 427> 121 62<377 427> 427 62<98 146.5> 632 62<97.5 146>
VStem: 35 56<522 598.5> 153 56<522.5 599> 315 56<13 87> 433 56<13 87>
Fore
431 637 m 2
 157 -54 l 2
 153 -65 146 -83 122 -83 c 0
 103 -83 87 -67 87 -48 c 0
 87 -41 89 -36 93 -26 c 2
 366 663 l 2
 371 675 378 694 402 694 c 0
 422 694 437 677 437 659 c 0
 437 652 435 647 431 637 c 2
489 50 m 0
 489 -24 452 -83 402 -83 c 0
 352 -83 315 -24 315 50 c 0
 315 124 352 183 402 183 c 0
 452 183 489 124 489 50 c 0
402 -21 m 0
 414 -21 433 6 433 50 c 0
 433 94 414 121 402 121 c 0
 390 121 371 94 371 50 c 0
 371 6 390 -21 402 -21 c 0
209 560 m 0
 209 485 171 427 122 427 c 0
 74 427 35 483 35 561 c 0
 35 636 73 694 122 694 c 0
 170 694 209 638 209 560 c 0
122 489 m 0
 134 489 153 517 153 561 c 0
 153 602 135 632 122 632 c 0
 109 632 91 602 91 561 c 0
 91 517 110 489 122 489 c 0
EndSplineSet
EndChar
StartChar: ampersand
Encoding: 38 38 37
Width: 525
Flags: W
HStem: -11 61<113 177 363 425> 370 61<350.5 359 358 458> 561 61<182 242.5>
VStem: 28 69<99 164> 103 56<455.5 527> 243 56<470.5 515.5> 431 56<81 121.5>
Fore
419 370 m 1
 359 214 l 2
 349 189 329 143 308 108 c 1
 317 96 355 50 392 50 c 0
 408 50 427 63 431 107 c 0
 431 112 433 138 459 138 c 0
 461 138 487 138 487 105 c 0
 487 57 458 -11 392 -11 c 0
 334 -11 291 40 275 59 c 1
 244 21 203 -11 151 -11 c 0
 75 -11 28 61 28 137 c 0
 28 183 44 218 63 242 c 1
 65 243 123 307 131 315 c 1
 110 378 103 434 103 477 c 0
 103 577 157 622 207 622 c 0
 278 622 299 546 299 485 c 0
 299 462 299 403 198 298 c 1
 218 244 259 181 272 160 c 1
 299 213 332 299 359 370 c 1
 342 370 318 370 318 401 c 0
 318 431 343 431 358 431 c 2
 450 431 l 2
 466 431 490 431 490 400 c 0
 490 370 465 370 450 370 c 2
 419 370 l 1
175 364 m 1
 225 420 243 456 243 485 c 0
 243 494 241 561 207 561 c 0
 185 561 159 535 159 477 c 0
 159 469 160 416 175 364 c 1
155 252 m 1
 108 200 97 188 97 140 c 0
 97 113 107 50 152 50 c 0
 166 50 202 55 239 108 c 1
 222 132 217 141 195 180 c 0
 181 203 162 236 155 252 c 1
EndSplineSet
EndChar
StartChar: quoteright
Encoding: 8217 8217 38
Width: 525
Flags: W
VStem: 292.333 61.0655<461.762 497.304>
Fore
292.333 492.5 m 1
 286.434 490.092 274.376 485.628 260.176 485.628 c 0
 248.409 485.628 235.172 488.694 222.75 498.536 c 0
 205.93 511.863 198.999 529.28 198.999 546.329 c 0
 198.999 569.08 211.341 591.175 229 602.025 c 0
 238.025 607.472 249.254 610.42 261.255 610.42 c 0
 295.914 610.42 337.011 585.832 350.072 525.833 c 0
 351.971 517.084 353.398 504.69 353.398 489.919 c 0
 353.398 433.605 332.649 342.759 238.167 287.782 c 0
 227.484 281.566 218.457 277.583 210.073 277.583 c 0
 202.779 277.583 195.971 280.598 188.984 287.782 c 0
 182.925 294.011 179.732 301.851 179.732 309.508 c 0
 179.732 316.477 182.378 323.295 187.917 328.607 c 0
 198.57 338.825 216.254 342.46 241.442 367.578 c 0
 276.632 402.672 291.836 445.458 292.333 492.5 c 1
EndSplineSet
EndChar
StartChar: parenleft
Encoding: 40 40 39
Width: 525
Flags: W
VStem: 173 69<246.5 434>
Fore
437 -54 m 0
 437 -62 432 -82 406 -82 c 0
 382 -82 307 -26 254 47 c 0
 219 97 173 187 173 306 c 0
 173 562 377 694 406 694 c 0
 432 694 437 674 437 666 c 0
 437 651 430 647 414 636 c 0
 280 545 242 406 242 306 c 0
 242 194 288 61 412 -23 c 0
 430 -35 437 -39 437 -54 c 0
EndSplineSet
EndChar
StartChar: parenright
Encoding: 41 41 40
Width: 525
Flags: W
VStem: 283 69<178 365.5>
Fore
352 306 m 0
 352 50 148 -82 119 -82 c 0
 94 -82 88 -62 88 -54 c 0
 88 -39 96 -34 111 -24 c 0
 246 67 283 206 283 306 c 0
 283 371 268 532 104 641 c 0
 99 644 88 651 88 666 c 0
 88 674 94 694 119 694 c 0
 143 694 218 638 271 565 c 0
 306 515 352 425 352 306 c 0
EndSplineSet
EndChar
StartChar: asterisk
Encoding: 42 42 41
Width: 525
Flags: W
HStem: 410 20G<91 104.5>
VStem: 229 66<127.5 146.5 464.5 483.5>
Fore
431 364 m 2
 323 305 l 1
 349 291 417 258 442 241 c 0
 444 240 456 231 456 214 c 0
 456 199 443 181 423 181 c 0
 415 181 413 181 386 197 c 0
 316 239 353 219 292 253 c 1
 294 227 295 161 295 132 c 0
 295 123 295 90 262 90 c 0
 229 90 229 123 229 132 c 0
 229 161 230 227 232 253 c 1
 108 181 l 1
 68 181 68 210 68 214 c 0
 68 234 81 240 93 247 c 2
 201 306 l 1
 92 365 l 2
 79 372 68 378 68 397 c 0
 68 412 81 430 101 430 c 0
 108 430 110 430 124 421 c 2
 232 358 l 1
 230 384 229 450 229 479 c 0
 229 488 229 521 262 521 c 0
 295 521 295 488 295 479 c 0
 295 450 294 384 292 358 c 1
 416 430 l 1
 456 430 456 401 456 397 c 0
 456 378 443 371 431 364 c 2
EndSplineSet
EndChar
StartChar: plus
Encoding: 43 43 42
Width: 525
Flags: W
HStem: 275 62<77 231 293 447>
VStem: 231 62<111.5 275 337 489>
Fore
293 122 m 2
 293 101 287 81 262 81 c 0
 249 81 237 90 233 102 c 0
 231 109 231 116 231 122 c 2
 231 275 l 1
 80 275 l 2
 73 275 66 274 60 276 c 0
 51 279 37 288 37 306 c 0
 37 317 43 336 77 337 c 2
 231 337 l 1
 231 489 l 2
 231 511 237 530 262 530 c 0
 275 530 287 521 291 509 c 0
 293 502 293 496 293 489 c 2
 293 337 l 1
 447 337 l 2
 481 336 486 317 486 306 c 0
 486 289 473 279 464 277 c 0
 458 275 451 275 444 275 c 2
 293 275 l 1
 293 122 l 2
EndSplineSet
EndChar
StartChar: comma
Encoding: 44 44 43
Width: 525
Flags: W
HStem: -20 20G<245.5 265>
VStem: 200 146<-30 79>
Fore
282 3 m 1
 275 1 268 0 262 0 c 0
 229 0 200 25 200 63 c 0
 200 95 223 125 263 125 c 0
 307 125 346 86 346 25 c 0
 346 -85 244 -139 212 -139 c 0
 195 -139 180 -122 180 -107 c 0
 180 -87 198 -82 208 -79 c 0
 220 -75 267 -59 282 3 c 1
EndSplineSet
EndChar
StartChar: hyphen
Encoding: 45 45 44
Width: 525
Flags: W
HStem: 185 61<120 401>
Fore
436 215 m 0
 436 182 406 185 393 185 c 2
 120 185 l 2
 93 185 87 202 87 216 c 0
 88 246 111 246 129 246 c 2
 401 246 l 2
 429 247 436 230 436 215 c 0
EndSplineSet
EndChar
StartChar: period
Encoding: 46 46 45
Width: 525
Flags: W
HStem: 0 21G<250.5 268>
Fore
199 63 m 0
 200 114 249 125 262 125 c 0
 313 124 324 75 324 63 c 0
 324 36 310 18 292 8 c 0
 283 3 274 0 262 0 c 0
 239 0 199 18 199 63 c 0
EndSplineSet
EndChar
StartChar: slash
Encoding: 47 47 46
Width: 525
Flags: W
Fore
89 -83 m 0
 81 -83 58 -76 58 -53 c 0
 59 -41 64 -34 67 -26 c 2
 404 669 l 2
 407 676 416 694 435 694 c 0
 446 694 465 685 465 663 c 0
 465 653 461 647 458 640 c 2
 121 -57 l 2
 111 -76 102 -83 89 -83 c 0
EndSplineSet
EndChar
StartChar: zero
Encoding: 48 48 47
Width: 525
Flags: W
HStem: -11 61<207 318> 561 61<206 317>
VStem: 50 69<213 397> 405 69<214 398>
Fore
474 305 m 0
 474 123 374 -11 262 -11 c 0
 152 -11 50 120 50 306 c 0
 50 488 150 622 262 622 c 0
 372 622 474 491 474 305 c 0
262 50 m 0
 340 50 405 168 405 316 c 0
 405 463 335 561 262 561 c 0
 188 561 119 462 119 316 c 0
 119 168 184 50 262 50 c 0
EndSplineSet
EndChar
StartChar: one
Encoding: 49 49 48
Width: 525
Flags: W
HStem: 0 61<143 242 151 409.5>
VStem: 242 69<61 581>
Fore
311 581 m 2
 311 61 l 1
 402 61 l 2
 418 61 442 61 442 30 c 0
 442 0 417 0 402 0 c 2
 151 0 l 2
 136 0 111 0 111 30 c 0
 111 61 135 61 151 61 c 2
 242 61 l 1
 242 483 l 1
 198 445 157 439 138 439 c 0
 123 439 105 444 105 469 c 0
 105 497 126 499 142 500 c 0
 161 502 213 513 251 598 c 0
 256 610 262 622 281 622 c 0
 311 622 311 597 311 581 c 2
EndSplineSet
EndChar
StartChar: two
Encoding: 50 50 49
Width: 525
Flags: W
HStem: 0 61<85 432> 561 61<190 310>
VStem: 52 89<436.5 497.5> 403 69<61 76.5 387 487>
Fore
67 58 m 2
 288 244 l 2
 354 299 403 357 403 427 c 0
 403 515 326 561 244 561 c 0
 189 561 142 530 127 484 c 1
 136 477 141 464 141 452 c 0
 141 424 118 407 97 407 c 0
 80 407 52 418 52 455 c 0
 52 540 131 622 249 622 c 0
 371 622 472 547 472 427 c 0
 472 347 426 283 363 227 c 0
 320 187 224 112 165 61 c 1
 403 61 l 1
 403 89 403 108 438 108 c 0
 472 108 472 86 472 67 c 2
 472 41 l 2
 472 9 465 0 432 0 c 2
 93 0 l 2
 77 0 52 0 52 31 c 0
 52 45 58 50 67 58 c 2
EndSplineSet
EndChar
StartChar: three
Encoding: 51 51 50
Width: 525
Flags: W
HStem: -11 61<202.5 329.5> 561 61<203 320.5>
VStem: 44 89<91.5 152> 73 89<488.5 539.5> 382 69<454 518> 411 69<127.5 209.5>
Fore
367 334 m 1xd8
 433 304 480 245 480 174 c 0
 480 81 395 -11 264 -11 c 0
 141 -11 44 47 44 136 c 0
 44 168 66 183 89 183 c 0
 114 183 133 163 133 139 c 0
 133 119 126 113 121 108 c 1
 147 61 224 50 264 50 c 0
 355 50 411 113 411 174 c 0xe4
 411 232 360 299 261 299 c 2
 215 299 l 2
 199 299 175 299 175 330 c 0
 175 359 190 359 247 363 c 0
 283 365 308 367 340 393 c 0
 367 415 382 450 382 480 c 0
 382 525 332 561 264 561 c 0
 255 561 184 561 153 530 c 1
 156 527 162 517 162 503 c 0
 162 475 139 458 118 458 c 0
 98 458 73 472 73 505 c 0
 73 574 143 622 263 622 c 0
 378 622 451 555 451 481 c 0
 451 427 423 370 367 334 c 1xd8
EndSplineSet
EndChar
StartChar: four
Encoding: 52 52 51
Width: 525
Flags: W
HStem: 0 61<251 321 259 446.5> 169 61<69 321 377 455>
VStem: 321 56<61 169 230 582>
Fore
38 244 m 2
 266 602 l 2
 279 622 284 623 308 623 c 2
 336 623 l 2
 370 623 377 615 377 582 c 2
 377 230 l 1
 455 230 l 2
 471 230 495 230 495 199 c 0
 495 169 470 169 455 169 c 2
 377 169 l 1
 377 61 l 1
 439 61 l 2
 455 61 479 61 479 30 c 0
 479 0 454 0 439 0 c 2
 259 0 l 2
 244 0 219 0 219 30 c 0
 219 61 243 61 259 61 c 2
 321 61 l 1
 321 169 l 1
 69 169 l 2
 38 169 29 176 29 209 c 0
 29 229 29 231 38 244 c 2
99 230 m 1
 321 230 l 1
 321 579 l 1
 99 230 l 1
EndSplineSet
EndChar
StartChar: five
Encoding: 53 53 52
Width: 525
Flags: W
HStem: -11 61<192 310.5> 328 61<247 336> 550 61<128 405>
VStem: 52 89<100.5 161.5> 88 69<304 586> 403 69<134.5 240.5>
Fore
277 389 m 0xec
 395 389 472 291 472 190 c 0
 472 79 373 -11 248 -11 c 0
 136 -11 52 59 52 142 c 0
 52 181 82 190 97 190 c 0
 118 190 141 174 141 145 c 0xf4
 141 125 133 118 128 113 c 1
 156 58 220 50 248 50 c 0
 332 50 403 110 403 190 c 0
 403 255 358 328 276 328 c 0
 218 328 177 310 150 278 c 0
 142 268 138 263 120 263 c 0
 88 263 88 286 88 304 c 2
 88 570 l 2
 88 602 95 611 128 611 c 2
 397 611 l 2
 413 611 437 611 437 580 c 0
 437 550 412 550 397 550 c 2
 157 550 l 1
 157 360 l 1
 198 382 242 389 277 389 c 0xec
EndSplineSet
EndChar
StartChar: six
Encoding: 54 54 53
Width: 525
Flags: W
HStem: -11 61<214.5 318.5> 334 62<230 328> 561 61<254 369.5>
VStem: 53 79<180.5 400> 365 89<504 543.5> 402 69<133 250>
Fore
124 338 m 1xf8
 169 379 221 396 273 396 c 0
 383 396 471 307 471 193 c 0xf4
 471 73 373 -11 264 -11 c 0
 165 -11 53 62 53 299 c 0
 53 501 187 622 321 622 c 0
 418 622 454 568 454 519 c 0
 454 489 434 472 409 472 c 0
 383 472 365 492 365 516 c 0
 365 534 370 540 375 545 c 1
 370 550 354 561 320 561 c 0
 232 561 138 479 124 338 c 1xf8
264 50 m 0
 336 50 402 107 402 193 c 0
 402 267 349 334 268 334 c 0
 192 334 132 284 132 222 c 0
 132 215 134 198 135 191 c 2
 134 182 l 1
 135 178 l 2
 137 172 138 166 140 160 c 0
 160 99 199 50 264 50 c 0
EndSplineSet
EndChar
StartChar: seven
Encoding: 55 55 54
Width: 525
Flags: W
HStem: -11 21G<187.5 213.5> 550 61<110 448>
VStem: 44 69<534.5 550> 170 69<14.5 91>
Fore
377 550 m 1
 113 550 l 1
 113 522 113 503 78 503 c 0
 44 503 44 525 44 544 c 2
 44 586 l 2
 44 605 44 627 78 627 c 0
 86 627 104 627 110 611 c 1
 440 611 l 2
 456 611 480 611 480 580 c 0
 480 566 478 564 458 546 c 0
 397 487 244 313 239 29 c 0
 239 0 222 -11 205 -11 c 0
 170 -11 170 22 170 36 c 0
 170 146 204 366 377 550 c 1
EndSplineSet
EndChar
StartChar: eight
Encoding: 56 56 55
Width: 525
Flags: W
HStem: -11 61<199.5 325> 299 61<216.5 308> 561 61<202 321.5>
VStem: 44 69<125.5 211.5> 58 69<433 502.5> 397 69<432.5 503> 411 69<125.5 211.5>
Fore
262 360 m 0xec
 335 360 397 404 397 461 c 0
 397 513 340 561 262 561 c 0
 183 561 127 513 127 461 c 0
 127 405 189 360 262 360 c 0xec
341 329 m 1
 415 308 480 249 480 174 c 0
 480 77 388 -11 262 -11 c 0
 137 -11 44 77 44 174 c 0xf2
 44 249 108 308 183 329 c 1
 104 355 58 405 58 462 c 0
 58 543 142 622 262 622 c 0
 381 622 466 544 466 462 c 0
 466 405 421 356 341 329 c 1
262 50 m 0
 345 50 411 106 411 175 c 0
 411 236 354 299 262 299 c 0
 171 299 113 236 113 175 c 0
 113 106 179 50 262 50 c 0
EndSplineSet
EndChar
StartChar: nine
Encoding: 57 57 56
Width: 525
Flags: W
HStem: -11 61<152 282> 215 62<196 297.5> 561 61<209.5 312.5>
VStem: 53 69<361 478.5> 70 89<76 107> 393 78<213 432.5>
Fore
400 273 m 1xec
 355 232 303 215 251 215 c 0
 141 215 53 304 53 418 c 0xf4
 53 539 154 622 265 622 c 0
 360 622 471 553 471 312 c 0
 471 114 348 -11 216 -11 c 0
 88 -11 70 60 70 92 c 0
 70 122 90 139 115 139 c 0
 141 139 159 119 159 95 c 0
 159 78 154 72 150 67 c 1
 171 51 207 50 216 50 c 0
 312 50 390 149 400 273 c 1xec
256 277 m 0
 339 277 393 334 393 389 c 0
 393 398 389 414 389 419 c 0
 389 424 390 426 390 428 c 0
 390 434 378 485 352 518 c 0
 336 538 308 561 265 561 c 0
 193 561 122 505 122 418 c 0
 122 344 175 277 256 277 c 0
EndSplineSet
EndChar
StartChar: colon
Encoding: 58 58 57
Width: 525
Flags: W
HStem: 0 21G<246 281> 411 20G<244 279>
VStem: 200 125<44.5 80.5 350.5 386.5>
Fore
325 368 m 0
 325 337 300 306 262 306 c 0
 230 306 200 332 200 369 c 0
 200 400 225 431 263 431 c 0
 295 431 325 405 325 368 c 0
325 62 m 0
 325 31 300 0 262 0 c 0
 230 0 200 26 200 63 c 0
 200 94 225 125 263 125 c 0
 295 125 325 99 325 62 c 0
EndSplineSet
EndChar
StartChar: semicolon
Encoding: 59 59 58
Width: 525
Flags: W
HStem: -20 20<245.5 265>
VStem: 200 146<-30 79>
Fore
199 368 m 0
 200 419 249 430 262 430 c 0
 313 429 324 380 324 368 c 0
 324 341 310 323 292 313 c 0
 283 308 274 305 262 305 c 0
 242 305 199 320 199 368 c 0
EndSplineSet
Refer: 43 44 S 1 0 0 1 0 0 2
EndChar
StartChar: less
Encoding: 60 60 59
Width: 525
Flags: W
Fore
437 551 m 0
 460 551 468 530 468 521 c 0
 467 504 457 497 446 490 c 2
 146 305 l 1
 154 301 160.96 295.935 169 291 c 2
 446 121 l 2
 457 114 467 107 468 90 c 0
 468 78 458 60 437 60 c 0
 427 60 421 64 414 68 c 2
 81 273 l 2
 75 277 56 286 56 306 c 0
 56 325 74 334 81 338 c 2
 414 543 l 2
 421 547 427 551 437 551 c 0
EndSplineSet
EndChar
StartChar: equal
Encoding: 61 61 60
Width: 525
Flags: W
HStem: 199 62<75 463.5> 350 62<74 463>
Fore
445 412 m 2
 481 412 486 393 486 381 c 0
 486 369 480 351 451 350 c 2
 74 350 l 2
 42 351 37 371 37 382 c 0
 37 392 44 401 49 405 c 0
 58 412 69 412 83 412 c 2
 445 412 l 2
486 230 m 0
 485 196 452 199 437 199 c 2
 75 199 l 2
 44 200 37 218 37 230 c 0
 37 243 46 257 63 260 c 0
 69 261 77 261 83 261 c 2
 446 261 l 2
 481 261 486 242 486 230 c 0
EndSplineSet
EndChar
StartChar: greater
Encoding: 62 62 61
Width: 525
Flags: W
Fore
87 60 m 0
 63 60 56 82 56 90 c 0
 57 107 68 115 78 121 c 2
 378 306 l 1
 370 310 363.04 315.065 355 320 c 2
 78 490 l 2
 68 497 57 504 56 521 c 0
 56 529 63 551 87 551 c 0
 97 551 103 547 110 543 c 2
 443 339 l 2
 449 335 468 325 468 306 c 0
 468 286 450 277 443 273 c 2
 110 68 l 2
 103 64 97 60 87 60 c 0
EndSplineSet
EndChar
StartChar: question
Encoding: 63 63 62
Width: 525
Flags: W
HStem: 0 100<233 261> 556 61<181.5 344.5>
VStem: 62 89<479 523> 197 100<36 64> 207 80<216.5 264.5> 393 69<467 511.5>
Fore
287 241 m 2xec
 287 224 l 2
 287 190 277 184 247 184 c 0
 207 184 207 197 207 236 c 0
 207 276 207 365 352 445 c 0
 371 455 393 467 393 493 c 0
 393 524 354 556 252 556 c 0
 213 556 166 549 141 521 c 1
 146 515 151 505 151 493 c 0
 151 465 128 448 107 448 c 0
 86 448 62 463 62 495 c 0
 62 551 111 617 252 617 c 0
 437 617 462 530 462 493 c 0
 462 441 425 412 396 396 c 0
 303 345 287 288 287 241 c 2xec
297 50 m 0xf4
 297 22 275 0 247 0 c 0
 219 0 197 22 197 50 c 0
 197 78 219 100 247 100 c 0
 275 100 297 78 297 50 c 0xf4
EndSplineSet
EndChar
StartChar: at
Encoding: 64 64 63
Width: 525
Flags: W
HStem: -6 61<236 351> 106 61<298 359.5> 444 61<296 357.5> 556 61<236 392>
VStem: 44 56<216.5 396> 191 56<246.5 362.5> 424 56<234.5 353.5>
Fore
400 485 m 1
 377 546 332 556 304 556 c 0
 201 556 100 454 100 305 c 0
 100 163 197 55 305 55 c 0
 339 55 377 66 412 98 c 0
 422 108 425 108 442 108 c 0
 452 108 480 108 480 80 c 0
 480 51 396 -6 306 -6 c 0
 166 -6 44 127 44 306 c 0
 44 486 168 617 304 617 c 0
 480 617 480 386 480 321 c 0
 480 148 384 106 335 106 c 0
 261 106 191 187 191 306 c 0
 191 419 256 505 336 505 c 0
 369 505 397 487 400 485 c 1
336 167 m 0
 379 167 424 224 424 305 c 0
 424 386 380 444 335 444 c 0
 293 444 247 389 247 305 c 0
 247 227 289 167 336 167 c 0
EndSplineSet
EndChar
StartChar: A
Encoding: 65 65 64
Width: 525
Flags: W
HStem: 0 61<70 181 348 366 352 462.5> 165 61<181 343>
Fore
316 584 m 2
 437 61 l 1
 452 61 474 61 480 58 c 0
 492 53 497 43 497 30 c 0
 497 0 471 0 454 0 c 2
 352 0 l 2
 334 0 310 0 310 30 c 0
 310 61 330 61 366 61 c 1
 343 165 l 1
 181 165 l 1
 158 61 l 1
 194 61 214 61 214 30 c 0
 214 0 190 0 172 0 c 2
 70 0 l 2
 53 0 27 0 27 30 c 0
 27 43 33 53 44 59 c 0
 50 61 73 61 87 61 c 1
 208 585 l 2
 217 623 233 623 262 623 c 0
 293 623 307 622 316 584 c 2
262 540 m 1
 196 226 l 1
 328 226 l 1
 262 540 l 1
EndSplineSet
EndChar
StartChar: B
Encoding: 66 66 65
Width: 525
Flags: W
HStem: 0 61<56 309 63 365.5> 287 61<160 298> 550 61<56 289>
VStem: 91 69<61 550> 392 69<425 492.5> 413 69<128 201.5>
Fore
160 550 m 1xf8
 160 348 l 1
 263 348 l 2
 360 348 392 414 392 455 c 0
 392 488 370 550 285 550 c 2
 160 550 l 1xf8
353 320 m 1
 434 301 482 236 482 167 c 0xf4
 482 89 422 0 309 0 c 2
 63 0 l 2
 49 0 23 0 23 30 c 0
 23 61 48 61 64 61 c 2
 91 61 l 1
 91 550 l 1
 64 550 l 2
 48 550 23 550 23 581 c 0
 23 611 49 611 63 611 c 2
 289 611 l 2
 400 611 461 529 461 456 c 0
 461 394 417 342 353 320 c 1
287 61 m 2
 374 61 413 120 413 169 c 0
 413 214 383 287 298 287 c 2
 160 287 l 1
 160 61 l 1
 287 61 l 2
EndSplineSet
EndChar
StartChar: C
Encoding: 67 67 66
Width: 525
Flags: W
HStem: -11 61<217 340> 561 61<216.5 315>
VStem: 40 69<214.5 397>
Fore
484 581 m 2
 484 442 l 2
 484 422 484 401 449 401 c 0
 419 401 417 417 414 434 c 0
 400 515 345 561 285 561 c 0
 196 561 109 455 109 306 c 0
 109 156 195 50 286 50 c 0
 327 50 408 74 415 172 c 0
 417 201 440 201 449 201 c 0
 460 201 484 201 484 168 c 0
 484 78 398 -11 282 -11 c 0
 152 -11 40 123 40 306 c 0
 40 488 152 622 281 622 c 0
 332 622 378 602 411 574 c 1
 424 599 424 601 426 605 c 0
 431 612 436 622 454 622 c 0
 484 622 484 597 484 581 c 2
EndSplineSet
EndChar
StartChar: D
Encoding: 68 68 67
Width: 525
Flags: W
HStem: 0 61<52 266 60 331.5> 550 61<52 303.5>
VStem: 82 69<61 550> 416 69<220.5 381>
Fore
60 611 m 2
 266 611 l 2
 399 611 485 461 485 301 c 0
 485 140 397 0 266 0 c 2
 60 0 l 2
 45 0 19 0 19 30 c 0
 19 61 44 61 60 61 c 2
 82 61 l 1
 82 550 l 1
 60 550 l 2
 45 550 19 550 19 580 c 0
 19 611 44 611 60 611 c 2
151 61 m 1
 247 61 l 2
 358 61 416 184 416 301 c 0
 416 417 360 550 247 550 c 2
 151 550 l 1
 151 61 l 1
EndSplineSet
EndChar
StartChar: E
Encoding: 69 69 68
Width: 525
Flags: W
HStem: 0 61<59.5 462> 286 61<166 297> 550 61<59.5 440>
VStem: 97 69<61 550> 297 69<265.5 286 270 372.5> 411 69<487 570> 433 69<25 130>
Fore
97 61 m 1xfa
 97 550 l 1
 67 550 l 2
 52 550 26 550 26 581 c 0
 26 611 52 611 67 611 c 2
 440 611 l 2
 474 611 480 601 480 570 c 2
 480 497 l 2
 480 477 480 456 445 456 c 0
 411 456 411 478 411 497 c 2
 411 550 l 1xfc
 166 550 l 1
 166 347 l 1
 297 347 l 1
 297 388 297 404 332 404 c 0
 366 404 366 382 366 363 c 2
 366 270 l 2
 366 251 366 229 332 229 c 0
 297 229 297 245 297 286 c 1
 166 286 l 1
 166 61 l 1
 433 61 l 1
 433 130 l 2
 433 150 433 171 468 171 c 0
 502 171 502 149 502 130 c 2
 502 41 l 2
 502 9 495 0 462 0 c 2
 67 0 l 2
 52 0 26 0 26 30 c 0
 26 61 51 61 67 61 c 2
 97 61 l 1xfa
EndSplineSet
EndChar
StartChar: F
Encoding: 70 70 69
Width: 525
Flags: W
HStem: 0 61<61 102 69 230.5> 275 61<171 307> 550 61<61 450>
VStem: 102 69<61 550> 307 69<254.5 275 259 361.5> 421 69<487 570>
CounterMasks: 1 00
Fore
171 275 m 1
 171 61 l 1
 223 61 l 2
 239 61 263 61 263 30 c 0
 263 0 238 0 223 0 c 2
 69 0 l 2
 54 0 28 0 28 30 c 0
 28 61 53 61 69 61 c 2
 102 61 l 1
 102 550 l 1
 69 550 l 2
 54 550 28 550 28 580 c 0
 28 611 53 611 69 611 c 2
 450 611 l 2
 484 611 490 601 490 570 c 2
 490 497 l 2
 490 477 490 456 455 456 c 0
 421 456 421 478 421 497 c 2
 421 550 l 1
 171 550 l 1
 171 336 l 1
 307 336 l 1
 307 377 307 393 342 393 c 0
 376 393 376 371 376 352 c 2
 376 259 l 2
 376 240 376 218 342 218 c 0
 307 218 307 234 307 275 c 1
 171 275 l 1
EndSplineSet
EndChar
StartChar: G
Encoding: 71 71 70
Width: 525
Flags: W
HStem: -11 61<201.5 290.5> 209 61<328.5 455 336 462.5> 561 61<201 282.5>
VStem: 38 69<214 396.5> 380 69<31 42>
Fore
449 209 m 1
 449 41 l 2
 449 22 449 0 415 0 c 0
 380 0 380 20 380 42 c 1
 360 19 318 -11 261 -11 c 0
 142 -11 38 122 38 306 c 0
 38 487 141 622 261 622 c 0
 303 622 343 607 378 577 c 1
 393 611 398 622 419 622 c 0
 449 622 449 597 449 581 c 2
 449 442 l 2
 449 422 449 401 414 401 c 0
 388 401 382 413 380 430 c 0
 363 538 300 561 265 561 c 0
 187 561 107 458 107 305 c 0
 107 158 183 50 264 50 c 0
 317 50 366 97 378 209 c 1
 336 209 l 2
 320 209 296 209 296 240 c 0
 296 270 321 270 336 270 c 2
 455 270 l 2
 470 270 496 270 496 240 c 0
 496 209 473 209 449 209 c 1
EndSplineSet
EndChar
StartChar: H
Encoding: 72 72 71
Width: 525
Flags: W
HStem: 0 61<54 87 62 188.5 335.5 368 343 469.5> 287 61<156 368> 550 61<54 188.5 335.5 470 343 470>
VStem: 87 69<61 550> 368 69<61 550>
Fore
437 550 m 1
 437 61 l 1
 462 61 l 2
 478 61 502 61 502 30 c 0
 502 0 477 0 462 0 c 2
 343 0 l 2
 327 0 303 0 303 31 c 0
 303 61 328 61 343 61 c 2
 368 61 l 1
 368 287 l 1
 156 287 l 1
 156 61 l 1
 181 61 l 2
 197 61 221 61 221 30 c 0
 221 0 196 0 181 0 c 2
 62 0 l 2
 47 0 22 0 22 30 c 0
 22 61 46 61 62 61 c 2
 87 61 l 1
 87 550 l 1
 62 550 l 2
 47 550 22 550 22 580 c 0
 22 611 46 611 62 611 c 2
 181 611 l 2
 197 611 221 611 221 580 c 0
 221 550 196 550 181 550 c 2
 156 550 l 1
 156 348 l 1
 368 348 l 1
 368 550 l 1
 343 550 l 2
 327 550 303 550 303 581 c 0
 303 611 328 611 343 611 c 2
 462 611 l 2
 478 611 502 611 502 580 c 0
 502 550 477 550 462 550 c 2
 437 550 l 1
EndSplineSet
EndChar
StartChar: I
Encoding: 73 73 72
Width: 525
Flags: W
HStem: 0 61<112.5 228 120 412.5> 550 61<112.5 412.5 120 412.5>
VStem: 228 69<61 550>
Fore
297 550 m 1
 297 61 l 1
 405 61 l 2
 420 61 446 61 446 30 c 0
 446 0 420 0 405 0 c 2
 120 0 l 2
 105 0 79 0 79 31 c 0
 79 61 105 61 120 61 c 2
 228 61 l 1
 228 550 l 1
 120 550 l 2
 105 550 79 550 79 581 c 0
 79 611 105 611 120 611 c 2
 405 611 l 2
 420 611 446 611 446 580 c 0
 446 550 420 550 405 550 c 2
 297 550 l 1
EndSplineSet
EndChar
StartChar: J
Encoding: 74 74 73
Width: 525
Flags: W
HStem: -11 61<187 281.5> 550 61<248.5 444.5 256 444.5>
VStem: 71 89<67.5 115> 338 69<134 550>
Fore
407 550 m 1
 407 134 l 2
 407 43 326 -11 237 -11 c 0
 137 -11 71 36 71 99 c 0
 71 131 93 146 116 146 c 0
 141 146 160 126 160 102 c 0
 160 86 156 81 152 76 c 1
 181 50 229 50 237 50 c 0
 256 50 338 55 338 140 c 2
 338 550 l 1
 256 550 l 2
 241 550 215 550 215 581 c 0
 215 611 241 611 256 611 c 2
 437 611 l 2
 452 611 478 611 478 581 c 0
 478 550 453 550 437 550 c 2
 407 550 l 1
EndSplineSet
EndChar
StartChar: K
Encoding: 75 75 74
Width: 525
Flags: W
HStem: 0 61<59.5 89 67 174.5 371 378 379 461.5> 550 61<59.5 174.5 348.5 446>
VStem: 89 56<61 550>
Fore
276 358 m 1
 436 73 l 2
 437 71 441 65 443 61 c 1
 472 61 495 61 495 30 c 0
 495 0 469 0 454 0 c 2
 379 0 l 2
 363 0 338 0 338 31 c 0
 338 61 364 61 378 61 c 1
 238 311 l 1
 145 194 l 1
 145 61 l 1
 167 61 l 2
 183 61 208 61 208 30 c 0
 208 0 182 0 167 0 c 2
 67 0 l 2
 51 0 26 0 26 31 c 0
 26 61 52 61 67 61 c 2
 89 61 l 1
 89 550 l 1
 67 550 l 2
 51 550 26 550 26 581 c 0
 26 611 52 611 67 611 c 2
 167 611 l 2
 183 611 208 611 208 580 c 0
 208 550 182 550 167 550 c 2
 145 550 l 1
 145 284 l 1
 356 550 l 1
 342 550 315 550 315 580 c 0
 315 611 341 611 356 611 c 2
 444 611 l 2
 458 611 485 611 485 581 c 0
 485 550 464 550 428 550 c 1
 276 358 l 1
EndSplineSet
EndChar
StartChar: L
Encoding: 76 76 75
Width: 525
Flags: W
HStem: 0 61<64 109 64.5 448> 550 61<64 241.5 72 241.5>
VStem: 109 69<61 550> 419 69<25 130>
Fore
178 550 m 1
 178 61 l 1
 419 61 l 1
 419 130 l 2
 419 151 419 171 454 171 c 0
 488 171 488 150 488 130 c 2
 488 41 l 2
 488 9 481 0 448 0 c 2
 72 0 l 2
 57 0 32 0 32 30 c 0
 32 61 56 61 72 61 c 2
 109 61 l 1
 109 550 l 1
 72 550 l 2
 57 550 32 550 32 580 c 0
 32 611 56 611 72 611 c 2
 234 611 l 2
 249 611 275 611 275 580 c 0
 275 550 248 550 234 550 c 2
 178 550 l 1
EndSplineSet
EndChar
StartChar: M
Encoding: 77 77 76
Width: 525
Flags: W
HStem: 0 61<54 70 57 146.5 382 398 385 474.5> 204 71<256 268.5> 538 73<113 127 390.5 411> 550 61<49.5 70 454 474.5>
VStem: 70 56<61 550> 398 56<61 550>
Fore
290 369 m 2xec
 357 571 l 2
 366 597 370 611 411 611 c 2xec
 467 611 l 2
 482 611 507 611 507 581 c 0
 507 550 486 550 454 550 c 1xdc
 454 61 l 1
 486 61 507 61 507 30 c 0
 507 0 482 0 467 0 c 2
 385 0 l 2
 370 0 345 0 345 30 c 0
 345 61 366 61 398 61 c 1
 398 538 l 1
 397 538 l 1
 385 485 300 232 297 226 c 0
 289 212 275 204 262 204 c 0
 250 204 238 211 232 219 c 0
 227 226 214 264 206 287 c 0
 202 300 138 492 127 538 c 1
 126 538 l 1xec
 126 61 l 1
 158 61 179 61 179 30 c 0
 179 0 154 0 139 0 c 2
 57 0 l 2
 42 0 17 0 17 30 c 0
 17 61 38 61 70 61 c 1
 70 550 l 1
 38 550 17 550 17 581 c 0
 17 611 42 611 57 611 c 2xdc
 113 611 l 2
 127 611 152 611 162 587 c 0
 164 581 252 322 262 275 c 1
 263 275 l 1
 269 304 278 333 290 369 c 2xec
EndSplineSet
EndChar
StartChar: N
Encoding: 78 78 77
Width: 525
Flags: W
HStem: 0 61<60.5 93 68 181.5> 0 75<374 404> 536 75<136 150> 550 61<60.5 93 342 463.5>
VStem: 93 56<61 550> 375 56<22 550>
Fore
190 575 m 2x2c
 374 75 l 1
 375 75 l 1
 375 550 l 1
 350 550 l 2
 335 550 310 550 310 580 c 0
 310 611 334 611 350 611 c 2
 456 611 l 2
 472 611 496 611 496 580 c 0
 496 550 471 550 456 550 c 2
 431 550 l 1x5c
 431 41 l 2
 431 3 419 0 389 0 c 0
 363 0 347 1 334 36 c 2
 150 536 l 1
 149 536 l 1x6c
 149 61 l 1
 174 61 l 2
 190 61 214 61 214 30 c 0
 214 0 189 0 174 0 c 2
 68 0 l 2
 52 0 28 0 28 31 c 0
 28 61 53 61 68 61 c 2
 93 61 l 1
 93 550 l 1
 68 550 l 2
 52 550 28 550 28 581 c 0
 28 611 53 611 68 611 c 2x9c
 136 611 l 2
 163 611 178 608 190 575 c 2x2c
EndSplineSet
EndChar
StartChar: O
Encoding: 79 79 78
Width: 525
Flags: W
HStem: -11 61<169.5 354> 561 61<169.5 354.5>
VStem: 56 69<160.5 450> 399 69<160.5 449.5>
Fore
468 305 m 0
 468 16 446 -11 262 -11 c 0
 77 -11 56 16 56 305 c 0
 56 595 77 622 262 622 c 0
 447 622 468 594 468 305 c 0
262 50 m 0
 351 50 377 71 388 127 c 0
 399 181 399 252 399 314 c 0
 399 375 399 450 387 497 c 0
 372 552 337 561 262 561 c 0
 180 561 149 549 136 490 c 0
 125 444 125 376 125 314 c 0
 125 259 125 172 137 121 c 0
 149 71 174 50 262 50 c 0
EndSplineSet
EndChar
StartChar: P
Encoding: 80 80 79
Width: 525
Flags: W
HStem: 0 61<59 97 67 203.5> 245 61<166 291> 550 61<59.5 320>
VStem: 97 69<61 550> 411 69<381.5 474.5>
Fore
166 245 m 1
 166 61 l 1
 196 61 l 2
 211 61 237 61 237 30 c 0
 237 0 211 0 196 0 c 2
 67 0 l 2
 52 0 26 0 26 30 c 0
 26 61 51 61 67 61 c 2
 97 61 l 1
 97 550 l 1
 67 550 l 2
 52 550 26 550 26 581 c 0
 26 611 52 611 67 611 c 2
 291 611 l 2
 406 611 480 521 480 428 c 0
 480 335 407 245 291 245 c 2
 166 245 l 1
166 550 m 1
 166 306 l 1
 272 306 l 2
 368 306 411 375 411 428 c 0
 411 481 368 550 272 550 c 2
 166 550 l 1
EndSplineSet
EndChar
StartChar: Q
Encoding: 81 81 80
Width: 525
Flags: W
HStem: -11 61<169.5 286> 561 61<169.5 354.5>
VStem: 56 69<160.5 450> 399 69<201.5 449.5>
Fore
423 -139 m 2
 414 -139 l 2
 398 -139 387 -139 379 -127 c 0
 377 -123 324 -23 318 -10 c 1
 307 -11 275 -11 262 -11 c 0
 77 -11 56 16 56 305 c 0
 56 595 77 622 262 622 c 0
 447 622 468 594 468 305 c 0
 468 259 468 192 462 138 c 0
 453 57 435 22 391 4 c 1
 398 -9 416 -43 424 -56 c 0
 435 -78 455 -114 455 -120 c 0
 455 -139 438 -139 423 -139 c 2
286 50 m 1
 240 139 l 2
 237 144 236 147 236 152 c 0
 236 171 254 171 268 171 c 2
 279 171 l 2
 299 171 300 170 309 155 c 2
 357 68 l 1
 379 83 399 97 399 306 c 0
 399 360 399 428 390 479 c 0
 379 544 351 561 262 561 c 0
 170 561 148 541 135 486 c 0
 125 438 125 361 125 305 c 0
 125 251 125 183 134 132 c 0
 144 78 164 50 254 50 c 2
 286 50 l 1
EndSplineSet
EndChar
StartChar: R
Encoding: 82 82 81
Width: 525
Flags: W
HStem: -11 61<418 466.5> 0 61<54 87 62 188.5> 275 61<156 234> 550 61<62 298>
VStem: 87 69<61 550> 337 69<122.5 183> 364 69<418.5 486> 453 69<74 109>
Fore
156 550 m 1x3b
 156 336 l 1
 228 336 l 2
 319 336 364 394 364 443 c 0
 364 491 320 550 228 550 c 2
 156 550 l 1x3b
348 304 m 1
 362 293 385 272 397 243 c 0
 406 220 406 212 406 149 c 0
 406 96 406 50 434 50 c 0
 451 50 453 87 453 95 c 0
 454 125 477 125 487 125 c 0
 498 125 522 125 522 93 c 0
 522 55 498 -11 435 -11 c 0xbd
 401 -11 373 5 356 35 c 0
 337 67 337 97 337 162 c 0
 337 204 337 226 315 247 c 0
 283 275 253 275 234 275 c 2
 156 275 l 1
 156 61 l 1
 181 61 l 2
 197 61 221 61 221 30 c 0
 221 0 196 0 181 0 c 2
 62 0 l 2
 47 0 22 0 22 30 c 0
 22 61 46 61 62 61 c 2
 87 61 l 1x7d
 87 550 l 1
 62 550 l 2
 47 550 22 550 22 580 c 0
 22 611 46 611 62 611 c 2
 239 611 l 2
 357 611 433 529 433 443 c 0
 433 402 414 341 348 304 c 1
EndSplineSet
EndChar
StartChar: S
Encoding: 83 83 82
Width: 525
Flags: W
HStem: -11 61<252 342> 561 61<182.5 296>
VStem: 52 65<424.5 500.5> 407 65<121.5 204.5>
Fore
296 274 m 0
 282 277 185 300 181 301 c 0
 98 325 52 391 52 458 c 0
 52 543 127 622 238 622 c 0
 283 622 337 610 378 575 c 1
 386 605 391 622 415 622 c 0
 445 622 445 597 445 581 c 2
 445 449 l 2
 445 429 445 408 410 408 c 0
 390 408 379 414 376 436 c 0
 370 467 355 561 237 561 c 0
 166 561 117 513 117 462 c 0
 117 415 155 380 197 368 c 2
 278 350 l 2
 356 332 383 325 424 285 c 0
 436 272 472 230 472 166 c 0
 472 77 400 -11 284 -11 c 0
 220 -11 159 5 119 35 c 1
 110 3 104 -11 82 -11 c 0
 52 -11 52 14 52 30 c 2
 52 162 l 2
 52 182 52 203 87 203 c 0
 119 203 120 185 121 168 c 0
 122 150 126 108 168 81 c 0
 208 54 257 50 285 50 c 0
 364 50 407 109 407 161 c 0
 407 248 324 268 296 274 c 0
EndSplineSet
EndChar
StartChar: T
Encoding: 84 84 83
Width: 525
Flags: W
HStem: 0 61<168.5 228 176 356.5> 456 155<43 480.5>
VStem: 26 69<497 586.5> 228 69<61 550> 429 69<487 570>
Fore
297 550 m 1
 297 61 l 1
 349 61 l 2
 365 61 389 61 389 30 c 0
 389 0 364 0 349 0 c 2
 176 0 l 2
 160 0 136 0 136 31 c 0
 136 61 161 61 176 61 c 2
 228 61 l 1
 228 550 l 1
 95 550 l 1
 95 497 l 2
 95 477 95 456 60 456 c 0
 26 456 26 478 26 497 c 2
 26 570 l 2
 26 603 34 611 67 611 c 2
 458 611 l 2
 492 611 498 601 498 570 c 2
 498 497 l 2
 498 477 498 456 463 456 c 0
 429 456 429 478 429 497 c 2
 429 550 l 1
 297 550 l 1
EndSplineSet
EndChar
StartChar: U
Encoding: 85 85 84
Width: 525
Flags: W
HStem: -11 61<212 312> 550 61<37.5 181.5 342.5 486.5 350 486.5>
VStem: 75 69<142.5 550> 380 69<204 550>
Fore
449 550 m 1
 449 204 l 2
 449 81 362 -11 262 -11 c 0
 162 -11 75 81 75 204 c 2
 75 550 l 1
 45 550 l 2
 30 550 4 550 4 581 c 0
 4 611 30 611 45 611 c 2
 174 611 l 2
 189 611 215 611 215 581 c 0
 215 550 189 550 174 550 c 2
 144 550 l 1
 144 209 l 2
 144 102 209 50 262 50 c 0
 314 50 380 102 380 209 c 2
 380 550 l 1
 350 550 l 2
 335 550 309 550 309 581 c 0
 309 611 335 611 350 611 c 2
 479 611 l 2
 494 611 520 611 520 581 c 0
 520 550 495 550 479 550 c 2
 449 550 l 1
EndSplineSet
EndChar
StartChar: V
Encoding: 86 86 85
Width: 525
Flags: W
HStem: -8 80<247.5 275.5> 550 61<51.5 163.5 360.5 378 363 472.5>
Fore
449 550 m 1
 317 29 l 2
 308 -8 289 -8 262 -8 c 0
 233 -8 217 -8 207 30 c 2
 75 550 l 1
 39 550 18 550 18 581 c 0
 18 611 44 611 59 611 c 2
 161 611 l 2
 176 611 202 611 202 581 c 0
 202 550 181 550 146 550 c 1
 243 161 l 2
 252 124 256 107 261 72 c 1
 262 72 l 1
 269 115 288 191 301 244 c 2
 378 550 l 1
 343 550 322 550 322 581 c 0
 322 611 348 611 363 611 c 2
 465 611 l 2
 480 611 506 611 506 581 c 0
 506 550 485 550 449 550 c 1
EndSplineSet
EndChar
StartChar: W
Encoding: 87 87 86
Width: 525
Flags: W
HStem: -8 84<156 167 357 368> 293 74<257 266.5> 550 61<44.5 138.5 385 472 393 480.5>
Fore
475 550 m 1
 403 27 l 2
 398 -8 374 -8 362 -8 c 0
 355 -8 329 -8 322 17 c 0
 321 19 267 248 263 293 c 1
 262 293 l 1
 258 253 204 19 201 12 c 0
 191 -8 171 -8 162 -8 c 0
 150 -8 126 -8 121 27 c 2
 49 550 l 1
 48 550 l 2
 39 550 11 550 11 580 c 0
 11 611 37 611 52 611 c 2
 131 611 l 2
 147 611 171 611 171 580 c 0
 171 550 146 550 131 550 c 2
 106 550 l 1
 158 154 l 2
 165 100 166 81 166 76 c 1
 167 76 l 1
 172 138 219 338 222 345 c 0
 232 367 252 367 262 367 c 0
 271 367 294 367 303 344 c 0
 304 338 351 140 357 76 c 1
 358 76 l 1
 359 104 366 156 374 217 c 2
 418 550 l 1
 393 550 l 2
 378 550 353 550 353 580 c 0
 353 611 377 611 393 611 c 2
 472 611 l 2
 487 611 513 611 513 580 c 0
 513 550 486 550 475 550 c 1
EndSplineSet
EndChar
StartChar: X
Encoding: 88 88 87
Width: 525
Flags: W
HStem: 0 61<59 171 67 178.5 344.5 356 351 462.5> 550 61<71.5 190 314.5 433.5>
Fore
291 326 m 1
 432 61 l 1
 455 61 l 2
 470 61 496 61 496 30 c 0
 496 0 470 0 455 0 c 2
 351 0 l 2
 336 0 311 0 311 30 c 0
 311 61 333 61 356 61 c 1
 257 255 l 1
 165 61 l 1
 188 61 212 61 212 30 c 0
 212 0 186 0 171 0 c 2
 67 0 l 2
 52 0 27 0 27 30 c 0
 27 61 51 61 67 61 c 2
 89 61 l 1
 222 325 l 1
 102 550 l 1
 79 550 l 2
 64 550 38 550 38 581 c 0
 38 611 64 611 79 611 c 2
 183 611 l 2
 198 611 223 611 223 581 c 0
 223 550 200 550 180 550 c 1
 257 404 l 1
 328 550 l 1
 305 550 282 550 282 581 c 0
 282 611 307 611 322 611 c 2
 426 611 l 2
 441 611 467 611 467 580 c 0
 467 550 441 550 426 550 c 2
 404 550 l 1
 291 326 l 1
EndSplineSet
EndChar
StartChar: Y
Encoding: 89 89 88
Width: 525
Flags: W
HStem: 0 61<195.5 228 203 329.5> 550 61<51.5 169 355 367 361 473>
VStem: 228 69<61 244>
Fore
444 550 m 1
 297 244 l 1
 297 61 l 1
 322 61 l 2
 338 61 362 61 362 30 c 0
 362 0 337 0 322 0 c 2
 203 0 l 2
 187 0 163 0 163 31 c 0
 163 61 188 61 203 61 c 2
 228 61 l 1
 228 244 l 1
 80 550 l 1
 59 550 l 2
 43 550 19 550 19 581 c 0
 19 611 44 611 59 611 c 2
 163 611 l 2
 178 611 203 611 203 581 c 0
 203 550 181 550 157 550 c 1
 167 529 248 365 262 314 c 1
 367 550 l 1
 343 550 321 550 321 581 c 0
 321 611 346 611 361 611 c 2
 465 611 l 2
 481 611 505 611 505 580 c 0
 505 550 480 550 465 550 c 2
 444 550 l 1
EndSplineSet
EndChar
StartChar: Z
Encoding: 90 90 89
Width: 525
Flags: W
HStem: 0 61<79.5 441> 550 61<101 444.5>
VStem: 60 69<497 586.5> 412 69<25 133>
Fore
466 546 m 2
 137 61 l 1
 412 61 l 1
 412 133 l 2
 412 153 412 174 447 174 c 0
 481 174 481 152 481 133 c 2
 481 41 l 2
 481 9 474 0 441 0 c 2
 89 0 l 2
 70 0 48 0 48 34 c 0
 48 44 48 50 58 65 c 2
 387 550 l 1
 129 550 l 1
 129 497 l 2
 129 477 129 456 94 456 c 0
 60 456 60 478 60 497 c 2
 60 570 l 2
 60 603 68 611 101 611 c 2
 435 611 l 2
 454 611 476 611 476 577 c 0
 476 567 476 561 466 546 c 2
EndSplineSet
EndChar
StartChar: bracketleft
Encoding: 91 91 90
Width: 525
Flags: W
HStem: -83 61<247 449> 632 62<259 462.5>
VStem: 222 261<-69 660 -49 676.5>
Fore
444 694 m 2
 457 695 483 690 483 663 c 0
 483 649 476 632 449 632 c 2
 292 632 l 1
 292 -22 l 1
 449 -22 l 2
 476 -21 483 -39 483 -53 c 0
 483 -85 453 -83 443 -83 c 2
 257 -83 l 2
 237 -83 221 -75 222 -49 c 2
 222 660 l 2
 222 687 237 694 259 694 c 2
 444 694 l 2
EndSplineSet
EndChar
StartChar: backslash
Encoding: 92 92 91
Width: 525
Flags: W
Fore
58 663 m 0
 58 673 66 694 89 694 c 0
 109 694 117 677 123 663 c 2
 456 -24 l 2
 460 -33 465 -41 465 -53 c 0
 465 -76 444 -83 435 -83 c 0
 413 -83 405 -61 399 -50 c 2
 67 638 l 2
 63 646 59 653 58 663 c 0
EndSplineSet
EndChar
StartChar: bracketright
Encoding: 93 93 92
Width: 525
Flags: W
HStem: -83 61<75 265> 633 61<75 277>
VStem: 40 262<-66 679.5>
Fore
80 -83 m 2
 67 -84 40 -79 40 -53 c 0
 40 -39 48 -21 75 -22 c 2
 232 -22 l 1
 232 633 l 1
 75 633 l 2
 48 632 40 650 40 663 c 0
 40 696 71 694 81 694 c 2
 266 694 l 2
 288 694 303 684 302 660 c 2
 302 -49 l 2
 302 -68 295 -83 265 -83 c 2
 80 -83 l 2
EndSplineSet
EndChar
StartChar: asciicircum
Encoding: 94 94 93
Width: 525
Flags: W
HStem: 494 71<254.5 272>
Fore
263 494 m 0
 246 494 133 423 110 422 c 0
 88 423 77 449 76 462 c 0
 77 484 80 482 238 557 c 0
 242 559 253 565 262 565 c 0
 276 565 305 547 420 493 c 0
 441 483 447 475 448 462 c 0
 447 448 435 422 414 422 c 0
 391 422 281 494 263 494 c 0
EndSplineSet
EndChar
StartChar: underscore
Encoding: 95 95 94
Width: 525
Flags: W
HStem: -95 70<80.5 425>
Fore
97 -95 m 2
 64 -95 56 -74 56 -60 c 0
 56 -43 69 -28 87 -26 c 0
 94 -25 101 -25 108 -25 c 2
 425 -25 l 2
 461 -25 468 -47 468 -61 c 0
 467 -75 460 -84 451 -90 c 0
 440 -96 428 -95 417 -95 c 2
 97 -95 l 2
EndSplineSet
EndChar
StartChar: quoteleft
Encoding: 8216 8216 95
Width: 525
Flags: W
VStem: 170.594 61.0729<460.197 495.737>
Fore
231.667 465 m 1
 237.587 467.391 249.664 471.863 263.869 471.863 c 0
 275.624 471.863 288.836 468.801 301.223 458.964 c 0
 318.171 445.374 325.103 427.958 325.103 410.994 c 0
 325.103 388.184 312.57 366.191 294.999 355.417 c 0
 286.153 350.153 274.812 347.177 262.574 347.177 c 0
 228.415 347.177 187.274 370.361 173.928 431.667 c 0
 172.024 440.413 170.594 452.809 170.594 467.584 c 0
 170.594 523.89 191.363 614.735 285.833 669.703 c 0
 296.639 675.99 305.628 679.924 313.926 679.924 c 0
 321.23 679.924 327.999 676.876 335 669.703 c 0
 341.062 663.485 344.257 655.642 344.257 647.982 c 0
 344.257 641.015 341.615 634.2 336.083 628.893 c 0
 325.424 618.668 308.71 615.821 282.5 589.922 c 0
 247.315 554.854 232.164 512.042 231.667 465 c 1
EndSplineSet
EndChar
StartChar: a
Encoding: 97 97 96
Width: 525
Flags: W
HStem: -6 61<169 238.5> 379 61<204.5 298>
VStem: 55 69<93.5 176> 81 89<352 403.5> 355 69<69 320.5>
Fore
366 32 m 1xd8
 319 1 257 -6 220 -6 c 0
 118 -6 55 59 55 128 c 0xe8
 55 224 178 274 355 277 c 1
 355 348 303 379 227 379 c 0
 218 379 205 379 191 378 c 0
 171 376 170 375 170 367 c 0
 169 330 141 321 126 321 c 0
 102 321 81 337 81 367 c 0
 81 440 183 440 226 440 c 0
 370 440 424 356 424 285 c 2
 424 69 l 1
 432 66 442 61 484 61 c 0
 499 61 524 61 524 31 c 0
 524 0 502 0 474 0 c 0
 436 0 388 1 366 32 c 1xd8
355 218 m 1
 210 214 124 177 124 128 c 0
 124 89 165 55 227 55 c 0
 235 55 280 55 316 72 c 0
 355 90 355 111 355 134 c 2
 355 218 l 1
EndSplineSet
EndChar
StartChar: b
Encoding: 98 98 97
Width: 525
Flags: W
HStem: -6 61<240 336.5> 376 61<255.5 346> 550 61<52 143>
VStem: 97 69<31 550 32.5 45 41 550> 419 69<152.5 277.5>
Fore
166 388 m 1
 200 419 245 437 293 437 c 0
 399 437 488 339 488 216 c 0
 488 89 391 -6 282 -6 c 0
 250 -6 207 3 166 45 c 1
 166 20 166 0 132 0 c 0
 97 0 97 21 97 41 c 2
 97 550 l 1
 52 550 l 2
 38 550 12 550 12 580 c 0
 12 611 37 611 53 611 c 2
 126 611 l 2
 160 611 166 601 166 570 c 2
 166 388 l 1
166 191 m 2
 166 143 201 55 279 55 c 0
 349 55 419 120 419 216 c 0
 419 303 361 376 287 376 c 0
 224 376 166 323 166 264 c 2
 166 191 l 2
EndSplineSet
EndChar
StartChar: c
Encoding: 99 99 98
Width: 525
Flags: W
HStem: -6 61<230 362.5> 379 61<219 327.5>
VStem: 73 69<156 260> 365 89<352.5 403.5>
Fore
466 109 m 0
 466 92 432 -6 293 -6 c 0
 167 -6 73 96 73 216 c 0
 73 304 133 440 305 440 c 0
 350 440 454 440 454 367 c 0
 454 338 433 321 409 321 c 0
 385 321 366 335 365 370 c 0
 365 379 326 379 305 379 c 0
 170 379 142 264 142 216 c 0
 142 125 214 55 299 55 c 0
 373 55 392 102 398 115 c 0
 405 135 415 137 431 137 c 0
 437 137 466 137 466 109 c 0
EndSplineSet
EndChar
StartChar: d
Encoding: 100 100 99
Width: 525
Flags: W
HStem: -6 61<179 274.5> 376 61<186.5 277> 550 61<313 404>
VStem: 36 69<153 278.5> 358 69<61 585.5>
Fore
358 50 m 1
 330 21 288 -6 232 -6 c 0
 126 -6 36 91 36 215 c 0
 36 342 132 437 241 437 c 0
 284 437 325 421 358 392 c 1
 358 550 l 1
 313 550 l 2
 299 550 273 550 273 580 c 0
 273 611 298 611 314 611 c 2
 387 611 l 2
 421 611 427 601 427 570 c 2
 427 61 l 1
 472 61 l 2
 486 61 512 61 512 31 c 0
 512 0 487 0 471 0 c 2
 398 0 l 2
 358 0 358 14 358 50 c 1
358 265 m 2
 358 320 309 376 245 376 c 0
 175 376 105 311 105 215 c 0
 105 126 165 55 236 55 c 0
 313 55 358 138 358 194 c 2
 358 265 l 2
EndSplineSet
EndChar
StartChar: e
Encoding: 101 101 100
Width: 525
Flags: W
HStem: -6 61<220.5 351> 191 60<126 424> 379 61<210.5 335>
Fore
424 191 m 2
 126 191 l 1
 142 105 217 55 292 55 c 0
 320 55 374 64 396 115 c 0
 403 134 411 137 429 137 c 0
 435 137 464 137 464 109 c 0
 464 84 417 -6 285 -6 c 0
 156 -6 55 95 55 217 c 0
 55 340 151 440 270 440 c 0
 400 440 464 342 464 228 c 0
 464 191 445 191 424 191 c 2
127 251 m 1
 393 251 l 1
 384 354 322 379 270 379 c 0
 200 379 141 324 127 251 c 1
EndSplineSet
EndChar
StartChar: f
Encoding: 102 102 101
Width: 525
Flags: W
HStem: 0 61<75.5 184 83 361.5> 370 61<83 184 253 375> 556 61<301 350>
VStem: 184 69<61 370 431 484> 350 87<543 587>
Fore
253 370 m 1
 253 61 l 1
 354 61 l 2
 369 61 395 61 395 30 c 0
 395 0 369 0 354 0 c 2
 83 0 l 2
 68 0 42 0 42 31 c 0
 42 61 68 61 83 61 c 2
 184 61 l 1
 184 370 l 1
 83 370 l 2
 68 370 43 370 43 400 c 0
 43 431 68 431 84 431 c 2
 184 431 l 1
 184 484 l 2
 184 571 261 617 341 617 c 0
 357 617 437 617 437 557 c 0
 437 529 414 513 394 513 c 0
 359 513 350 552 350 556 c 1
 320 556 253 556 253 478 c 2
 253 431 l 1
 375 431 l 2
 391 431 415 431 415 400 c 0
 415 370 390 370 375 370 c 2
 253 370 l 1
EndSplineSet
EndChar
StartChar: g
Encoding: 103 103 102
Width: 525
Flags: W
HStem: -229 60<198 326> 4 57<198.5 281> 116 60<206 279> 347 95<430.5 477.5> 377 60<186 260>
VStem: 29 58<-125 -73> 68 69<249.5 319.5> 80 57<96.5 129> 329 69<232.5 303.5> 437 58<-124.5 -39>
Fore
233 176 m 0xeac0
 285 176 329 220 329 277 c 0
 329 330 287 377 233 377 c 0
 181 377 137 333 137 276 c 0
 137 223 179 176 233 176 c 0xeac0
143 141 m 1
 139 131 137 117 137 113 c 0xf1c0
 137 111 138 91 149 77 c 0
 161 63 167 63 182 63 c 0
 190 61 203 61 211 61 c 2
 281 61 l 2
 371 61 413 39 426 32 c 0
 477 5 495 -45 495 -82 c 0
 495 -167 390 -229 262 -229 c 0
 134 -229 29 -168 29 -82 c 0xf4c0
 29 -71 29 -3 103 42 c 1
 94 54 80 79 80 114 c 0xf1c0
 80 144 89 166 100 182 c 1
 85 201 68 234 68 277 c 0
 68 362 139 437 233 437 c 0xeac0
 279 437 314 418 330 407 c 1
 376 441 425 442 436 442 c 0
 490 442 509 411 509 388 c 0
 509 359 486 347 469 347 c 0xf2c0
 459 347 436 354 430 381 c 1
 417 380 393 376 372 364 c 1
 389 336 398 307 398 277 c 0
 398 188 325 116 233 116 c 0
 184 116 146 139 143 141 c 1
262 -169 m 0
 362 -169 437 -126 437 -82 c 0
 437 4 324 4 235 4 c 0
 162 4 153 4 128 -12 c 0
 96 -32 87 -64 87 -82 c 0xe4c0
 87 -126 162 -169 262 -169 c 0
EndSplineSet
EndChar
StartChar: h
Encoding: 104 104 103
Width: 525
Flags: W
HStem: 0 61<45 97 52 218 311 358 319 479> 376 61<263.5 336.5> 550 61<52 143>
VStem: 97 69<61 585.5> 358 69<61 343.5>
Fore
427 293 m 2
 427 61 l 1
 471 61 l 2
 487 61 512 61 512 30 c 0
 512 0 486 0 472 0 c 2
 319 0 l 2
 305 0 278 0 278 30 c 0
 278 61 303 61 319 61 c 2
 358 61 l 1
 358 288 l 2
 358 348 344 376 291 376 c 0
 240 376 166 338 166 238 c 2
 166 61 l 1
 210 61 l 2
 226 61 251 61 251 30 c 0
 251 0 225 0 211 0 c 2
 52 0 l 2
 38 0 12 0 12 30 c 0
 12 61 37 61 53 61 c 2
 97 61 l 1
 97 550 l 1
 52 550 l 2
 38 550 12 550 12 580 c 0
 12 611 37 611 53 611 c 2
 126 611 l 2
 160 611 166 601 166 570 c 2
 166 384 l 1
 185 403 230 437 297 437 c 0
 376 437 427 394 427 293 c 2
EndSplineSet
EndChar
StartChar: i
Encoding: 105 105 104
Width: 525
Flags: W
HStem: 0 61<111 240 119 421.5> 370 61<127 286> 512 100<245 273>
VStem: 209 100<548 576> 240 69<61 390>
Fore
309 390 m 2xe8
 309 61 l 1
 414 61 l 2
 429 61 455 61 455 30 c 0
 455 0 429 0 414 0 c 2
 119 0 l 2
 104 0 78 0 78 30 c 0
 78 61 103 61 119 61 c 2
 240 61 l 1
 240 370 l 1
 127 370 l 2
 112 370 86 370 86 401 c 0
 86 431 112 431 127 431 c 2
 269 431 l 2
 303 431 309 421 309 390 c 2xe8
309 562 m 0xf0
 309 534 287 512 259 512 c 0
 231 512 209 534 209 562 c 0
 209 590 231 612 259 612 c 0
 287 612 309 590 309 562 c 0xf0
EndSplineSet
EndChar
StartChar: j
Encoding: 106 106 105
Width: 525
Flags: W
HStem: -228 61<166.5 259.5> 370 61<169 345> 512 100<304 332>
VStem: 48 89<-190 -137> 268 100<548 576> 299 69<-76 390>
Fore
368 390 m 2xf4
 368 -44 l 2
 368 -108 332 -228 187 -228 c 0
 146 -228 48 -228 48 -152 c 0
 48 -123 70 -106 93 -106 c 0
 114 -106 137 -123 137 -151 c 0
 137 -158 137 -160 136 -163 c 1
 151 -165 163 -167 192 -167 c 0
 215 -167 246 -167 273 -129 c 0
 299 -94 299 -56 299 -39 c 2
 299 370 l 1
 169 370 l 2
 154 370 129 370 129 400 c 0
 129 431 154 431 170 431 c 2
 328 431 l 2
 362 431 368 421 368 390 c 2xf4
368 562 m 0xf8
 368 534 346 512 318 512 c 0
 290 512 268 534 268 562 c 0
 268 590 290 612 318 612 c 0
 346 612 368 590 368 562 c 0xf8
EndSplineSet
EndChar
StartChar: k
Encoding: 107 107 106
Width: 525
Flags: W
HStem: 0 61<53.5 110 61 222.5 347 365 349 474.5> 370 61<283 452.5> 550 61<61 143>
VStem: 110 56<61 585.5>
Fore
287 255 m 1
 436 61 l 1
 467 61 l 2
 482 61 508 61 508 30 c 0
 508 0 482 0 467 0 c 2
 349 0 l 2
 334 0 309 0 309 30 c 0
 309 61 329 61 365 61 c 1
 246 216 l 1
 166 142 l 1
 166 61 l 1
 215 61 l 2
 231 61 255 61 255 30 c 0
 255 0 230 0 215 0 c 2
 61 0 l 2
 45 0 21 0 21 31 c 0
 21 61 46 61 61 61 c 2
 110 61 l 1
 110 550 l 1
 61 550 l 2
 45 550 21 550 21 581 c 0
 21 611 46 611 61 611 c 2
 126 611 l 2
 160 611 166 601 166 570 c 2
 166 218 l 1
 328 370 l 1
 291 370 l 2
 276 370 251 370 251 400 c 0
 251 431 275 431 291 431 c 2
 445 431 l 2
 460 431 486 431 486 400 c 0
 486 370 460 370 445 370 c 2
 410 370 l 1
 287 255 l 1
EndSplineSet
EndChar
StartChar: l
Encoding: 108 108 107
Width: 525
Flags: W
HStem: 0 61<91 228 98 434.5> 550 61<98 274>
VStem: 228 69<61 570>
Fore
297 570 m 2
 297 61 l 1
 427 61 l 2
 443 61 467 61 467 30 c 0
 467 0 442 0 427 0 c 2
 98 0 l 2
 84 0 58 0 58 30 c 0
 58 61 83 61 99 61 c 2
 228 61 l 1
 228 550 l 1
 98 550 l 2
 84 550 58 550 58 580 c 0
 58 611 83 611 99 611 c 2
 257 611 l 2
 291 611 297 601 297 570 c 2
EndSplineSet
EndChar
StartChar: m
Encoding: 109 109 108
Width: 525
Flags: W
HStem: 0 62<23.5 53 32 139 210 234 219 313 391.5 416 401 495> 369 61<17 66>
VStem: 53 56<62 369> 234 57<62 315> 416 57<62 315>
Fore
35 369 m 2
 19 369 -4 372 -4 400 c 0
 -4 413 3 430 31 430 c 2
 66 430 l 2
 94 430 108 427 109 398 c 1
 134 420 161 436 198 436 c 0
 245 436 268 404 277 383 c 1
 307 415 337 436 381 436 c 0
 411 436 448 420 463 371 c 0
 472 345 473 318 473 291 c 2
 473 62 l 1
 493 62 l 2
 511 62 529 55 529 30 c 0
 529 19 524 1 495 0 c 2
 401 0 l 2
 384 0 366 6 366 31 c 0
 366 54 382 62 401 62 c 2
 416 62 l 1
 416 287 l 2
 416 343 408 374 376 374 c 0
 328 374 290 319 291 234 c 2
 291 62 l 1
 311 62 l 2
 329 62 347 55 347 31 c 0
 347 16 340 1 313 0 c 2
 219 0 l 2
 202 0 184 6 184 31 c 0
 184 54 200 62 220 62 c 2
 234 62 l 1
 234 287 l 2
 234 343 226 374 195 374 c 0
 146 374 108 319 109 234 c 2
 109 62 l 1
 129 62 l 2
 161 62 166 43 166 31 c 0
 166 6 147 0 131 0 c 2
 32 0 l 2
 3 0 -4 16 -4 31 c 0
 -4 56 14 62 33 62 c 2
 53 62 l 1
 53 369 l 1
 35 369 l 2
EndSplineSet
EndChar
StartChar: n
Encoding: 110 110 109
Width: 525
Flags: W
HStem: 0 61<45 97 52 218 311 358 319 479> 370 61<52 146>
VStem: 97 69<61 370> 358 69<61 343.5>
Fore
166 384 m 1
 185 403 230 437 297 437 c 0
 376 437 427 394 427 293 c 2
 427 61 l 1
 471 61 l 2
 487 61 512 61 512 30 c 0
 512 0 486 0 472 0 c 2
 319 0 l 2
 305 0 278 0 278 30 c 0
 278 61 303 61 319 61 c 2
 358 61 l 1
 358 288 l 2
 358 348 344 376 291 376 c 0
 240 376 166 338 166 238 c 2
 166 61 l 1
 210 61 l 2
 226 61 251 61 251 30 c 0
 251 0 225 0 211 0 c 2
 52 0 l 2
 38 0 12 0 12 30 c 0
 12 61 37 61 53 61 c 2
 97 61 l 1
 97 370 l 1
 52 370 l 2
 38 370 12 370 12 400 c 0
 12 431 37 431 53 431 c 2
 126 431 l 2
 166 431 166 416 166 384 c 1
EndSplineSet
EndChar
StartChar: o
Encoding: 111 111 110
Width: 525
Flags: W
HStem: -6 61<207 317> 379 61<206 318>
VStem: 57 69<152.5 278.5> 398 69<153 278.5>
Fore
467 216 m 0
 467 90 372 -6 262 -6 c 0
 152 -6 57 89 57 216 c 0
 57 341 150 440 262 440 c 0
 374 440 467 341 467 216 c 0
262 55 m 0
 336 55 398 130 398 223 c 0
 398 314 334 379 262 379 c 0
 191 379 126 314 126 223 c 0
 126 130 188 55 262 55 c 0
EndSplineSet
EndChar
StartChar: p
Encoding: 112 112 111
Width: 525
Flags: W
HStem: -222 61<45 97 52 218> -6 61<240 336.5> 370 61<52 145>
VStem: 97 69<-161 370> 419 69<152.5 277.5>
Fore
166 264 m 2
 166 191 l 2
 166 143 201 55 279 55 c 0
 349 55 419 120 419 216 c 0
 419 303 361 376 287 376 c 0
 224 376 166 323 166 264 c 2
166 45 m 1
 166 -161 l 1
 210 -161 l 2
 226 -161 251 -161 251 -192 c 0
 251 -222 225 -222 211 -222 c 2
 52 -222 l 2
 38 -222 12 -222 12 -192 c 0
 12 -161 37 -161 53 -161 c 2
 97 -161 l 1
 97 370 l 1
 52 370 l 2
 38 370 12 370 12 400 c 0
 12 431 37 431 53 431 c 2
 126 431 l 2
 164 431 166 417 166 388 c 1
 200 419 245 437 293 437 c 0
 399 437 488 339 488 216 c 0
 488 89 391 -6 282 -6 c 0
 250 -6 207 3 166 45 c 1
EndSplineSet
EndChar
StartChar: q
Encoding: 113 113 112
Width: 525
Flags: W
HStem: -222 61<322.5 379 330 504.5> -6 61<189 289> 376 61<198 296.5>
VStem: 40 69<153 278.5> 379 69<-161 405.5>
Fore
448 396 m 2
 448 -161 l 1
 497 -161 l 2
 513 -161 537 -161 537 -192 c 0
 537 -222 512 -222 497 -222 c 2
 330 -222 l 2
 314 -222 290 -222 290 -191 c 0
 290 -161 315 -161 330 -161 c 2
 379 -161 l 1
 379 54 l 1
 358 31 312 -6 244 -6 c 0
 134 -6 40 91 40 215 c 0
 40 342 142 437 254 437 c 0
 311 437 352 411 379 382 c 1
 379 420 379 437 414 437 c 0
 448 437 448 415 448 396 c 2
379 194 m 2
 379 233 l 2
 379 299 334 376 259 376 c 0
 179 376 109 307 109 215 c 0
 109 125 174 55 248 55 c 0
 330 55 379 137 379 194 c 2
EndSplineSet
EndChar
StartChar: r
Encoding: 114 114 113
Width: 525
Flags: W
HStem: 0 61<64.5 153 72 340.5> 370 61<72 199>
VStem: 153 69<61 370> 402 85<361.5 385>
Fore
222 186 m 2
 222 61 l 1
 333 61 l 2
 348 61 374 61 374 30 c 0
 374 0 348 0 333 0 c 2
 72 0 l 2
 56 0 32 0 32 31 c 0
 32 61 57 61 72 61 c 2
 153 61 l 1
 153 370 l 1
 72 370 l 2
 56 370 32 370 32 401 c 0
 32 431 57 431 72 431 c 2
 182 431 l 2
 216 431 222 421 222 390 c 2
 222 356 l 1
 277 419 341 437 392 437 c 0
 475 437 487 395 487 375 c 0
 487 348 467 332 445 332 c 0
 420 332 403 352 402 376 c 1
 281 376 222 280 222 186 c 2
EndSplineSet
EndChar
StartChar: s
Encoding: 115 115 114
Width: 525
Flags: W
HStem: -6 61<246.5 348> 379 61<178.5 301.5>
VStem: 72 61<276 340> 398 61<101 177>
Fore
298 255 m 0
 330 250 459 229 459 125 c 0
 459 77 427 -6 269 -6 c 0
 241 -6 188 -4 139 32 c 1
 127 -5 111 -6 102 -6 c 0
 72 -6 72 19 72 35 c 2
 72 132 l 2
 72 152 72 173 107 173 c 0
 133 173 137 162 142 144 c 0
 167 66 223 55 270 55 c 0
 361 55 398 88 398 125 c 0
 398 178 318 191 269 199 c 0
 177 213 72 230 72 322 c 0
 72 358 95 440 262 440 c 0
 281 440 325 440 369 419 c 1
 371 426 375 440 399 440 c 0
 429 440 429 415 429 399 c 2
 429 330 l 2
 429 310 429 289 394 289 c 0
 363 289 361 306 360 323 c 0
 357 349 343 379 260 379 c 0
 165 379 133 348 133 322 c 0
 133 283 201 271 230 267 c 0
 255 262 275 259 298 255 c 0
EndSplineSet
EndChar
StartChar: t
Encoding: 116 116 115
Width: 525
Flags: W
HStem: -6 61<257.5 331> 370 61<65 153 222 386>
VStem: 153 69<126 370 431 513> 380 69<81.5 135.5>
Fore
222 370 m 1
 222 132 l 2
 222 107 222 55 299 55 c 0
 322 55 379 65 380 127 c 0
 380 144 381 165 414 165 c 0
 449 165 449 144 449 126 c 0
 449 37 368 -6 294 -6 c 0
 221 -6 153 30 153 126 c 2
 153 370 l 1
 65 370 l 2
 50 370 25 370 25 400 c 0
 25 431 50 431 66 431 c 2
 153 431 l 1
 153 513 l 2
 153 533 153 554 188 554 c 0
 222 554 222 532 222 513 c 2
 222 431 l 1
 386 431 l 2
 402 431 426 431 426 400 c 0
 426 370 401 370 386 370 c 2
 222 370 l 1
EndSplineSet
EndChar
StartChar: u
Encoding: 117 117 116
Width: 525
Flags: W
HStem: -6 61<202.5 261> 370 61<52 143 313 404>
VStem: 97 69<66 390> 358 69<61 390>
Fore
358 32 m 1
 321 4 280 -6 239 -6 c 0
 166 -6 97 18 97 114 c 2
 97 370 l 1
 52 370 l 2
 38 370 12 370 12 400 c 0
 12 431 37 431 53 431 c 2
 126 431 l 2
 160 431 166 421 166 390 c 2
 166 120 l 2
 166 88 166 55 245 55 c 0
 277 55 358 67 358 157 c 2
 358 370 l 1
 313 370 l 2
 299 370 273 370 273 400 c 0
 273 431 298 431 314 431 c 2
 387 431 l 2
 421 431 427 421 427 390 c 2
 427 61 l 1
 472 61 l 2
 486 61 512 61 512 31 c 0
 512 0 487 0 471 0 c 2
 398 0 l 2
 380 0 359 0 358 32 c 1
EndSplineSet
EndChar
StartChar: v
Encoding: 118 118 117
Width: 525
Flags: W
HStem: -4 21G<251.5 271.5> 370 61<56 188.5 335.5 468 343 468>
Fore
430 370 m 1
 315 29 l 2
 304 -4 281 -4 262 -4 c 0
 241 -4 221 -4 209 30 c 2
 94 370 l 1
 64 370 l 2
 49 370 24 370 24 400 c 0
 24 431 48 431 64 431 c 2
 181 431 l 2
 197 431 221 431 221 400 c 0
 221 370 196 370 181 370 c 2
 153 370 l 1
 262 48 l 1
 371 370 l 1
 343 370 l 2
 327 370 303 370 303 401 c 0
 303 431 328 431 343 431 c 2
 460 431 l 2
 476 431 500 431 500 400 c 0
 500 370 475 370 460 370 c 2
 430 370 l 1
EndSplineSet
EndChar
StartChar: w
Encoding: 119 119 118
Width: 525
Flags: W
HStem: -4 76<154 194 347 371.5> 190 69<259 281.5> 370 61<49 182.5 342 466 351 475>
Fore
457 370 m 1
 397 34 l 2
 393 12 390 -4 353 -4 c 0
 341 -4 323 -4 311 13 c 0
 307 21 270 138 265 190 c 1
 264 190 l 1
 261 168 260 154 235 66 c 0
 217 5 214 -4 174 -4 c 0
 134 -4 131 11 127 34 c 2
 67 370 l 1
 37 370 16 370 16 401 c 0
 16 431 40 431 58 431 c 2
 173 431 l 2
 192 431 215 431 215 400 c 0
 215 370 191 370 173 370 c 2
 124 370 l 1
 176 72 l 1
 177 72 l 1
 181 92 221 230 224 237 c 0
 235 259 254 259 264 259 c 0
 299 259 302 248 320 185 c 0
 332 144 345 98 349 72 c 1
 350 72 l 1
 400 370 l 1
 351 370 l 2
 332 370 309 370 309 401 c 0
 309 431 333 431 351 431 c 2
 466 431 l 2
 484 431 508 431 508 401 c 0
 508 370 487 370 457 370 c 1
EndSplineSet
EndChar
StartChar: x
Encoding: 120 120 119
Width: 525
Flags: W
HStem: 0 61<60.5 185 68 192.5 334 348 338 462> 370 61<66.5 196 316.5 448.5>
Fore
287 222 m 1
 415 61 l 1
 455 61 l 2
 470 61 496 61 496 30 c 0
 496 0 469 0 455 0 c 2
 338 0 l 2
 323 0 298 0 298 30 c 0
 298 61 320 61 348 61 c 1
 259 184 l 1
 173 61 l 1
 204 61 225 61 225 30 c 0
 225 0 200 0 185 0 c 2
 68 0 l 2
 54 0 27 0 27 30 c 0
 27 61 53 61 68 61 c 2
 108 61 l 1
 232 222 l 1
 114 370 l 1
 74 370 l 2
 60 370 33 370 33 400 c 0
 33 431 59 431 74 431 c 2
 191 431 l 2
 206 431 231 431 231 401 c 0
 231 370 209 370 183 370 c 1
 259 269 l 1
 333 370 l 1
 306 370 284 370 284 401 c 0
 284 431 309 431 324 431 c 2
 441 431 l 2
 456 431 482 431 482 400 c 0
 482 370 455 370 441 370 c 2
 401 370 l 1
 287 222 l 1
EndSplineSet
EndChar
StartChar: y
Encoding: 121 121 120
Width: 525
Flags: W
HStem: 370 61<58 190.5 335.5 468 343 468>
VStem: 43 87<-167 -132.5>
Fore
430 370 m 1
 275 -85 l 2
 271 -96 226 -228 126 -228 c 0
 77 -228 43 -188 43 -146 c 0
 43 -120 60 -102 87 -102 c 0
 112 -102 130 -120 130 -145 c 0
 130 -158 125 -166 125 -167 c 1
 140 -166 176 -164 205 -109 c 0
 218 -84 243 -2 243 0 c 0
 243 1 243 3 239 13 c 2
 97 370 l 1
 66 370 l 2
 51 370 26 370 26 400 c 0
 26 431 50 431 66 431 c 2
 183 431 l 2
 199 431 223 431 223 400 c 0
 223 370 198 370 183 370 c 2
 158 370 l 1
 251 130 l 2
 258 111 267 90 272 71 c 1
 273 71 l 1
 280 102 286 120 299 157 c 2
 371 370 l 1
 343 370 l 2
 327 370 303 370 303 401 c 0
 303 431 328 431 343 431 c 2
 460 431 l 2
 476 431 500 431 500 400 c 0
 500 370 475 370 460 370 c 2
 430 370 l 1
EndSplineSet
EndChar
StartChar: z
Encoding: 122 122 121
Width: 525
Flags: W
HStem: 0 61<64.5 453> 370 61<90 439.5>
VStem: 49 69<344 406.5> 406 69<33.5 99>
Fore
449 357 m 2
 137 61 l 1
 406 61 l 1
 406 99 l 2
 406 119 406 140 441 140 c 0
 475 140 475 118 475 99 c 2
 475 41 l 2
 475 26 475 6 453 0 c 2
 74 0 l 2
 55 0 33 0 33 34 c 0
 33 51 34 54 55 74 c 2
 367 370 l 1
 118 370 l 1
 118 344 l 2
 118 324 118 303 83 303 c 0
 49 303 49 325 49 344 c 2
 49 390 l 2
 49 423 57 431 90 431 c 2
 430 431 l 2
 449 431 471 431 471 397 c 0
 471 380 470 377 449 357 c 2
EndSplineSet
EndChar
StartChar: braceleft
Encoding: 123 123 122
Width: 525
Flags: W
HStem: 632 62<355.5 440.5>
VStem: 227 70<42 218 391.5 568>
Fore
239 305 m 1
 294 275 297 234 297 202 c 2
 297 45 l 2
 297 31 294.028 8.07244 333 -7 c 0
 405.052 -34.8661 467 -2 467 -52 c 0
 467 -65 461 -83 434 -83 c 2
 423 -83 l 2
 276 -80 227 -33 227 42 c 2
 227 202 l 2
 227 216 230 241 191 258 c 0
 142 279 87 271 73 277 c 0
 63 282 56 291 56 305 c 0
 56 324 69 333 79 335 c 0
 89 338 213 332 226 389 c 0
 227 395 227 402 227 409 c 2
 227 568 l 2
 227 644 280 694 431 694 c 0
 450 694 467 688 467 664 c 0
 467 631 437 633 431 632 c 0
 314 630 297 603 297 565 c 2
 297 409 l 2
 297 374 293 334 239 306 c 1
 239 305 l 1
EndSplineSet
EndChar
StartChar: bar
Encoding: 124 124 123
Width: 525
Flags: W
VStem: 227 70<-38 660>
Fore
227 648 m 2
 227 672 234 694 262 694 c 0
 278 694 293 682 296 666 c 0
 297 660 297 653 297 647 c 2
 297 -38 l 2
 297 -43 297 -49 296 -55 c 0
 292 -73 276 -83 262 -83 c 0
 246 -83 231 -71 228 -55 c 0
 227 -49 227 -42 227 -36 c 2
 227 648 l 2
EndSplineSet
EndChar
StartChar: braceright
Encoding: 125 125 124
Width: 525
Flags: W
VStem: 227 70<5 202 397 568>
Fore
297 43 m 2
 297 -33 250 -82 91 -83 c 0
 61 -83 56 -65 56 -53 c 0
 56 -36 66 -28 73 -24 c 0
 88 -18 209 -28 225 23 c 0
 227 30 227 38 227 46 c 2
 227 202 l 2
 227 236 230 276 284 305 c 1
 284 306 l 1
 225 337 227 386 227 408 c 2
 227 565 l 2
 227 580 229 603 191 618 c 0
 136 639 89 627 71 636 c 0
 62 642 56 650 56 663 c 0
 56 676 62 693 89 694 c 2
 101 694 l 2
 249 691 297 644 297 568 c 2
 297 409 l 2
 297 391 295 369 333 353 c 0
 383 331 434 341 450 333 c 0
 465 326 467 312 467 306 c 0
 467 288 455 278 445 276 c 0
 433 273 311 279 298 222 c 0
 297 216 297 209 297 202 c 2
 297 43 l 2
EndSplineSet
EndChar
StartChar: asciitilde
Encoding: 126 126 125
Width: 525
Flags: W
HStem: 491 66<301.5 363> 544 67<158.5 224.5>
Fore
190 544 m 0x40
 151 544 129 492 104 491 c 0x80
 89 491 72 504 71 523 c 0
 71 540 126 611 191 611 c 0x40
 258 611 290 557 331 557 c 0x80
 373 557 395 611 421 611 c 0x40
 433 611 451 599 452 578 c 0
 451 559 394 491 332 491 c 0x80
 271 491 230 544 190 544 c 0x40
EndSplineSet
EndChar
StartChar: hyphen.alt
Encoding: 65538 61716 126
Width: 525
Flags: W
HStem: 184.583 61.663<211.25 322.678>
Fore
312.083 246.246 m 2
 333.273 246.246 349.395 239.216 349.395 215.795 c 0
 348.42 180.384 319.41 188.781 312.917 184.583 c 1
 211.25 184.583 l 1
 211.25 184.583 175.583 185.901 175.184 215.955 c 0
 175.184 239.724 191.356 246.246 212.917 246.246 c 2
 312.083 246.246 l 2
EndSplineSet
EndChar
StartChar: afii10050
Encoding: 1168 1168 127
Width: 525
Flags: W
HStem: 8.39829e-05 61.6666<78.75 139.167 88.3333 292.083> 549.167 61.666<82.5 456.874>
VStem: 139.167 70<61.6667 549.167> 410 69.997<573.844 740>
Fore
410 610.833 m 1
 410 734.167 l 2
 410 762.743 414.752 777.467 445.065 777.467 c 0
 485.394 777.319 477.603 744.351 479.997 740 c 1
 479.997 587.5 l 2
 479.997 560.188 473.748 549.167 440 549.167 c 2
 209.167 549.167 l 1
 209.167 61.6667 l 1
 292.083 61.6667 l 1
 292.083 61.6667 326.425 60.4289 326.914 30.3124 c 0
 326.914 6.76851 310.95 8.07444e-05 288.333 8.39829e-05 c 2
 88.3333 8.39829e-05 l 2
 64.7159 8.39829e-05 45.1154 3.30027 45.1154 29.7863 c 0
 46.0377 65.4799 76.8666 60.3642 78.75 61.6667 c 1
 139.167 61.6667 l 1
 139.167 549.167 l 1
 88.3333 549.167 l 2
 65.5014 549.167 45.1137 552.534 45.1137 578.965 c 0
 46.1217 616.734 75.0089 607.226 82.5 610.833 c 1
 410 610.833 l 1
EndSplineSet
EndChar
StartChar: uni0492
Encoding: 1170 1170 128
Width: 525
Flags: W
HStem: 8.39829e-05 61.6666<80.3333 140.75 89.9167 293.667> 286.667 61.666<27 140.75 210.75 323.25> 549.167 61.666<82.8333 445.75>
VStem: 140.75 70<61.6667 286.667 348.333 549.167> 411.583 69.996<488.333 573.333>
Fore
447.417 454.583 m 0
 427.26 454.583 412.279 460.631 411.583 488.333 c 2
 411.583 549.167 l 1
 210.75 549.167 l 1
 210.75 348.333 l 1
 318.667 348.333 l 2
 325.568 348.333 344.259 350.566 354.285 333.699 c 0
 357.161 328.845 358.521 323.324 358.521 317.822 c 0
 358.521 305.394 351.581 293.065 339.495 288.75 c 0
 334.219 286.944 328.787 286.749 323.25 286.667 c 2
 210.75 286.667 l 1
 210.75 61.6667 l 1
 293.667 61.6667 l 1
 293.667 61.6667 328.008 60.4289 328.497 30.3124 c 0
 328.497 6.76851 312.533 8.45591e-05 289.917 8.39829e-05 c 2
 89.9167 8.39829e-05 l 2
 66.2992 8.39829e-05 46.6987 3.30027 46.6987 29.7863 c 0
 47.621 65.4799 78.4499 60.3642 80.3333 61.6667 c 1
 140.75 61.6667 l 1
 140.75 286.667 l 1
 32 286.667 l 1
 32 286.667 -7.3702 287.88 -7.79299 317.623 c 0
 -7.79299 338.992 6.15126 348.078 27 348.333 c 2
 140.75 348.333 l 1
 140.75 549.167 l 1
 89.5 549.167 l 2
 66.8943 549.167 46.6965 552.517 46.6965 578.943 c 0
 47.6344 615.031 78.8259 608.256 82.8333 610.833 c 1
 445.75 610.833 l 2
 476.722 610.548 481.579 595.306 481.579 573.333 c 2
 481.579 489.167 l 2
 481.272 468.771 473.465 454.583 447.417 454.583 c 0
EndSplineSet
EndChar
StartChar: afii10051
Encoding: 1026 1026 129
Width: 525
Flags: W
HStem: 1.47969e-05 61.6667<136.028 147.417 136.028 184.917> 380.068 62.0065<361.929 397.887> 549.167 61.666<59.9957 376.167>
VStem: 22.0002 69.9998<492.083 574.714> 184.917 70<61.6667 549.167> 306.282 88.4824<68.9384 86.845> 347.833 70<509.755 569.583> 438.667 70<209.167 296.449>
Fore
147.417 1.47969e-05 m 2xfd
 124.64 1.47969e-05 107.611 5.77132 107.611 30.1833 c 0
 108.301 48.7849 117.878 57.7758 129.5 60.4167 c 0
 135.21 61.845 141.167 61.6667 147 61.6667 c 2
 184.917 61.6667 l 1
 184.917 549.167 l 1
 92 549.167 l 1
 92 492.083 l 2
 92 470.098 86.7938 454.58 56.0242 454.58 c 0
 29.3887 455.246 25.0612 469.539 23.2502 476.25 c 0
 21.3544 483.613 22.0002 491.628 22.0002 499.166 c 2
 22.0002 565.833 l 2
 22.0002 583.596 21.7347 601.24 39.9169 608.252 c 0
 47.6869 611.211 55.9077 610.833 64.0836 610.833 c 2
 376.167 610.833 l 2
 409.574 611.272 417.833 602.325 417.833 569.583 c 2
 417.833 523.333 l 1
 417.833 523.333 415.986 482.98 383.665 482.916 c 0
 353.356 482.916 347.833 496.176 347.833 523.333 c 2
 347.833 549.167 l 1xfb
 254.917 549.167 l 1
 254.917 389.167 l 1
 296.657 427.428 342.148 442.075 381.71 442.075 c 0
 414.064 442.075 442.453 432.279 461.581 417.592 c 0
 509.16 380.854 508.667 321.067 508.667 260 c 2
 508.667 209.167 l 2
 508.667 125.079 497.08 94.8838 484.793 67.9167 c 0
 469.086 33.5148 432.28 -11.6124 387.115 -11.6124 c 0
 376.251 -11.6124 364.904 -9.00161 353.25 -3.00284 c 0
 315.766 16.2925 306.282 56.7253 306.282 81.1514 c 0
 306.282 88.2638 307.086 94.019 308.237 97.5001 c 0
 315.486 118.109 331.941 126.762 348.493 126.762 c 0
 364.857 126.762 381.317 118.305 389.073 104.579 c 0
 393.228 97.2029 394.764 90.1008 394.764 83.5892 c 0
 394.764 68.8182 386.858 57.0853 383.667 52.0834 c 1
 411.752 50.4441 431.055 106.313 436.35 150 c 0
 438.801 170.218 438.667 190.506 438.667 210.833 c 2
 438.667 278.75 l 2
 438.667 314.149 438.192 348.642 417.215 367.247 c 0
 410.467 373.184 396.141 380.068 375.807 380.068 c 0
 365.359 380.068 353.324 378.25 339.917 373.552 c 0
 315.987 365.166 264.235 333.981 256.004 262.5 c 0
 254.888 252.805 254.917 243.077 254.917 233.333 c 2
 254.917 61.6667 l 1
 260.828 60.4673 282.174 55.7074 282.174 31.1572 c 0
 280.503 -4.72018 247.361 1.25863 245.333 1.47969e-05 c 1
 147.417 1.47969e-05 l 2xfd
EndSplineSet
EndChar
StartChar: afii10060
Encoding: 1035 1035 130
Width: 525
Flags: W
HStem: 2.35215e-05 61.6667<147.75 255.25 388.583 482.528> 373.995 62.1641<338.254 374.007> 549.167 61.666<61.6436 391.5>
VStem: 24.0001 69.9999<490.833 574.714> 174 70<61.6667 549.167> 362.333 70<510.004 570> 399.833 70<61.6667 312.845>
Fore
244 389.583 m 1xfc
 279.517 421.549 320.047 436.16 356.46 436.16 c 0
 391.554 436.16 422.824 422.589 442.098 397.907 c 0
 455.108 381.104 469.83 354.862 469.833 285 c 2
 469.833 61.6667 l 1
 495.223 61.6667 515.909 58.6687 515.909 31.275 c 0
 514.969 -3.72778 482.531 0.958044 481.083 2.35215e-05 c 1
 388.583 2.35215e-05 l 2
 365.69 0.336102 353.405 13.784 353.405 30.1706 c 0
 353.405 33.6252 353.951 37.2104 355.059 40.8309 c 0
 362.787 66.0934 391.998 61.6667 399.833 61.6667 c 1
 399.833 277.917 l 2xfa
 399.833 347.773 387.73 373.995 352.044 373.995 c 0
 348.735 373.995 345.223 373.77 341.5 373.333 c 0
 319.053 370.699 244 349.052 244 234.583 c 2
 244 61.6667 l 1
 255.25 61.6667 l 1
 255.25 61.6667 289.715 60.3025 290.074 30.4595 c 0
 290.074 6.80996 274.133 2.28882e-05 253.167 2.35215e-05 c 2
 147.75 2.35215e-05 l 1
 147.75 2.35215e-05 112.856 1.3596 112.498 31.1921 c 0
 112.498 55.2101 129.043 61.5696 149.833 61.6667 c 2
 174 61.6667 l 1
 174 549.167 l 1
 94 549.167 l 1
 94 490.833 l 2
 94 470.207 88.9073 454.582 58.2145 454.582 c 0
 52.5285 454.701 39.9808 454.357 30.8659 465.641 c 0
 23.0679 475.295 24.0001 487.917 24.0001 499.583 c 2
 24.0001 565.833 l 2
 24.0001 583.596 23.7346 601.241 41.9167 608.252 c 0
 49.5617 611.163 57.6205 610.833 65.6667 610.833 c 2
 391.5 610.833 l 2
 424.166 610.833 432.333 602.156 432.333 570 c 2
 432.333 523.333 l 1
 432.333 523.333 430.488 482.981 398.171 482.916 c 0
 367.411 482.916 362.333 496.676 362.333 523.333 c 2
 362.333 549.167 l 1
 244 549.167 l 1
 244 389.583 l 1xfc
EndSplineSet
EndChar
StartChar: uni04BA
Encoding: 1210 1210 131
Width: 525
Flags: W
HStem: -1.21593e-05 61.6613<38.9335 177.167 38.9335 177.167 330.184 468.417 345.5 478.67> 438.513 62.4995<273.264 319.677> 549.167 61.658<54.6666 187.345>
VStem: 80.9167 70.0003<61.6613 549.167> 372.167 70<61.6613 352.546>
Fore
18.2112 30.8333 m 0
 18.2112 55.6884 35.3151 61.5587 55.5 61.6613 c 2
 80.9167 61.6613 l 1
 80.9167 549.167 l 1
 55.5 549.167 l 2
 35.2242 549.167 18.2112 555.333 18.2112 580 c 0
 18.2112 603.119 33.3504 610.673 54.6666 610.825 c 2
 177.583 610.825 l 2
 208.434 610.566 213.622 593.101 213.622 580 c 0
 213.622 556.682 198.357 549.167 176.333 549.167 c 2
 150.917 549.167 l 1
 150.917 436.667 l 1
 193.274 478.587 248.344 501.013 298.936 501.013 c 0
 340.418 501.013 378.89 485.936 404.873 454.165 c 0
 422.482 432.633 442.167 400.092 442.167 305 c 2
 442.167 61.6613 l 1
 468 61.6613 l 2
 489.193 61.5318 504.872 54.5323 504.872 30.8333 c 0
 504.872 7.3229 488.923 -1.21593e-05 468.417 -1.21593e-05 c 2
 345.5 -1.21593e-05 l 2
 314.867 -1.21593e-05 309.461 17.6328 309.461 30.8333 c 0
 309.461 55.6884 326.565 61.5587 346.75 61.6613 c 2
 372.167 61.6613 l 1
 372.167 305.417 l 2
 372.167 305.417 373.522 389.624 345.917 418.555 c 0
 335.881 429.072 314.539 438.513 288.958 438.513 c 0
 257.569 438.513 219.798 424.299 188.702 380.417 c 0
 172.025 356.883 150.917 319.349 150.917 240.833 c 2
 150.917 61.6613 l 1
 176.75 61.6613 l 2
 197.943 61.5318 213.622 54.5323 213.622 30.8333 c 0
 213.622 7.3229 197.673 -1.21593e-05 177.167 -1.21593e-05 c 2
 54.25 -1.21593e-05 l 2
 23.617 -1.21593e-05 18.2112 17.6328 18.2112 30.8333 c 0
EndSplineSet
EndChar
StartChar: uni0496
Encoding: 1174 1174 132
Width: 525
Flags: W
HStem: 1.54078e-05 61.6667<33.3333 35 230.111 237.083> 549.167 61.666<33.6426 44.5833 227.902 295.312 480 483.333>
VStem: 234.167 56.666<61.6667 177.917 315.833 549.167> 467.917 56.665<-143.294 22.5>
Fore
524.582 -128.333 m 2
 524.582 -158.255 510.221 -166.339 497.539 -166.339 c 0
 490.646 -166.339 484.248 -163.95 480.923 -161.382 c 0
 471.467 -154.079 468.109 -147.81 467.917 -130.833 c 2
 467.917 1.54078e-05 l 1
 441.25 1.54078e-05 l 2
 412.65 1.54078e-05 403.651 15.6584 403.651 30.21 c 0
 403.651 38.0952 406.294 45.6553 409.891 50.2229 c 0
 415.311 57.1039 421.22 59.3946 429.167 61.6667 c 1
 342.083 291.667 l 1
 298.43 210.417 l 1
 291.879 195.833 l 1
 290.833 177.917 l 1
 290.833 61.6667 l 1
 290.833 61.6667 330.926 59.8749 330.926 29.812 c 0
 330.926 5.5921 312.979 1.84377e-05 290.833 1.54078e-05 c 2
 237.083 1.54078e-05 l 2
 223.139 1.54078e-05 206.093 -1.27375 197.243 16.25 c 0
 195.385 19.9284 194.214 25.0621 194.214 30.562 c 0
 194.214 42.6285 199.852 56.4574 216.25 60.5459 c 0
 222.083 61.9034 228.203 61.6667 234.167 61.6667 c 1
 234.167 177.5 l 1
 233.14 195 l 1
 226.601 209.583 l 1
 182.5 291.667 l 1
 95.4166 61.6667 l 1
 102.25 59.6975 120.903 54.2014 120.903 30.8591 c 0
 120.703 26.6141 120.987 12.966 106.611 4.30626 c 0
 98.3333 -0.672072 88.44 1.54078e-05 79.1667 1.54078e-05 c 2
 33.3333 1.54078e-05 l 2
 9.16911 0.766535 0.212669 16.2196 0.212667 30.7241 c 0
 0.212667 37.9857 2.45756 45.0096 6.16291 49.8338 c 0
 15.9742 62.6075 29.9041 61.5369 35 61.6667 c 1
 147.083 358.333 l 1
 44.5833 549.167 l 1
 22.7019 549.167 6.45545 555.873 6.45545 579.624 c 0
 7.56778 613.555 37.8776 608.597 41.25 610.833 c 1
 90.8333 610.833 l 2
 105.322 610.833 122.871 612.804 132.231 594.15 c 0
 134.352 589.819 135.456 585.02 135.456 580.199 c 0
 135.456 566.979 127.155 553.584 108.75 549.167 c 1
 234.167 315.833 l 1
 234.167 549.167 l 1
 221.637 549.167 205.264 548.632 197.041 565.833 c 0
 195.212 569.677 193.996 574.759 193.996 580.16 c 0
 193.996 589.369 197.53 599.508 207.579 606.025 c 0
 216.447 611.776 227.406 610.833 237.5 610.833 c 2
 291.25 610.833 l 2
 320.354 610.833 330.924 599.347 330.924 580.959 c 0
 330.753 576.794 331.405 562.742 317.017 553.719 c 0
 309.108 548.76 299.79 549.167 290.833 549.167 c 1
 290.833 350 l 1
 291.25 316.667 l 1
 415.833 549.167 l 1
 408.189 551.002 389.389 556.566 389.389 579.699 c 0
 389.601 584.208 389.401 598.225 404.167 606.812 c 0
 413.037 611.908 423.948 610.833 433.75 610.833 c 2
 483.333 610.833 l 2
 509.112 610.555 517.972 594.8 517.972 580.188 c 0
 517.972 572.553 515.553 565.231 511.866 560.59 c 0
 501.465 547.498 486.523 549.167 480 549.167 c 1
 377.5 358.333 l 1
 489.583 61.6667 l 1
 523.699 60.8541 524.582 43.4297 524.582 22.5 c 2
 524.582 -128.333 l 2
EndSplineSet
EndChar
StartChar: uni0498
Encoding: 1176 1176 133
Width: 525
Flags: W
HStem: 286.667 61.667<206 206 208.083 257.25 266.833 266.833> 560.853 61.6594<241.388 291.449>
VStem: 315.652 70.2967<-148.358 -103.419> 385.85 70.7634<432.103 486.213> 408.521 69.5204<154.255 198.144>
Fore
374.333 318.75 m 1xd0
 452.711 279.86 478.041 221.224 478.041 169.384 c 0
 478.041 139.127 469.413 111.184 457.667 90.8334 c 0
 423.779 32.1193 357.812 -3.47413 291.417 -9.5833 c 1
 296.417 -18.3333 l 1
 358.261 -35.8272 385.948 -81.8979 385.948 -124.941 c 0
 385.948 -143.439 380.834 -161.379 371.12 -176.25 c 0
 337.609 -227.546 255.437 -235.833 182.25 -235.833 c 0
 158.39 -235.833 142.016 -232.22 141.201 -204.957 c 0
 141.201 -188.543 151.667 -178.731 161 -175.969 c 0
 192.285 -166.71 315.652 -173.028 315.652 -123.688 c 0
 315.652 -100.272 292.961 -78.1851 261.417 -74.8979 c 0
 241.319 -72.8035 228.428 -67.3173 228.428 -36.944 c 0
 228.428 -16.9044 233.531 -13.77 235.167 -10 c 1
 134.543 -2.28554 81.336 52.2431 63.4599 117.084 c 0
 58.0491 136.71 55.7796 151.845 55.7796 163.498 c 0
 55.7796 194.245 71.1087 201.597 90.9075 201.634 c 0
 130.293 201.634 124.149 175.049 127.744 150 c 0
 137.148 84.4893 182.205 60.2172 228.5 53.0286 c 0
 235.855 51.8865 246.216 50.9182 258.327 50.9182 c 0
 302.165 50.9182 368.926 63.6058 399.008 126.667 c 0
 405.47 140.213 408.521 154.26 408.521 168.151 c 0xe8
 408.521 228.137 351.636 285.234 266.833 286.627 c 0
 251.701 286.875 226.993 286.667 221.417 286.667 c 2
 208.083 286.667 l 1
 208.083 286.667 173.676 288.424 173.676 317.901 c 0
 173.676 333.862 183.064 347.75 206 348.292 c 2
 217.667 348.334 l 1
 257.25 348.334 l 2
 278.344 348.334 294.01 348.621 313.5 355.781 c 0
 349.817 369.122 376.926 399.672 384.016 435.834 c 0
 385.167 441.863 385.85 448.02 385.85 454.167 c 0
 385.85 518.259 322.862 560.853 260.036 560.853 c 0
 232.429 560.853 204.853 552.628 182.667 534.389 c 0
 167.298 521.748 142.639 495.152 135.583 435 c 0
 132.849 411.7 127.996 399.166 98.6101 399.166 c 0
 80.0369 399.607 70.4452 407.459 66.8333 418.334 c 0
 64.4454 425.626 64.75 433.25 64.75 440.833 c 2
 64.75 582.5 l 2
 64.75 588.953 62.8641 607.3 77.7962 616.914 c 0
 83.3493 620.489 88.7368 622.163 94.0653 622.163 c 0
 105.628 622.163 116.913 614.281 129.009 600.833 c 2
 142.25 585.833 l 1
 182.626 613.101 223.186 622.512 259.591 622.512 c 0
 317.928 622.512 365.597 598.346 384.75 584.763 c 0
 429.268 553.19 456.613 503.605 456.613 452.68 c 0
 456.613 411.525 438.754 369.494 397.667 335.386 c 0
 390.295 329.267 382.351 323.973 374.333 318.75 c 1xd0
EndSplineSet
EndChar
StartChar: afii10058
Encoding: 1033 1033 134
Width: 525
Flags: W
HStem: 2.05636e-05 61.6668<233.865 385.917> 286.667 61.666<313 392.471> 549.167 61.666<88.4991 312.167 313 322.023>
VStem: 106.75 56.655<320.833 348.333 363.75 417.083 530.141 549.167> 243 70<61.6668 549.167> 426.441 70.855<151.367 198.152>
Fore
313 61.6668 m 1
 365.917 61.6668 l 2
 390.766 61.6668 404.38 61.0498 418.929 110 c 0
 422.851 123.195 426.441 149.44 426.441 177.857 c 0
 426.441 218.446 419.117 263.468 394.979 281.23 c 0
 386.374 287.53 378.268 286.667 365.917 286.667 c 2
 313 286.667 l 1
 313 61.6668 l 1
106.75 549.167 m 1
 95.4888 549.167 l 1
 95.4888 549.167 61.036 550.532 60.6757 580.398 c 0
 60.6757 604.71 77.3314 610.833 99.6667 610.833 c 2
 312.167 610.833 l 1
 323.833 610.794 l 2
 348.581 610.195 356.871 595.74 356.871 581.58 c 0
 356.871 571.988 353.067 562.532 347.998 557.61 c 0
 339.104 548.974 331.046 549.167 313 549.167 c 1
 313 348.333 l 1
 373.833 348.333 l 2
 411.108 348.333 437.207 347.538 467.02 297.5 c 0
 487.197 263.55 497.296 218.916 497.296 174.269 c 0
 497.296 128.465 486.668 82.6467 465.39 48.3334 c 0
 438.996 6.04537 414.229 2.05636e-05 385.917 2.05636e-05 c 2
 240.917 2.05636e-05 l 2
 226.813 2.05636e-05 210.657 -0.90181 202.011 16.6667 c 0
 199.969 20.8165 198.999 25.4388 198.999 30.0896 c 0
 198.999 42.8657 206.318 55.8577 218.833 59.8642 c 0
 226.542 62.3317 235.016 61.6668 243 61.6668 c 1
 243 549.167 l 1
 163.405 549.167 l 1
 163.405 511.114 163.654 473.052 163.405 435 c 2
 162.986 414.167 l 1
 162.986 363.75 l 1
 162.556 346.25 l 1
 162.556 320.833 l 1
 162.167 307.083 l 1
 162.13 290.833 l 1
 161.75 277.5 l 2
 145.339 219.402 156.77 -11.1584 73.2162 -11.1584 c 0
 47.6447 -11.1584 13.712 1.19264 13.0478 74.2418 c 0
 13.0478 101.198 21.5989 114.404 37.5833 122.5 c 0
 41.3489 124.407 48.6095 127.403 57.6418 127.403 c 0
 69.0155 127.403 83.1985 122.653 96.75 105 c 1
 98.8333 127.5 l 2
 102.025 162.577 104.35 216.607 105.458 293.333 c 2
 105.5 308.333 l 1
 105.89 323.75 l 1
 105.89 348.333 l 1
 106.333 365.417 l 1
 106.333 417.083 l 1
 106.75 438.75 l 2
 106.963 475.553 106.75 512.363 106.75 549.167 c 1
EndSplineSet
EndChar
StartChar: afii10056
Encoding: 1031 1031 135
Width: 525
Flags: W
HStem: 0.000143975 61.6667<110.082 226.75 112.583 408> 549.167 61.666<102.336 413.308> 718.975 99.8411<144.222 180.274 349.003 383.39>
VStem: 109.652 99.7072<764.496 773.704> 226.75 70<61.6668 549.167> 313.593 99.6012<756.51 773.805>
Fore
318.992 791.666 m 0
 328.726 810.474 345.506 818.816 362.268 818.816 c 0
 380.15 818.816 398.011 809.322 407.277 792.915 c 0
 411.306 785.703 413.194 777.764 413.194 769.846 c 0
 413.194 759.671 403.259 718.975 363.52 718.975 c 0
 334.485 718.975 313.593 743.489 313.593 769.532 c 0
 313.593 776.964 315.294 784.52 318.992 791.666 c 0
116.278 793.748 m 0
 126.4 810.925 142.715 818.885 158.974 818.885 c 0
 176.431 818.885 193.823 809.709 203.417 792.915 c 0
 207.462 785.651 209.359 777.676 209.359 769.732 c 0
 209.359 759.259 201.228 718.952 159.32 718.952 c 0
 129.125 718.952 109.652 743.623 109.652 769.145 c 0
 109.652 777.536 111.757 786.019 116.278 793.748 c 0
EndSplineSet
Refer: 13 1216 S 1 0 0 1 1.52588e-05 0.00012207 2
EndChar
StartChar: uni049A
Encoding: 1178 1178 136
Width: 525
Flags: W
HStem: 2.30595e-05 61.6667<61.25 171.25 375.56 378.333 383.333 462.026> 549.167 61.656<60.4167 179.362 345.297 450.417>
VStem: 87.5 56.667<61.6667 549.167> 439.167 56.666<-129.01 20.0001>
Fore
61.25 2.30595e-05 m 2
 41.9748 0.18742 25.2089 6.83821 25.2089 30.7145 c 0
 25.5584 65.1698 59.4719 60.3328 62.0833 61.6667 c 1
 87.5 61.6667 l 1
 87.5 549.167 l 1
 62.0833 549.167 l 2
 40.9974 549.167 25.2117 556.297 25.2117 580 c 0
 25.2117 592.329 30.1977 610.479 60.4167 610.823 c 2
 170.417 610.823 l 1
 170.417 610.823 206.303 609.258 206.456 579.865 c 0
 206.456 555.248 189.141 549.167 169.583 549.167 c 2
 144.167 549.167 l 1
 144.167 284.583 l 1
 356.667 549.167 l 1
 333.926 549.167 316.901 554.755 316.901 580 c 0
 316.901 592.715 321.987 610.524 352.5 610.823 c 2
 450.417 610.823 l 2
 470.609 610.592 485.629 602.351 485.629 580.314 c 0
 484.748 555.111 465.784 550.487 460 549.668 c 0
 454.504 548.889 448.866 549.167 443.333 549.167 c 0
 429.596 548.984 428.039 546.962 417.368 533.747 c 0
 303.924 393.257 301.59 387.836 275.833 357.917 c 1
 437.904 72.0834 l 1
 442.071 69.4547 439.18 61.8711 460.588 61.8711 c 0
 463.464 61.8711 466.813 61.7114 470.833 61.0676 c 0
 497.434 56.7598 495.833 34.6304 495.833 20.0001 c 2
 495.833 -124.583 l 2
 496.665 -155.668 482.033 -166.348 468.149 -166.348 c 0
 464.599 -166.348 461.098 -165.65 457.917 -164.416 c 0
 437.912 -156.635 439.167 -137.604 439.167 -120.417 c 2
 439.167 2.30595e-05 l 1
 383.333 2.30595e-05 l 2
 367.865 2.30595e-05 350.845 -1.18186 342.083 17.0834 c 0
 340.432 20.6571 339.418 25.4296 339.418 30.525 c 0
 339.418 42.6277 345.142 56.5526 361.667 60.5651 c 0
 367.083 61.8446 372.787 61.6667 378.333 61.6667 c 1
 237.917 310 l 1
 156.145 208.333 l 2
 144.236 193.447 144.167 193.244 144.167 176.25 c 2
 144.167 61.6667 l 1
 169.583 61.6667 l 2
 190.774 61.5388 206.453 54.5365 206.453 30.8334 c 0
 206.453 18.5 201.527 0.416659 171.25 2.30595e-05 c 2
 61.25 2.30595e-05 l 2
EndSplineSet
EndChar
StartChar: uni04A0
Encoding: 1184 1184 137
Width: 525
Flags: W
HStem: -8.65757e-06 61.6667<156.667 243.333 447.917 468.429> 549.167 61.666<57.0834 243.333 437.5 452.011>
VStem: 20.0001 70<497.5 584.268> 172.083 56.667<61.6667 549.167>
Fore
381.25 549.167 m 1
 352.881 550.126 347.291 567.452 347.291 579.906 c 0
 348.549 613.693 378.715 608.619 382.083 610.833 c 1
 437.5 610.833 l 2
 460.902 610.833 481.67 614.063 490.99 593.323 c 0
 492.856 589.169 493.712 584.795 493.712 580.487 c 0
 493.712 566.695 484.941 553.588 472.499 550.589 c 0
 464.483 548.657 456.106 549.167 447.917 549.167 c 1
 437.917 531.963 427.145 515.234 416.667 498.333 c 2
 335.626 367.5 l 2
 330.181 357.997 331.432 354.599 334.684 346.667 c 2
 445.833 92.5 l 2
 450.331 82.2336 454.917 72.0217 459.167 61.6667 c 1
 477.691 61.6667 485.568 60.8061 493.832 51.3962 c 0
 496.15 48.7573 500.731 39.4987 500.731 29.2111 c 0
 500.731 21.2825 498.01 12.7427 489.435 6.15082 c 0
 478.535 -2.2291 457.712 -8.65757e-06 447.917 -8.65757e-06 c 2
 399.167 -8.65757e-06 l 2
 372.929 0.525973 364.718 14.7466 364.718 28.718 c 0
 364.718 38.719 368.925 48.5924 373.741 53.2237 c 0
 380.987 60.1919 388.152 61.1945 397.5 61.6667 c 1
 293.75 299.167 l 1
 237.848 210 l 1
 229.86 194.583 l 1
 228.75 177.5 l 1
 228.75 61.6667 l 1
 243.333 61.6667 l 2
 273.173 61.3267 278.54 44.0831 278.54 30.9203 c 0
 278.202 -2.88912 244.408 0.747932 243.333 -8.65757e-06 c 1
 156.667 -8.65757e-06 l 2
 127.347 0.545421 122.295 18.3339 122.295 30.7707 c 0
 122.634 64.9473 156.705 60.8417 157.914 61.6667 c 1
 172.083 61.6667 l 1
 172.083 549.167 l 1
 90.0001 549.167 l 1
 90.0001 499.583 l 2
 90.0001 468.083 86.1928 454.583 54.1667 454.583 c 0
 28.0391 454.583 22.8594 470.442 21.2501 476.25 c 0
 19.4417 483.069 20.0001 490.509 20.0001 497.5 c 2
 20.0001 568.75 l 2
 20.0001 599.786 26.0261 610.833 57.0834 610.833 c 2
 234.583 610.833 l 2
 249.198 610.833 266.594 612.269 275.607 594.151 c 0
 277.752 589.772 278.537 584.842 278.537 580 c 0
 278.537 567.667 273.605 549.576 243.333 549.167 c 2
 228.75 549.167 l 1
 228.75 337.917 l 1
 229.167 303.333 l 1
 381.25 549.167 l 1
EndSplineSet
EndChar
StartChar: uni049C
Encoding: 1180 1180 138
Width: 525
Flags: W
HStem: 1.29491e-05 61.6667<55.8333 155 450 465> 332.083 61.667<133.333 175.833> 549.167 61.654<55 163.75 430.833 454.505>
VStem: 76.6667 56.6663<61.6667 549.167> 175.833 61.667<240.417 332.083 393.75 475.833>
Fore
20.2346 30.8334 m 0
 20.2346 54.9219 36.7382 61.5246 56.6667 61.6667 c 2
 76.6667 61.6667 l 1
 76.6667 549.167 l 1
 56.6667 549.167 l 2
 35.1519 549.167 20.2231 557.403 20.2231 579.749 c 0
 20.8774 613.079 52.1244 608.888 55 610.821 c 1
 154.167 610.821 l 2
 184.68 610.521 189.765 592.714 189.765 580 c 0
 189.765 556.875 174.168 549.167 153.333 549.167 c 2
 133.333 549.167 l 1
 133.333 393.75 l 1
 175.833 393.75 l 1
 175.833 475 l 2
 176.081 495.605 184.25 510.274 206.47 510.274 c 0
 241.14 509.398 236.344 477.561 237.5 475.833 c 1
 237.5 393.75 l 1
 243.312 396.555 l 1
 255.798 409.971 267.007 424.664 278.406 439.167 c 2
 365 549.167 l 1
 336.489 550.207 331.439 567.882 331.439 579.927 c 0
 332.399 614.753 364.865 609.595 366.667 610.821 c 1
 430.833 610.821 l 2
 454.663 610.821 477.044 614.875 486.903 593.735 c 0
 488.49 590.332 489.483 585.622 489.483 580.53 c 0
 489.483 568.285 483.735 553.84 466.666 550.101 c 0
 461.907 549.058 456.928 549.167 452.083 549.167 c 2
 437.083 549.167 l 1
 286.25 357.5 l 1
 450 61.6667 l 1
 464.167 61.6667 l 2
 492.35 61.2322 498.375 43.7442 498.375 30.6538 c 0
 497.03 -2.78845 466.666 0.996749 465 1.29491e-05 c 1
 386.25 1.29491e-05 l 2
 359.849 0.421001 351.388 14.8045 351.388 28.9377 c 0
 351.388 38.7278 355.448 48.3978 360.417 53.2238 c 0
 367.789 60.3779 375.472 61.3305 385.417 61.6667 c 1
 237.5 328.333 l 1
 237.5 240.417 l 2
 237.351 227.335 235.173 214.393 219.987 207.908 c 0
 215.561 206.018 210.938 205.061 206.419 205.061 c 0
 190.599 205.061 176.069 216.791 175.833 241.25 c 2
 175.833 332.083 l 1
 133.333 332.083 l 1
 133.333 61.6667 l 1
 153.333 61.6667 l 2
 174.293 61.5173 189.765 53.9583 189.765 30.8334 c 0
 189.765 18.8854 184.964 0.480935 155 1.29491e-05 c 2
 55.8333 1.29491e-05 l 2
 25.3911 0.348079 20.2346 17.9219 20.2346 30.8334 c 0
EndSplineSet
EndChar
StartChar: uni04D4
Encoding: 1236 1236 139
Width: 525
Flags: W
HStem: 1.71065e-05 61.6667<57 139.5 258.82 457.399> 182.5 61.667<152.833 263.25> 285.833 61.667<319.917 439.917> 549.167 61.666<157.585 169.083 164.083 455.333>
VStem: 263.25 56.667<61.6667 549.167 244.167 549.167> 434.5 56.661<544.425 554.583> 442.833 56.667<42.0834 148.395>
Fore
263.25 549.167 m 1xf8
 227 549.167 l 1
 165.333 244.167 l 1
 263.25 244.167 l 1
 263.25 549.167 l 1xf8
442.833 136.25 m 2xfa
 442.833 160.541 457.047 171.253 470.99 171.253 c 0
 474.62 171.253 478.232 170.527 481.569 169.125 c 0
 499.992 161.384 499.5 144.805 499.5 133.75 c 2
 499.5 42.0834 l 2xfa
 499.5 33.7689 502.078 9.31353 479.495 1.77085 c 0
 472.487 -0.569693 464.679 1.71065e-05 457.399 1.71065e-05 c 2
 265.333 1.71065e-05 l 2
 252.308 1.71065e-05 235.594 -1.12456 226.74 16.25 c 0
 224.872 19.9541 223.684 25.1294 223.684 30.6676 c 0
 223.684 42.7104 229.301 56.4688 245.75 60.5454 c 0
 251.422 61.9512 257.417 61.6667 263.25 61.6667 c 1
 263.25 182.5 l 1
 152.833 182.5 l 1
 128.667 61.6667 l 1
 144.105 61.6667 162.204 63.4371 171.255 44.9813 c 0
 173.427 40.5505 174.513 35.7621 174.513 31.0185 c 0
 174.513 15.4533 162.826 0.371881 139.5 1.71065e-05 c 2
 57 1.71065e-05 l 2
 38.3569 0.324302 31.1659 5.54851 25.7008 15.8334 c 0
 23.5241 19.9641 22.1911 25.3003 22.1911 30.8976 c 0
 22.1911 40.1819 25.8586 50.1844 35.4271 56.595 c 0
 42.1856 61.1231 49.9167 61.5888 57.8283 61.6667 c 2
 70.75 61.6667 l 1
 169.083 549.167 l 1
 146.088 549.167 129.246 554.562 129.246 579.533 c 0
 130.176 614.553 162.393 609.715 164.083 610.833 c 1
 455.333 610.833 l 2
 484.263 610.57 491.161 597.217 491.161 573.75 c 2
 491.161 554.583 l 2
 491.161 534.268 492.596 516.547 492.596 501.815 c 0
 492.596 482.163 490.042 467.83 478.121 459.753 c 0
 474.391 457.262 468.594 455.45 462.4 455.45 c 0
 452.752 455.45 442.14 459.846 436.871 472.917 c 0
 434.888 477.836 434.628 483.108 434.5 488.333 c 2
 434.5 549.167 l 1xfc
 319.917 549.167 l 1
 319.917 347.5 l 1
 439.917 347.5 l 1
 439.917 347.5 474.481 346.032 474.722 316.649 c 0
 474.722 299.064 463.465 289.43 451.999 286.816 c 0
 446.167 285.5 440.007 285.833 434.083 285.833 c 2
 319.917 285.833 l 1
 319.917 61.6667 l 1
 442.833 61.6667 l 1
 442.833 136.25 l 2xfa
EndSplineSet
EndChar
StartChar: uni04A2
Encoding: 1186 1186 140
Width: 525
Flags: W
HStem: 1.84476e-05 61.6658<38.9335 177.167 335.322 454.667 345.917 454.667> 286.667 61.666<150.917 372.167> 549.167 61.658<54.6667 187.345 345.5 477.721>
VStem: 80.9167 70.0003<61.6658 549.167> 372.167 70<61.6658 549.167> 454.667 56.663<-133.333 23.3333>
Fore
18.2113 30.8334 m 0
 18.2113 55.4993 35.1387 61.5613 55.5 61.6658 c 2
 80.9167 61.6658 l 1
 80.9167 549.167 l 1
 55.5 549.167 l 2
 35.2243 549.167 18.2113 555.333 18.2113 580 c 0
 18.2113 603.119 33.3505 610.673 54.6667 610.825 c 2
 177.583 610.825 l 2
 208.434 610.566 213.622 593.101 213.622 580 c 0
 213.622 556.682 198.357 549.167 176.333 549.167 c 2
 150.917 549.167 l 1
 150.917 348.333 l 1
 372.167 348.333 l 1
 372.167 549.167 l 1
 346.75 549.167 l 2
 324.377 549.167 309.461 556.875 309.461 580 c 0
 309.461 593.101 314.649 610.566 345.5 610.825 c 2
 468.833 610.825 l 2
 499.684 610.565 504.872 593.101 504.872 580 c 0
 504.872 555.333 487.859 549.167 467.583 549.167 c 2
 442.167 549.167 l 1
 442.167 61.6658 l 1
 470.917 61.6658 l 2
 504.511 61.6658 511.33 51.6036 511.33 23.3333 c 2
 511.33 -128.333 l 1
 511.33 -128.333 510.388 -165.687 483.348 -166.171 c 0
 471.662 -166.171 455.449 -159.287 454.667 -133.333 c 2
 454.667 1.84476e-05 l 1
 345.917 1.84476e-05 l 2
 324.727 1.84476e-05 309.461 7.70835 309.461 30.8334 c 0
 309.461 55.4993 326.389 61.5615 346.75 61.6658 c 2
 372.167 61.6658 l 1
 372.167 286.667 l 1
 150.917 286.667 l 1
 150.917 61.6658 l 1
 176.333 61.6658 l 2
 198.8 61.5515 213.622 53.9577 213.622 30.8334 c 0
 213.622 7.32294 197.673 1.84476e-05 177.167 1.84476e-05 c 2
 54.25 1.84476e-05 l 2
 23.6171 1.84476e-05 18.2113 17.6328 18.2113 30.8334 c 0
EndSplineSet
EndChar
StartChar: uni04A4
Encoding: 1188 1188 141
Width: 525
Flags: W
HStem: 1.96323e-05 61.6542<45.9984 145.167 269.333 368.5> 286.667 61.666<131 284.333> 549.167 61.666<46.8308 146 269.748 466.417 278.917 482.354>
VStem: 11.2107 169.579<24.2198 37.3005 573.42 586.469> 61 70<61.6542 549.167> 284.333 70<61.6542 549.167> 433.917 70<494.206 569.167>
Fore
503.917 497.5 m 1xee
 503.917 497.5 502.083 454.758 467.464 454.573 c 0
 460.507 454.573 447.474 455.255 439.087 467.63 c 0
 432.742 476.991 433.917 488.83 433.917 499.583 c 2
 433.917 549.167 l 1
 354.333 549.167 l 1
 354.333 61.6542 l 1
 369.333 61.6542 l 2
 398.876 61.259 404.122 43.6987 404.122 30.9026 c 0
 403.785 -3.08549 369.588 0.742546 368.5 1.96323e-05 c 1
 269.333 1.96323e-05 l 2
 239.731 0.475082 234.542 17.8586 234.542 30.7472 c 0
 234.881 64.8376 269.197 60.9943 270.164 61.6542 c 1
 284.333 61.6542 l 1
 284.333 286.667 l 1
 131 286.667 l 1
 131 61.6542 l 1xee
 146 61.6542 l 2
 175.542 61.259 180.79 43.6986 180.79 30.9024 c 0
 180.449 -3.08841 146.255 0.742551 145.167 1.96323e-05 c 1
 45.9984 1.96323e-05 l 2
 16.6051 0.471729 11.2107 17.6841 11.2107 30.7556 c 0xf6
 11.5516 64.9361 45.6216 60.8294 46.8308 61.6542 c 1
 61 61.6542 l 1
 61 549.167 l 1
 45.9984 549.167 l 2
 16.4005 549.641 11.2107 566.93 11.2107 579.91 c 0
 11.5507 614.019 45.8633 610.173 46.8308 610.833 c 1
 146 610.833 l 2
 175.539 610.444 180.79 592.87 180.79 580.069 c 0
 180.449 546.079 146.255 549.909 145.167 549.167 c 1
 131 549.167 l 1
 131 348.333 l 1
 284.333 348.333 l 1
 284.333 549.167 l 1
 269.748 549.167 l 2
 239.476 549.576 234.545 567.667 234.545 580 c 0
 234.545 595.329 242.833 602.426 247.34 605.549 c 0
 256.561 611.938 268.262 610.833 278.917 610.833 c 2
 466.417 610.833 l 2
 498.292 610.833 503.917 598.854 503.917 569.167 c 2
 503.917 497.5 l 1xee
EndSplineSet
EndChar
StartChar: uni04E8
Encoding: 1256 1256 143
Width: 525
Flags: W
HStem: -11.4517 61.8685<173.067 315.753 202.542 315.753> 286.667 61.666<126 398.083> 560.416 61.667<164.906 354.188>
VStem: 55.9997 412.083<273.927 452.615 299.72 452.615> 55.9997 70.0003<184.784 386.138>
Fore
398.083 286.667 m 1xe8
 126 286.667 l 1
 126 82.9012 139.917 50.4168 265.167 50.4168 c 0
 366.339 50.4168 382.427 81.687 391.632 152.917 c 0
 396.126 187.7 397.159 222.884 397.667 257.917 c 2
 398.083 286.667 l 1xe8
398.083 348.333 m 1
 397.667 370.833 l 2
 394.643 534.102 383.572 560.416 256.919 560.416 c 0
 213.043 560.376 172.494 557.228 150.583 526.241 c 0
 131.338 497.986 126 423.944 126 348.333 c 1
 398.083 348.333 l 1
261 622.083 m 0
 447.375 622.083 468.083 594.812 468.083 310.417 c 0
 468.083 289.023 468.083 267.639 467.667 246.25 c 2
 467.58 231.25 l 2
 464.695 104.428 450.979 52.5264 424.139 25.6021 c 0
 390.521 -8.12136 322.384 -11.4517 277.442 -11.4517 c 0
 266.38 -11.4517 256.724 -11.25 249.333 -11.25 c 0
 96.8016 -11.25 71.197 28.3534 60.1467 155.833 c 0
 56.1059 202.94 55.9997 250.301 55.9997 297.554 c 0xf0
 56.0003 589.63 68.8122 622.083 261 622.083 c 0
EndSplineSet
EndChar
StartChar: uni04AA
Encoding: 1194 1194 144
Width: 525
Flags: W
HStem: 560.375 61.6998<278.588 316.422>
VStem: 40.1312 69.1523<274.497 380.137> 332.729 69.6332<-148.409 -106.754>
Fore
245.417 -37.0833 m 0
 245.417 -21.3802 247.634 -17.6991 252.917 -9.16667 c 1
 210.973 -1.80489 129.044 25.0601 75.4166 138.75 c 0
 51.3155 189.979 40.1312 246.565 40.1312 302.43 c 0
 40.1312 457.844 126.689 607.686 262.5 621.145 c 0
 269.014 621.769 275.43 622.075 281.746 622.075 c 0
 330.515 622.075 373.382 603.857 410.417 573.333 c 1
 420.905 597.624 427.49 609.925 433.984 615.261 c 0
 439.458 619.744 446.384 621.945 453.313 621.945 c 0
 465.716 621.945 478.128 614.891 482.237 601.247 c 0
 484.051 595.225 483.749 588.717 483.749 582.5 c 2
 483.749 440.833 l 1
 483.749 440.833 481.895 399.636 449.634 399.582 c 0
 418.462 399.582 416.714 412.752 411.658 439.583 c 0
 398.56 509.09 347.126 560.375 285.717 560.375 c 0
 277.442 560.375 268.985 559.443 260.417 557.5 c 0
 175.082 539.08 109.283 427.623 109.283 304.148 c 0
 109.283 262.541 116.755 219.569 133.467 178.333 c 0
 159.512 114.073 208.538 60.569 268.75 51.7917 c 0
 273.128 51.1534 278.431 50.7436 284.398 50.7436 c 0
 316.324 50.7436 367.261 62.4783 397.349 113.75 c 0
 424.743 160.432 401.617 192.167 435.833 200.907 c 0
 440.001 201.972 444.444 202.05 448.75 202.05 c 0
 475.862 202.05 483.519 188.339 483.519 168.543 c 0
 483.519 26.042 342.669 17.396 308.75 -9.58333 c 1
 316.602 -23.8594 310.148 -14.2605 336.667 -26.7442 c 0
 386.165 -50.0455 402.362 -89.5632 402.362 -123.945 c 0
 402.362 -144.431 396.612 -163.094 388.73 -175.417 c 0
 355.501 -227.366 274.952 -235.776 197.072 -235.835 c 0
 183.394 -235.835 168.528 -235.33 160.717 -217.917 c 0
 158.971 -214.004 158.148 -209.766 158.148 -205.528 c 0
 158.148 -192.556 165.85 -179.579 178.333 -175.899 c 0
 209.567 -166.691 332.729 -172.971 332.729 -123.846 c 0
 332.729 -99.98 310.334 -78.2564 278.75 -74.9192 c 0
 254.868 -72.3958 245.417 -64.7508 245.417 -37.0833 c 0
EndSplineSet
EndChar
StartChar: afii10062
Encoding: 1038 1038 145
Width: 525
Flags: W
HStem: 549 62<50.9999 182.5 341 479> 673.327 63.296<235.186 292.281>
VStem: 91.9999 89<83.5004 116.5>
Fore
185.417 743.75 m 1
 209.896 737.284 234.396 736.623 252.88 736.623 c 0
 331.682 736.623 327.016 742.6 337.5 744.167 c 1
 320.105 756.662 313.176 771.924 313.176 786.41 c 0
 313.176 807.629 328.043 827.182 346.667 833.935 c 0
 352.284 835.938 357.896 836.866 363.347 836.866 c 0
 390.338 836.866 413.369 814.112 413.369 786.447 c 0
 413.369 735.767 410.369 718.183 381.666 697.826 c 0
 362.209 684.028 332.563 673.419 252.827 673.327 c 0
 217.546 673.327 122.971 675.225 110.551 744.583 c 0
 109.746 749.079 109.437 752.814 109.437 755.957 c 0
 109.437 763.281 111.113 767.388 112.083 770.417 c 2
 110.489 776.481 109.762 782.145 109.762 787.404 c 0
 109.762 808.551 121.509 823.158 135.833 830.91 c 0
 141.637 834.03 150.261 836.22 159.611 836.22 c 0
 177.997 836.22 199.187 827.754 207.254 801.25 c 0
 208.697 796.465 209.497 791.555 209.497 786.59 c 0
 209.497 772.182 202.757 757.318 185.417 743.75 c 1
EndSplineSet
Refer: 210 1059 S 1 0 0 1 -9.15527e-05 0.000366211 2
EndChar
StartChar: uni04B0
Encoding: 1200 1200 147
Width: 525
Flags: W
HStem: 9.21637e-06 61.6625<182.283 325.5 197.583 340.977> 182.5 61.667<127.544 226.75 296.75 385.5> 549.167 61.66<53.4168 169.25 346.453 478.098>
VStem: 226.75 70<61.6625 182.5>
Fore
138 182.5 m 2
 117.089 182.5 102.332 190.946 102.332 213.053 c 0
 103.284 248.507 136.044 242.873 138 244.167 c 1
 226.75 244.167 l 1
 80.0833 549.167 l 1
 55.0834 549.167 l 2
 33.3059 549.167 18.2113 556.875 18.2113 580 c 0
 18.2113 592.331 23.1966 610.481 53.4168 610.827 c 2
 166.75 610.827 l 2
 187.204 610.827 203.635 603.505 203.635 580.453 c 0
 202.394 546.335 174.966 553.034 169.25 549.167 c 1
 157.583 549.167 l 1
 223.833 408.75 l 1
 246.47 357.5 l 1
 258.903 325 l 1
 261.75 314.167 l 1
 265.248 329.583 271.283 344.167 277.425 358.75 c 0
 290.803 390.516 325.471 465.115 336.038 487.5 c 2
 365.5 549.167 l 1
 353.824 549.167 l 1
 353.824 549.167 320.152 550.203 319.411 581.11 c 0
 319.411 603.668 336.573 610.827 356.333 610.827 c 2
 469.25 610.827 l 1
 469.25 610.827 504.397 609.621 504.901 579.522 c 0
 504.901 556.302 488.614 549.167 467.583 549.167 c 2
 443 549.167 l 1
 296.75 244.167 l 1
 385.5 244.167 l 1
 385.5 244.167 420.401 242.805 420.753 213.038 c 0
 420.753 189.65 404.708 182.5 385.083 182.5 c 2
 296.75 182.5 l 1
 296.75 61.6625 l 1
 324.25 61.6625 l 2
 345.157 61.5724 361.916 55.6894 361.916 30.8333 c 0
 361.916 17.7292 356.454 9.21637e-06 325.5 9.21637e-06 c 2
 197.583 9.21637e-06 l 2
 166.984 9.21637e-06 161.584 17.7292 161.584 30.8333 c 0
 161.584 56.0747 179.228 61.5758 199.25 61.6625 c 2
 226.75 61.6625 l 1
 226.75 182.5 l 1
 138 182.5 l 2
EndSplineSet
EndChar
StartChar: uni04B2
Encoding: 1202 1202 148
Width: 525
Flags: W
HStem: 4.26918e-06 61.6666<62.4167 177.833 345.75 444.5> 549.167 61.666<72.8332 188.25 316.153 440.194>
VStem: 444.5 56.664<-133.333 23.3333>
Fore
27.2117 30.8333 m 0
 27.2117 55.4999 44.139 61.5621 64.5 61.6666 c 2
 89.9165 61.6666 l 1
 216.424 315 l 2
 219.844 322.805 221.105 325.877 216.062 335.833 c 2
 107.287 539.101 l 2
 101.209 549.243 98.8741 549.167 85.7494 549.167 c 2
 72.8332 549.167 l 2
 47.5528 549.645 38.5444 565.159 38.5444 579.723 c 0
 38.5444 587.077 40.8412 594.189 44.4998 599 c 0
 53.4544 610.7 62.5532 610.833 83.6665 610.833 c 2
 188.25 610.833 l 2
 218.969 610.573 224.265 592.911 224.265 580 c 0
 224.265 564.5 215.687 557.252 211.084 554.167 c 0
 202.148 548.205 190.999 549.167 180.75 549.167 c 1
 257 405.417 l 1
 327 549.167 l 1
 316.153 549.167 l 2
 296.944 549.497 289.561 555.357 284.415 565.833 c 0
 282.301 570.163 281.261 574.987 281.261 579.819 c 0
 281.261 593.222 289.258 606.692 304.5 609.902 c 0
 309.083 610.833 313.946 610.833 318.667 610.833 c 2
 431.583 610.833 l 1
 431.583 610.833 466.484 609.469 466.837 579.651 c 0
 466.837 555.976 450.889 549.167 429.5 549.167 c 2
 404.083 549.167 l 1
 292 326.25 l 1
 432.417 61.6666 l 1
 460.75 61.6666 l 2
 494.344 61.6666 501.164 51.6041 501.164 23.3333 c 2
 501.164 -128.75 l 1
 501.164 -128.75 500.425 -165.508 473.151 -166.167 c 0
 461.233 -166.167 445.273 -158.977 444.5 -133.333 c 2
 444.5 4.26918e-06 l 1
 345.75 4.26918e-06 l 2
 320.76 0.293534 309.888 15.189 309.888 30.4811 c 0
 309.888 35.4307 311.027 40.4219 313.195 44.9729 c 0
 322.114 63.6941 340.966 61.6666 354.917 61.6666 c 1
 257 253.333 l 1
 166.167 61.6666 l 1
 177.833 61.6666 l 1
 177.833 61.6666 212.281 60.3096 212.649 30.4286 c 0
 212.649 6.82239 196.701 5.08626e-06 175.75 4.26918e-06 c 2
 62.4167 4.26918e-06 l 2
 32.2484 0.41567 27.2117 18.3073 27.2117 30.8333 c 0
EndSplineSet
EndChar
StartChar: afii10145
Encoding: 1039 1039 149
Width: 525
Flags: W
HStem: 2.11895e-05 61.6666<48.9468 233 50.9167 233 150.917 372.167 290.083 478.127> 549.167 61.658<54.6667 187.345 345.5 477.721>
VStem: 80.9167 70.0003<61.6666 549.167> 233 57.083<-117.5 2.11895e-05> 372.167 70<61.6666 549.167>
Fore
467.167 61.6666 m 2
 489.086 61.6666 504.886 54.3361 504.886 31.3622 c 0
 503.601 -2.81187 478.761 4.08887 472.167 2.11895e-05 c 1
 290.083 2.11895e-05 l 1
 290.083 -116.667 l 2
 290.083 -139.927 289.791 -143.039 287.35 -148.75 c 0
 282.009 -161.21 272.61 -166.133 263.175 -166.133 c 0
 251.77 -166.133 240.314 -158.939 235.911 -149.167 c 0
 233.132 -142.999 233 -139.271 233 -117.5 c 2
 233 2.11895e-05 l 1
 50.9167 2.11895e-05 l 2
 29.3866 0.837194 17.9851 15.0549 17.9851 30.7624 c 0
 17.9851 34.5041 18.6321 38.3303 19.9433 42.0804 c 0
 26.6429 60.9401 41.977 61.6666 55.9167 61.6666 c 2
 80.9167 61.6666 l 1
 80.9167 549.167 l 1
 55.5 549.167 l 2
 35.2242 549.167 18.2112 555.333 18.2112 580 c 0
 18.2112 603.119 33.3505 610.673 54.6667 610.825 c 2
 177.583 610.825 l 2
 208.434 610.566 213.622 593.101 213.622 580 c 0
 213.622 556.682 198.357 549.167 176.333 549.167 c 2
 150.917 549.167 l 1
 150.917 61.6666 l 1
 372.167 61.6666 l 1
 372.167 549.167 l 1
 346.75 549.167 l 2
 324.377 549.167 309.461 556.875 309.461 580 c 0
 309.461 593.101 314.649 610.566 345.5 610.825 c 2
 468.833 610.825 l 2
 499.684 610.565 504.872 593.101 504.872 580 c 0
 504.872 555.333 487.859 549.167 467.583 549.167 c 2
 442.167 549.167 l 1
 442.167 61.6666 l 1
 467.167 61.6666 l 2
EndSplineSet
EndChar
StartChar: uni04B8
Encoding: 1208 1208 150
Width: 525
Flags: W
HStem: 6.41346e-05 61.6612<330.184 468.417 345.5 478.67> 241.667 61.666<217.422 230.917 292.583 372.167> 549.167 61.658<54.6667 187.345 345.5 478.716>
VStem: 80.9167 70.0003<398.909 549.167> 230.917 61.666<155.417 241.667 303.333 389.583> 372.167 70<61.6613 549.167>
Fore
292.583 155.417 m 2
 292.375 134.388 283.62 120.116 262.489 120.116 c 0
 226.927 121.089 232.221 153.468 230.917 155.417 c 1
 230.917 241.667 l 1
 203.926 241.667 157.713 239.964 117.271 291.667 c 0
 84.5668 333.477 80.9167 373.651 80.9167 424.167 c 2
 80.9167 549.167 l 1
 55.5 549.167 l 2
 35.2242 549.167 18.2112 555.333 18.2112 580 c 0
 18.2112 603.119 33.3505 610.673 54.6667 610.825 c 2
 177.583 610.825 l 2
 208.434 610.566 213.622 593.101 213.622 580 c 0
 213.622 556.682 198.357 549.167 176.333 549.167 c 2
 150.917 549.167 l 1
 150.917 424.167 l 2
 150.917 396.86 151.123 323.664 199.667 306.082 c 0
 209.603 302.484 220.5 303.333 230.917 303.333 c 1
 230.917 389.583 l 2
 231.056 400.751 232.005 415.348 248.417 422.458 c 0
 252.782 424.321 257.36 425.26 261.846 425.26 c 0
 277.664 425.26 292.346 413.586 292.583 389.583 c 2
 292.583 303.333 l 1
 372.167 303.333 l 1
 372.167 549.167 l 1
 346.75 549.167 l 2
 324.377 549.167 309.461 556.875 309.461 580 c 0
 309.461 593.101 314.649 610.566 345.5 610.825 c 2
 468.833 610.825 l 2
 499.684 610.565 504.872 593.101 504.872 580 c 0
 504.872 556.682 489.432 549.167 468 549.167 c 2
 442.167 549.167 l 1
 442.167 61.6613 l 1
 468 61.6613 l 2
 489.193 61.5318 504.872 54.5324 504.872 30.8334 c 0
 504.872 7.32298 488.923 6.41346e-05 468.417 6.41346e-05 c 2
 345.5 6.41346e-05 l 2
 314.867 6.41346e-05 309.461 17.6329 309.461 30.8334 c 0
 309.461 55.6884 326.565 61.5588 346.75 61.6613 c 2
 372.167 61.6613 l 1
 372.167 241.667 l 1
 292.583 241.667 l 1
 292.583 155.417 l 2
EndSplineSet
EndChar
StartChar: uni04B6
Encoding: 1206 1206 151
Width: 525
Flags: W
HStem: 8.34465e-06 61.6658<335.322 454.667> 241.667 61.666<224.667 372.167> 549.167 61.658<54.6668 187.345 345.5 477.721>
VStem: 80.9167 70.0003<369.402 549.167> 372.167 70<61.6658 549.167> 454.667 56.663<-133.333 23.3333>
Fore
309.461 30.8333 m 0
 309.461 55.4993 326.389 61.5615 346.75 61.6658 c 2
 372.167 61.6658 l 1
 372.167 241.667 l 1
 226.75 241.667 l 2
 201.209 241.667 155.748 241.563 116.302 292.917 c 0
 84.8148 333.912 80.9167 373.052 80.9167 423.75 c 2
 80.9167 549.167 l 1
 55.5001 549.167 l 2
 35.2243 549.167 18.2113 555.333 18.2113 580 c 0
 18.2113 603.119 33.3506 610.673 54.6668 610.825 c 2
 177.583 610.825 l 2
 208.434 610.565 213.622 593.1 213.622 580 c 0
 213.622 556.682 198.357 549.167 176.333 549.167 c 2
 150.917 549.167 l 1
 150.917 412.917 l 2
 150.917 325.888 190.381 306.973 207.167 304.131 c 0
 212.926 303.156 218.833 303.333 224.667 303.333 c 2
 372.167 303.333 l 1
 372.167 549.167 l 1
 346.75 549.167 l 2
 324.377 549.167 309.461 556.875 309.461 580 c 0
 309.461 593.1 314.649 610.565 345.5 610.825 c 2
 468.833 610.825 l 2
 499.684 610.565 504.872 593.1 504.872 580 c 0
 504.872 555.333 487.859 549.167 467.583 549.167 c 2
 442.167 549.167 l 1
 442.167 61.6658 l 1
 470.917 61.6658 l 2
 504.511 61.6658 511.33 51.6035 511.33 23.3333 c 2
 511.33 -128.333 l 1
 511.33 -128.333 510.388 -165.687 483.348 -166.171 c 0
 471.662 -166.171 455.449 -159.287 454.667 -133.333 c 2
 454.667 8.34465e-06 l 1
 345.917 8.34465e-06 l 2
 324.727 8.34465e-06 309.461 7.70834 309.461 30.8333 c 0
EndSplineSet
EndChar
StartChar: afii10053
Encoding: 1028 1028 152
Width: 525
Flags: W
HStem: -11.1043 61.7375<234.923 290.171> 274.583 61.667<110.417 374.513> 560.253 62.2485<268.293 310.729>
Fore
363.75 336.25 m 2
 397.866 337.171 407.177 320.622 407.177 306.033 c 0
 407.177 298.443 404.657 291.384 401.799 287.59 c 0
 392.721 275.537 385.692 274.583 363.333 274.583 c 2
 112.083 274.583 l 1
 130.135 143.359 197.731 50.6332 287.582 50.6332 c 0
 292.76 50.6332 298.012 50.9412 303.333 51.5675 c 0
 369.23 59.3244 408.464 106.268 413.222 152.917 c 0
 415.431 175.721 419.39 189.965 449.202 189.965 c 0
 468.699 189.756 483.496 183.033 483.496 155.305 c 0
 483.496 148.067 482.481 139.54 480.4 129.583 c 0
 457.994 22.3798 346.459 -5.66985 305.417 -9.99997 c 0
 297.897 -10.7499 290.594 -11.1043 283.506 -11.1043 c 0
 186.339 -11.1043 129.59 55.4858 109.289 82.5 c 0
 62.3276 144.99 39.9472 225.308 39.9472 304.887 c 0
 39.9472 429.719 95.0187 552.731 196.667 602.253 c 0
 226.734 616.901 255.248 622.501 281.339 622.501 c 0
 340.12 622.501 386.602 594.078 410.833 576.667 c 1
 421.377 598.891 427.684 610.294 434.368 615.573 c 0
 439.534 619.653 446.529 621.874 453.631 621.874 c 0
 465.477 621.874 477.623 615.696 482.083 601.663 c 0
 483.914 595.903 483.75 589.713 483.75 583.75 c 2
 483.75 453.333 l 1
 483.75 453.333 481.952 412.596 449.714 412.498 c 0
 409.724 412.498 419.157 433.494 406.548 469.583 c 0
 384.487 532.72 331.783 560.253 285.282 560.253 c 0
 281.387 560.253 277.536 560.06 273.75 559.678 c 0
 172.484 549.467 128.677 435.124 118.688 393.333 c 0
 115.695 380.759 113.015 368.255 110.417 336.25 c 1
 363.75 336.25 l 2
EndSplineSet
EndChar
StartChar: uni04D8
Encoding: 1240 1240 153
Width: 525
Flags: W
HStem: -11.0532 61.7176<219.324 279.743> 260.417 61.25<54.3333 430.583> 560.357 62.0255<217.983 286.266>
Fore
428.083 260.417 m 1
 81.8334 260.417 l 1
 84.8485 214.086 96.9681 64.8302 233.5 51.3354 c 0
 238.014 50.8892 242.558 50.6644 247.119 50.6644 c 0
 312.366 50.6644 381.086 96.6804 414.707 199.167 c 0
 421.228 219.045 425.815 239.583 428.083 260.417 c 1
430.583 321.667 m 1
 422.513 457.731 338.555 560.357 239.976 560.357 c 0
 233.704 560.357 227.374 559.942 221 559.093 c 0
 138.903 548.164 110.661 477.435 104.85 447.083 c 0
 100.25 423.062 95.2626 412.498 67.557 412.498 c 0
 24.7012 413.491 35.4498 448.952 33.5 453.333 c 1
 33.5 583.75 l 2
 33.5 604.014 38.1901 612.52 48.9167 618.333 c 0
 53.1543 620.63 58.3886 622.498 64.107 622.498 c 0
 74.2071 622.498 85.8177 616.67 96.1159 597.083 c 2
 106.833 576.25 l 1
 150.479 608.268 196.02 622.382 239.946 622.382 c 0
 332.585 622.382 418.038 559.604 463.369 469.583 c 0
 488.424 419.827 501.032 362.262 501.032 304.37 c 0
 501.032 232.881 481.806 160.893 443.052 102.5 c 0
 387.535 18.8534 314.962 -11.0533 248.105 -11.0532 c 0
 190.543 -11.0532 137.219 11.1157 102.667 40.2429 c 0
 67.9496 69.5093 12.4213 137.126 11 283.75 c 0
 11 315.031 20.75 321.667 54.3333 321.667 c 2
 430.583 321.667 l 1
EndSplineSet
EndChar
StartChar: afii10059
Encoding: 1034 1034 154
Width: 525
Flags: W
HStem: 1.81943e-05 61.6664<45 133.75 233.781 385.833> 286.666 61.667<124.167 242.917 312.917 392.388> 549.167 61.666<46.4813 133.75 235.232 322.5>
VStem: 54.1667 70.0003<61.6664 549.167> 242.917 70<61.6664 286.666 348.333 549.167> 426.358 70.855<151.367 198.151>
Fore
312.917 61.6664 m 1
 365.833 61.6664 l 2
 390.683 61.6664 404.297 61.0494 418.846 110 c 0
 422.768 123.195 426.358 149.439 426.358 177.856 c 0
 426.358 218.446 419.034 263.468 394.895 281.229 c 0
 386.291 287.529 378.185 286.666 365.833 286.666 c 2
 312.917 286.666 l 1
 312.917 61.6664 l 1
45 1.81943e-05 m 2
 15.7628 0.466232 10.2329 17.9347 10.2329 30.7208 c 0
 10.5347 45.9128 17.7756 52.5004 22.2129 55.8129 c 0
 31.4633 62.6963 43.2663 61.6664 54.1667 61.6664 c 1
 54.1667 549.167 l 1
 38.7959 549.167 21.9593 547.913 13.1779 565.833 c 0
 11.2404 569.817 10.1118 574.755 10.1118 579.909 c 0
 10.1118 589.719 14.2008 600.31 24.5833 606.586 c 0
 33.6446 611.986 44.9229 610.833 55 610.833 c 2
 133.75 610.833 l 2
 162.64 610.394 168.099 592.423 168.099 580.058 c 0
 167.8 565.005 160.613 558.367 156.12 555 c 0
 146.87 548.137 135 549.167 124.167 549.167 c 1
 124.167 348.333 l 1
 242.917 348.333 l 1
 242.917 549.167 l 1
 227.546 549.167 210.709 547.913 201.928 565.833 c 0
 199.991 569.817 198.862 574.755 198.862 579.909 c 0
 198.862 589.719 202.951 600.31 213.333 606.586 c 0
 222.395 611.986 233.673 610.833 243.75 610.833 c 2
 322.5 610.833 l 2
 351.39 610.394 356.849 592.423 356.849 580.058 c 0
 356.55 565.005 349.363 558.367 344.87 555 c 0
 335.62 548.137 323.75 549.167 312.917 549.167 c 1
 312.917 348.333 l 1
 373.75 348.333 l 2
 411.025 348.333 437.124 347.538 466.937 297.5 c 0
 487.114 263.55 497.213 218.917 497.213 174.269 c 0
 497.213 128.465 486.584 82.6469 465.306 48.3334 c 0
 438.912 6.04537 414.146 1.81943e-05 385.833 1.81943e-05 c 2
 240.833 1.81943e-05 l 2
 226.73 1.81943e-05 210.573 -0.901819 201.928 16.6667 c 0
 199.798 20.9956 198.797 25.7068 198.797 30.3904 c 0
 198.797 43.2432 206.334 55.8894 218.75 59.8642 c 0
 226.458 62.3317 234.932 61.6664 242.917 61.6664 c 1
 242.917 286.666 l 1
 124.167 286.666 l 1
 124.167 61.6664 l 1
 139.537 61.6664 156.407 62.902 165.155 44.9842 c 0
 167.025 41.1341 168.182 36.1577 168.182 30.8973 c 0
 168.182 21.3532 164.374 10.8746 154.113 4.49293 c 0
 147.912 0.637102 140.833 0.142518 133.75 1.81943e-05 c 2
 45 1.81943e-05 l 2
EndSplineSet
EndChar
StartChar: afii10023
Encoding: 1025 1025 155
Width: 525
Flags: W
HStem: 0.00012207 61<59.5 462> 286 61<166 297> 550 61<59.5 440> 718.975 99.841<144.556 180.607 349.336 383.723>
VStem: 97 69<61.0001 550> 109.985 99.707<756.384 773.703> 297 69<265.5 286 270 372.5> 313.926 99.601<756.511 773.804> 411 69<487 570> 433 69<25.0001 130>
Fore
319.325 791.666 m 0xf1
 329.059 810.474 345.839 818.816 362.601 818.816 c 0
 380.483 818.816 398.344 809.322 407.61 792.915 c 0
 411.639 785.703 413.527 777.764 413.527 769.845 c 0
 413.527 759.671 403.592 718.975 363.853 718.975 c 0
 334.818 718.975 313.926 743.489 313.926 769.533 c 0
 313.926 776.964 315.627 784.52 319.325 791.666 c 0xf1
116.612 793.748 m 0
 126.734 810.925 143.048 818.885 159.307 818.885 c 0
 176.764 818.885 194.156 809.709 203.75 792.915 c 0
 207.795 785.651 209.692 777.675 209.692 769.732 c 0
 209.692 759.258 201.561 718.952 159.653 718.952 c 0
 129.459 718.952 109.985 743.623 109.985 769.145 c 0xf4
 109.985 777.536 112.091 786.019 116.612 793.748 c 0
EndSplineSet
Refer: 68 69 S 1 0 0 1 0 0.00012207 2
EndChar
StartChar: afii61352
Encoding: 8470 8470 156
Width: 525
Flags: W
HStem: 205 61.667<328.546 492.804> 316.664 61.7795<383.431 416.58> 448.591 61.5852<392.217 426.113> 549.167 61.667<47.0546 80>
VStem: 80 56.667<142.482 549.167 176.25 549.167> 222.5 56.667<44.5835 439.167> 313.101 56.6043<408.03 421.335 408.03 421.335> 449.786 56.271<404.47 421.33>
Fore
299.346 236.153 m 0
 299.346 262.134 317.093 266.667 340 266.667 c 2
 474.167 266.667 l 1
 486.667 266.634 l 2
 507.711 266.245 519.293 255.929 520.159 237.917 c 0
 520.194 237.081 520.211 236.266 520.211 235.47 c 0
 520.211 210.769 503.524 205 482.083 205 c 2
 338.333 205 l 1
 338.333 205 299.581 206.462 299.346 236.153 c 0
409.583 448.591 m 0
 385.399 448.518 369.706 427.436 369.706 409.749 c 0
 369.706 406.311 370.298 403.002 371.537 400 c 0
 377.756 384.926 392.782 378.444 408.02 378.444 c 0
 425.141 378.444 442.529 386.627 447.997 400 c 0
 449.205 402.976 449.786 406.266 449.786 409.691 c 0
 449.786 427.355 434.318 448.591 409.583 448.591 c 0
324.92 459.584 m 0
 343.581 494.26 376.036 510.176 408.397 510.176 c 0
 443.829 510.176 479.149 491.096 496.129 456.667 c 0
 502.915 442.907 506.057 428.434 506.057 414.226 c 0
 506.057 394.714 487.246 316.959 410.511 316.664 c 0
 356.35 316.664 313.101 362.137 313.101 413.806 c 0
 313.101 428.863 316.774 444.447 324.92 459.584 c 0
57.9167 549.167 m 2
 36.1925 549.167 21.5009 558.189 21.5009 579.36 c 0
 23.0029 615.328 54.3452 609.324 56.6667 610.834 c 1
 120 610.834 l 2
 149.001 610.834 164.961 610.07 170.713 570 c 2
 188.91 437.917 l 2
 212.778 256.797 218.829 175.351 221.157 114.583 c 2
 221.978 87.0833 l 2
 222.083 81.3817 222.173 75.6958 222.5 70 c 1
 222.5 435 l 2
 222.5 468.049 217.692 569.304 263.75 605.574 c 0
 272.694 612.479 283.531 615.916 294.551 615.916 c 0
 319.813 615.916 346.036 597.851 352.617 562.084 c 0
 353.431 557.656 353.818 553.417 353.818 549.389 c 0
 353.818 520.746 334.28 502.735 310.137 502.735 c 0
 295.409 502.735 287.104 509.097 282.083 511.25 c 1
 278.495 481.349 279.167 454.147 279.167 439.167 c 2
 279.167 44.5835 l 2
 280.503 9.10888 269.568 0.00015093 238.75 0.00015093 c 0
 205.589 0.00015093 193.74 3.15813 188.218 42.0835 c 2
 179.383 105.417 l 2
 149.166 323.359 140.889 421.423 138.027 494.583 c 2
 137.17 522.083 l 2
 137.034 528.333 137.025 534.581 136.667 540.833 c 1
 136.667 176.25 l 2
 136.667 108.714 134.646 10.0958 75.8333 -3.84732 c 0
 72.1528 -4.71988 68.4865 -5.13354 64.8696 -5.13354 c 0
 32.9126 -5.13354 4.80773 27.1587 4.80774 60.552 c 0
 4.80774 65.7979 5.50131 71.0709 6.98249 76.2502 c 0
 12.2111 94.5331 28.1585 107.857 48.2718 107.857 c 0
 57.2409 107.857 67.0384 105.208 77.0833 99.1668 c 1
 79.1667 123.334 l 1
 80 182.5 l 1
 80 549.167 l 1
 57.9167 549.167 l 2
EndSplineSet
EndChar
StartChar: currency
Encoding: 164 164 157
Width: 525
Flags: W
HStem: -5.29624 69.4012<208.095 294.424> 489.406 69.5429<232.091 294.454>
VStem: -19.9325 70.0159<275.6 333.771> 475.251 70.2305<239.31 307.961>
Fore
50.0834 276.667 m 0
 50.3662 149.057 153.157 64.105 263.032 64.105 c 0
 294.867 64.105 327.297 71.2365 358 86.5282 c 0
 434.41 124.585 475.251 200.854 475.251 277.767 c 0
 475.251 338.156 450.074 398.942 397.167 441.939 c 0
 352.84 477.962 306.13 489.406 265.411 489.406 c 0
 223.02 489.406 187.122 477.002 167.167 467.013 c 0
 132.142 449.481 50.0834 390.874 50.0834 276.667 c 0
40.0833 102.917 m 1
 -2.59698 160.951 -19.9325 220.053 -19.9325 275.6 c 0
 -19.9325 341.619 4.55487 402.616 40.0833 450.833 c 1
 -36.1667 526.667 l 2
 -47.1606 538.168 -51.4767 549.113 -51.4767 558.617 c 0
 -51.4767 574.061 -40.0785 585.699 -27.4167 589.732 c 0
 -23.713 590.911 -20.2159 591.522 -16.7962 591.522 c 0
 -6.85284 591.522 2.43662 586.355 14.25 574.947 c 2
 88.8333 500 l 1
 90.0833 500 l 1
 135.561 536.743 199.193 558.949 264.989 558.949 c 0
 323.919 558.949 384.586 541.136 435.5 500 c 1
 436.75 500 l 1
 511.333 574.947 l 2
 523.635 586.878 534.814 591.366 544.323 591.366 c 0
 562.236 591.366 574.218 575.437 576.596 563.333 c 0
 577.046 561.032 577.249 558.832 577.249 556.734 c 0
 577.249 541.26 566.2 531.309 561.703 526.667 c 0
 556.327 521.117 491.731 456.708 485.5 450.833 c 1
 528.156 392.722 545.482 333.639 545.482 278.124 c 0
 545.482 212.142 521.008 151.199 485.5 102.917 c 1
 561.703 27.0833 l 2
 572.869 15.5562 577.15 4.72399 577.15 -4.64864 c 0
 577.15 -20.3209 565.18 -31.9122 553.416 -35.8475 c 0
 549.627 -37.1088 546.017 -37.7959 542.427 -37.7959 c 0
 532.921 -37.7959 523.55 -32.9787 511.333 -21.25 c 2
 511.333 -21.25 444.91 45.0949 436.75 53.75 c 1
 435.5 53.75 l 1
 384.183 12.2878 323.662 -5.29624 265.187 -5.29624 c 0
 198.64 -5.29624 134.744 17.4784 90.0833 53.75 c 1
 88.8333 53.75 l 1
 14.25 -21.25 l 2
 1.8972 -33.0584 -9.34092 -37.5278 -18.8926 -37.5278 c 0
 -36.6689 -37.5278 -48.604 -22.0476 -51.0125 -9.58335 c 0
 -51.4546 -7.29553 -51.654 -5.10811 -51.654 -3.02107 c 0
 -51.654 12.7251 -40.3023 22.7572 -36.1667 27.0833 c 2
 -36.1667 27.0833 30.9171 94.2747 40.0833 102.917 c 1
EndSplineSet
EndChar
StartChar: section
Encoding: 167 167 158
Width: 525
Flags: W
HStem: -227.555 62.324<248.72 285.38> 554.579 61.7158<246.017 285.929>
VStem: 81.6476 57.1845<173.682 226.116 436.469 486.464> 385.571 57.0951<-97.7658 -47.8288 155.084 214.945>
Fore
284.083 281.231 m 0
 262.791 288.828 251.511 292.262 241.022 292.262 c 0
 232.388 292.262 224.29 289.936 211.583 285.688 c 0
 161.508 268.907 138.832 233.321 138.832 200.154 c 0
 138.832 167.587 161.462 149.772 171.583 142.015 c 0
 193.5 125.219 256.196 97.0773 280.24 96.3632 c 0
 305.32 96.3632 385.571 121.659 385.571 188.51 c 0
 385.571 213.391 372.717 231.617 352.415 247.053 c 0
 332.084 262.5 307.989 272.701 284.083 281.231 c 0
361.167 57.9167 m 1
 418.683 22.4389 442.698 -24.9327 442.698 -70.725 c 0
 442.698 -124.807 409.201 -176.685 357.833 -204.167 c 0
 328.523 -219.805 295.152 -227.555 261.796 -227.555 c 0
 235.645 -227.555 209.503 -222.792 185.333 -213.333 c 0
 159.233 -203.092 99.9528 -170.232 98.4657 -102.79 c 0
 98.4657 -79.2356 113.834 -64.2205 132.662 -64.2205 c 0
 136.233 -64.2205 139.928 -64.7605 143.666 -65.8846 c 0
 181.876 -77.5611 151.746 -120.946 202.417 -150.522 c 0
 218.798 -160.084 240.988 -165.231 264.343 -165.231 c 0
 306.418 -165.231 352.272 -148.525 374.742 -110.833 c 0
 381.921 -98.7916 385.812 -86.0214 385.812 -73.242 c 0
 385.812 -52.2319 375.295 -31.1967 351.583 -13.3333 c 0
 302.973 23.2869 246.246 26.0757 186.583 56.6321 c 0
 110.886 95.4005 81.6476 148.566 81.6476 198.799 c 0
 81.6476 253.432 116.233 304.597 163.25 330 c 1
 163.25 330.833 l 1
 105.85 366.01 81.6777 413.475 81.6777 459.464 c 0
 81.6777 513.464 115.006 565.429 167 593.072 c 0
 196.211 608.602 229.417 616.295 262.616 616.295 c 0
 288.76 616.295 314.899 611.525 339.083 602.056 c 0
 365.177 591.84 424.466 558.965 425.951 491.542 c 0
 425.951 467.605 410.082 452.971 391.509 452.971 c 0
 387.99 452.971 384.374 453.496 380.75 454.583 c 0
 352.871 463.392 358.877 486.68 353.25 503.75 c 0
 344.555 529.952 310.119 554.579 261.739 554.579 c 0
 251.197 554.579 239.994 553.41 228.25 550.833 c 0
 173.683 538.723 138.691 500.275 138.691 461.29 c 0
 138.691 455.004 139.6 448.705 141.484 442.5 c 0
 160.977 378.284 265.236 369.341 337.833 332.083 c 0
 413.486 293.257 442.666 240.057 442.666 189.834 c 0
 442.666 135.134 408.052 83.967 361.167 58.75 c 1
 361.167 57.9167 l 1
EndSplineSet
EndChar
StartChar: afii10098
Encoding: 1169 1169 159
Width: 525
Flags: W
HStem: -6.86049e-05 61.6667<78.75 139.167 88.3334 292.213> 368.75 61.667<82.5 435>
VStem: 139.167 70<61.6666 368.75> 398.333 70<430.417 457.5>
Fore
468.333 402.5 m 2
 468.056 387.893 464.345 369.591 435 368.75 c 2
 209.167 368.75 l 1
 209.167 61.6666 l 1
 292.083 61.6666 l 2
 304.201 61.5175 318.476 59.594 324.724 43.3212 c 0
 326.162 39.5009 326.976 35.1496 326.976 30.7019 c 0
 326.976 20.3144 322.533 9.4009 311.21 3.4966 c 0
 304.135 -0.192985 296.092 -6.86049e-05 288.333 -6.86049e-05 c 2
 88.3334 -6.86049e-05 l 2
 64.7159 -6.86049e-05 45.1154 3.30014 45.1154 29.7864 c 0
 46.0377 65.4798 76.8666 60.3641 78.75 61.6666 c 1
 139.167 61.6666 l 1
 139.167 368.75 l 1
 88.3334 368.75 l 2
 65.5014 368.75 45.1137 372.118 45.1137 398.548 c 0
 46.1218 436.318 75.0089 426.809 82.5 430.417 c 1
 398.333 430.417 l 1
 398.333 459.167 l 2
 398.333 481.475 402.011 497.878 434.174 497.878 c 0
 477.161 497.255 465.935 462.708 468.333 457.5 c 1
 468.333 402.5 l 2
EndSplineSet
EndChar
StartChar: uni0493
Encoding: 1171 1171 160
Width: 525
Flags: W
HStem: -2.28286e-05 61.6666<78.75 139.167 88.3333 292.213> 206.667 60.416<81.25 139.167 209.167 280.417> 368.75 61.667<79.5833 428.333>
VStem: 139.167 70<61.6666 206.667 267.083 368.75> 398.333 69.999<330.245 387.917>
Fore
139.167 368.75 m 1
 88.75 368.75 l 2
 65.6703 368.75 45.1175 372.074 45.1175 398.638 c 0
 46.049 434.554 77.5383 429.049 79.5833 430.417 c 1
 428.333 430.417 l 2
 462.333 430.417 468.332 420.323 468.332 387.917 c 2
 468.332 341.667 l 1
 468.332 341.667 466.486 301.311 434.231 301.249 c 0
 401.172 301.249 398.333 318.824 398.333 341.667 c 2
 398.333 368.75 l 1
 209.167 368.75 l 1
 209.167 267.083 l 1
 280.417 267.083 l 2
 304.617 266.65 313.564 252.097 313.564 237.785 c 0
 313.564 229.435 310.519 221.168 305.681 215.833 c 0
 298.816 208.265 290.187 206.892 280 206.667 c 2
 209.167 206.667 l 1
 209.167 61.6666 l 1
 292.083 61.6666 l 2
 304.201 61.5175 318.476 59.594 324.724 43.3212 c 0
 326.162 39.5009 326.976 35.1497 326.976 30.7019 c 0
 326.976 20.3145 322.533 9.40091 311.21 3.49664 c 0
 304.135 -0.192939 296.092 -2.28286e-05 288.333 -2.28286e-05 c 2
 88.3333 -2.28286e-05 l 2
 64.7159 -2.28286e-05 45.1154 3.30016 45.1154 29.7862 c 0
 46.0377 65.4798 76.8666 60.3641 78.75 61.6666 c 1
 139.167 61.6666 l 1
 139.167 206.667 l 1
 91.25 206.667 l 2
 77.7354 206.667 60.1942 205.078 51.2067 222.917 c 0
 50.1071 225.122 48.6234 230.557 48.6234 236.931 c 0
 48.6234 246.506 51.9716 258.2 65 264.243 c 0
 70.1475 266.607 75.6954 266.963 81.25 267.083 c 2
 139.167 267.083 l 1
 139.167 368.75 l 1
EndSplineSet
EndChar
StartChar: afii10099
Encoding: 1106 1106 161
Width: 525
Flags: W
HStem: 5.50151e-05 61.6666<51.6586 102.917 52.9167 227.241> 374.099 62.2748<277.783 349.851> 475 61.667<24.5833 102.917 172.917 452.917> 549.167 61.666<46.6667 145.846>
VStem: 102.917 70<61.6667 475 536.667 549.167> 399.167 70<227.917 307.513>
Fore
25 475 m 2
 3.18421 475.318 -9.83919 485.869 -9.83919 504.905 c 0
 -8.52028 539.58 21.227 534.397 24.5833 536.667 c 1
 102.917 536.667 l 1
 102.917 549.167 l 1
 46.6667 549.167 l 2
 21.8406 549.988 13.6463 564.475 13.6463 578.527 c 0
 13.6463 587.747 17.1745 596.779 21.8471 601.64 c 0
 30.7862 611.353 42.7165 610.833 54.5834 610.833 c 2
 129.167 610.833 l 2
 162.526 610.833 172.917 604.648 172.917 571.25 c 2
 172.917 536.667 l 1
 452.917 536.667 l 2
 475.388 536.667 497.304 534.161 497.304 505.834 c 0
 497.304 489.077 486.981 479.614 477.495 476.771 c 0
 469.579 474.399 461.089 475 452.917 475 c 2
 172.917 475 l 1
 172.917 378.75 l 1
 216.274 417.909 272.08 436.373 323.147 436.373 c 0
 376.556 436.373 424.782 416.177 448.164 378.333 c 0
 459.93 359.284 469.167 337.527 469.167 277.5 c 2
 469.167 227.917 l 1
 469.097 205 l 2
 467.915 143.662 459.462 6.67034 380.795 -110 c 0
 339.403 -171.387 277.618 -220.752 207.673 -221.867 c 0
 183.441 -221.867 173.048 -206.412 173.048 -191.593 c 0
 173.048 -186.794 174.138 -182.063 176.2 -177.944 c 0
 187.01 -156.377 206.713 -164.748 232.5 -156.535 c 0
 341.581 -121.789 396.165 60.8597 399.112 207.917 c 0
 399.29 218.468 399.167 229.031 399.167 239.583 c 2
 399.167 280.417 l 2
 399.152 332.783 392.214 368.392 330.833 373.492 c 0
 325.915 373.9 321.08 374.099 316.334 374.099 c 0
 239.232 374.099 185.484 321.771 175.134 267.917 c 0
 172.728 255.387 172.917 242.699 172.917 230 c 2
 172.917 61.6667 l 1
 219.583 61.6667 l 2
 232.89 61.6667 250.018 63.1101 259.01 45.3934 c 0
 261.246 40.9602 262.346 36.0101 262.346 31.0536 c 0
 262.346 19.4049 256.269 7.72088 244.572 2.62797 c 0
 238.034 -0.218278 230.732 5.50151e-05 223.75 5.50151e-05 c 2
 52.9167 5.50151e-05 l 2
 45.9167 5.50151e-05 27.7737 -1.39253 17.9167 14.1667 c 0
 16.2747 16.8721 13.6717 23.918 13.6717 31.9224 c 0
 13.6717 40.9582 16.9888 51.2155 28.75 57.8292 c 0
 37.0833 62.4692 47.0671 61.6667 56.25 61.6667 c 2
 102.917 61.6667 l 1
 102.917 475 l 1
 25 475 l 2
EndSplineSet
EndChar
StartChar: afii10108
Encoding: 1115 1115 162
Width: 525
Flags: W
HStem: -1.40518e-05 61.6663<49.3511 97.0833 50.8333 217.171 314.953 359.167 317.5 479.254> 374.063 62.1692<268.96 320.699> 475 61.667<24.1667 97.0833 167.083 385.833> 549.167 61.666<52.5 142.115>
VStem: 97.0833 69.9997<61.6663 475 536.667 549.167> 359.167 70<61.6663 314.103>
Fore
24.5833 475 m 2
 -3.41655 475.483 -9.82573 492.317 -9.82573 505.245 c 0
 -8.52331 539.544 20.3879 534.079 24.1667 536.667 c 1
 97.0833 536.667 l 1
 97.0833 549.167 l 1
 55.4166 549.167 l 2
 40.8632 549.167 24.0805 547.96 15.2691 565.833 c 0
 13.4679 569.487 12.4217 574.384 12.4217 579.595 c 0
 12.4217 591.787 18.1487 605.696 33.3333 609.406 c 0
 39.5834 610.934 46.0454 610.833 52.5 610.833 c 2
 124.583 610.833 l 2
 159.646 610.833 167.083 602.755 167.083 571.667 c 2
 167.083 536.667 l 1
 385.833 536.667 l 2
 406.806 536.517 422.288 528.958 422.288 505.833 c 0
 422.288 482.708 407.023 475 385.833 475 c 2
 167.083 475 l 1
 167.083 383.333 l 1
 206.009 418.766 255.227 436.232 300.108 436.232 c 0
 341.291 436.232 378.822 421.525 401.397 392.498 c 0
 415.802 373.727 429.167 346.956 429.167 281.25 c 2
 429.167 61.6663 l 1
 472.5 61.6663 l 2
 486.209 61.6663 502.258 62.3696 510.981 44.9837 c 0
 512.133 42.6301 513.746 36.9395 513.746 30.3226 c 0
 513.746 20.4863 510.182 8.60297 496.241 2.59082 c 0
 489.829 -0.174181 482.675 -1.40518e-05 475.833 -1.40518e-05 c 2
 317.5 -1.40518e-05 l 2
 289.143 -1.40518e-05 278.521 14.2971 278.521 29.8091 c 0
 278.521 33.6129 279.159 37.4897 280.332 41.2467 c 0
 287.302 63.5748 310.322 61.6663 319.583 61.6663 c 2
 359.167 61.6663 l 1
 359.167 265 l 2
 359.167 300.444 360.823 344.981 335.749 362.777 c 0
 325.308 370.187 310.365 374.063 293.632 374.063 c 0
 244.289 374.063 179.386 340.356 168.514 264.167 c 0
 167.087 254.166 167.083 244.167 167.083 234.167 c 2
 167.083 61.6663 l 1
 210.417 61.6663 l 2
 224.125 61.6663 240.174 62.3696 248.897 44.9837 c 0
 250.05 42.63 251.663 36.9392 251.663 30.3221 c 0
 251.663 20.4859 248.098 8.60288 234.157 2.59082 c 0
 227.745 -0.174181 220.592 -1.40518e-05 213.75 -1.40518e-05 c 2
 50.8333 -1.40518e-05 l 2
 28.27 -1.40518e-05 12.3168 6.28238 12.3168 30.6517 c 0
 12.3698 36.1252 13.5999 50.0475 27.5 57.875 c 0
 35.4975 62.2954 44.9521 61.6663 53.75 61.6663 c 2
 97.0833 61.6663 l 1
 97.0833 475 l 1
 24.5833 475 l 2
EndSplineSet
EndChar
StartChar: uni0497
Encoding: 1175 1175 164
Width: 525
Flags: W
HStem: 1.18688e-05 61.6667<35.1642 49.3332 212.667 311.833> 368.75 61.654<49.3332 66.8332 211.833 311 456.417 476.283>
VStem: 233.5 56.667<61.6667 130.833 239.167 368.75> 465.583 56.661<-107.846 24.5833>
Fore
113.5 61.6667 m 1
 142.331 60.9331 148.271 43.8961 148.271 30.9834 c 0
 146.997 -2.87487 117.342 2.54823 113.5 1.18688e-05 c 1
 35.1642 1.18688e-05 l 2
 9.7814 0.534386 1.31076 15.3109 1.31075 29.5685 c 0
 1.31075 38.4757 4.61672 47.1803 9.17043 52.0833 c 0
 16.7379 60.2313 25.0288 61.4866 35.1642 61.6667 c 2
 49.3332 61.6667 l 1
 53.2703 69.8342 57.5425 77.8208 61.7842 85.8333 c 2
 142.078 237.5 l 2
 146.412 245.717 148.511 250.134 148.511 253.9 c 0
 148.511 257.994 146.03 261.319 141.241 267.917 c 0
 134.341 277.424 75.5795 356.236 66.8332 368.75 c 1
 51.8315 368.75 l 2
 31.2946 368.75 15.0537 376.766 15.0537 399.012 c 0
 16.658 433.57 43.6144 426.552 49.3332 430.404 c 1
 123.917 430.404 l 1
 123.917 430.404 158.098 428.92 158.33 399.497 c 0
 158.33 381.919 148.273 374.504 136.833 369.583 c 1
 233.5 239.167 l 1
 233.5 368.75 l 1
 213.5 368.75 l 2
 192.665 368.75 177.068 376.458 177.068 399.583 c 0
 177.068 411.526 181.941 430.008 211.833 430.404 c 2
 311 430.404 l 2
 341.401 430.105 346.599 412.297 346.599 399.583 c 0
 346.599 386.479 341.449 369.051 310.583 368.75 c 2
 290.167 368.75 l 1
 290.167 262.5 l 1
 290.583 239.583 l 1
 386.417 369.583 l 1
 370.164 376.573 364.298 387.6 364.298 398.268 c 0
 364.298 410.877 372.493 422.985 381.417 427.332 c 0
 387.06 430 393.215 430.317 399.333 430.404 c 2
 473.917 430.404 l 2
 499.856 430.005 507.939 416.072 507.939 402.12 c 0
 507.939 391.226 503.011 380.319 497.807 375.833 c 0
 489.622 368.968 481.148 368.75 471.417 368.75 c 2
 456.417 368.75 l 1
 382.009 267.917 l 2
 377.255 261.368 374.794 258.002 374.794 253.877 c 0
 374.794 250.082 376.876 245.646 381.172 237.5 c 2
 446.907 113.333 l 2
 455.992 96.1717 465.484 79.1604 473.917 61.6667 c 1
 486.417 61.6667 l 2
 515.346 61.4032 522.244 48.224 522.244 24.5833 c 2
 522.244 -102.083 l 2
 522.057 -130.565 508.804 -138.252 496.319 -138.252 c 0
 487.468 -138.252 479.003 -134.388 475.854 -131.332 c 0
 466.869 -122.612 465.583 -117.359 465.583 -98.3333 c 2
 465.583 1.18688e-05 l 1
 416.417 1.18688e-05 l 2
 402.155 1.18688e-05 385.909 -0.252235 377.74 17.0833 c 0
 375.876 21.0398 374.897 25.6834 374.897 30.4519 c 0
 374.897 43.5235 382.254 57.5341 398.903 60.9059 c 0
 402.459 61.6261 406.141 61.575 409.75 61.6667 c 1
 334.333 204.167 l 1
 297.742 154.167 l 1
 291.663 143.75 l 1
 290.167 130.833 l 1
 290.167 61.6667 l 1
 310.167 61.6667 l 2
 331.126 61.5173 346.599 53.9583 346.599 30.8333 c 0
 346.599 18.8854 341.797 0.480623 311.833 1.18688e-05 c 2
 212.667 1.18688e-05 l 2
 182.111 0.35084 177.068 18.0182 177.068 30.8333 c 0
 177.068 43.9375 182.252 61.408 213.083 61.6667 c 2
 233.5 61.6667 l 1
 233.5 130.417 l 1
 232.093 142.917 l 1
 225.819 153.75 l 1
 188.5 204.167 l 1
 113.5 61.6667 l 1
EndSplineSet
EndChar
StartChar: uni0499
Encoding: 1177 1177 165
Width: 525
Flags: W
HStem: -235.833 61.666<134.409 227.805> 206.667 60.416<209.083 249.083> 312.495 126.01<74.0136 107.651> 377.12 61.6298<194.805 291.246>
VStem: 197.833 70<-18.75 -4.16667> 285.106 69.7632<-135.376 -102.861> 377.824 70.3302<315.408 337.05> 389.573 70.5506<108.933 135.038>
Fore
123.667 422.917 m 1xee
 144.025 430.979 167.844 438.743 231.583 438.75 c 0
 344.455 438.75 393.644 413.552 419.702 387.312 c 0
 433.709 373.207 448.155 349.871 448.155 324.229 c 0xde
 448.155 306.587 441.317 287.854 422.795 270.284 c 0
 409.003 257.328 392.31 248.077 375.333 240 c 1
 412.347 222.121 441.968 201.776 455.1 161.25 c 0
 458.621 150.384 460.123 139.966 460.123 130.109 c 0
 460.123 87.7574 432.381 55.7782 417.829 43.1713 c 0
 397.331 25.4139 353.563 0.846026 267.833 -4.58333 c 1
 267.833 -18.75 l 1
 329.029 -38.718 354.87 -81.0624 354.87 -124.659 c 0
 354.675 -187.555 308.193 -235.833 147.417 -235.833 c 0
 121.401 -235.833 109.946 -222.479 109.946 -206.481 c 0
 109.946 -202.754 110.568 -198.882 111.773 -195.003 c 0
 118.972 -171.824 142.483 -174.217 152 -174.167 c 2
 169.5 -173.652 l 2
 266.482 -170.465 285.106 -145.545 285.106 -125.207 c 0
 285.106 -120.474 284.098 -115.988 282.833 -112.083 c 0
 269.925 -70.5996 221.759 -79.4626 207.749 -67.0892 c 0
 198.576 -58.9872 197.833 -51.2967 197.833 -34.1667 c 2
 197.833 -4.16667 l 1
 164.711 -0.77364 89.8076 9.16807 61.1666 74.5834 c 0
 54.16 90.6617 51.3182 103.269 51.3182 113.112 c 0
 51.3182 140.188 72.8174 146.358 88.287 146.358 c 0
 92.7445 146.358 96.7013 145.846 99.4989 145.174 c 0
 140.805 135.248 100.061 92.7948 161.167 67.4155 c 0
 181.88 58.8129 204.87 57.0943 217.417 56.6668 c 2
 236.167 56.6259 l 1
 248.25 56.4743 l 2
 352.453 57.2714 389.573 98.8593 389.573 132.023 c 0xdd
 389.573 136.241 388.972 140.323 387.833 144.167 c 0
 379.528 173.655 347.762 190.476 315.333 198.634 c 0
 292.225 204.448 268.25 206.167 244.5 206.605 c 2
 211.583 206.667 l 2
 182.974 206.721 173.986 222.576 173.986 236.592 c 0
 173.986 242.308 175.481 247.719 177.75 251.626 c 0
 183.778 262.007 191.513 266.893 209.083 267.083 c 2
 249.083 267.083 l 2
 349.818 267.083 372.866 300.521 377 316.25 c 0
 377.512 317.791 377.824 319.678 377.824 321.821 c 0
 377.824 343.941 348.965 377.12 233.527 377.12 c 0xde
 156.083 377.12 141.243 360.995 132.085 344.995 c 0
 122.561 328.248 123.52 312.495 91.7816 312.495 c 0
 50.4729 313.763 59.4128 349.445 57.8333 352.917 c 1
 57.8333 395.417 l 2
 57.8333 417.062 60.0103 438.505 88.017 438.505 c 0
 104.695 438.32 119.432 425.265 123.667 422.917 c 1xee
EndSplineSet
EndChar
StartChar: afii10106
Encoding: 1113 1113 166
Width: 525
Flags: W
HStem: 2.30372e-05 61.6667<232.583 257.167 235.5 376.41> 206.667 60.416<313.833 376.546> 368.75 61.667<76.0157 345.546>
VStem: 113.833 59.147<258.75 290.833 358.404 368.75> 257.167 56.666<61.6667 368.75> 431.018 70.093<102.465 151.112>
Fore
313.833 61.6667 m 1
 348 61.6667 l 2
 364.028 61.6667 392.47 58.741 415.487 88.3333 c 0
 426.152 102.056 431.018 118.083 431.018 133.826 c 0
 431.018 168.398 407.551 201.606 370.5 206.059 c 0
 363.417 206.904 356.319 206.667 349.25 206.667 c 2
 313.833 206.667 l 1
 313.833 61.6667 l 1
87.1666 368.75 m 2
 64.8649 368.75 49.3657 376.007 49.3657 398.641 c 0
 50.2953 434.342 81.5157 429.119 83.4166 430.417 c 1
 334.25 430.417 l 2
 356.842 430.417 375.327 426.826 375.327 400.132 c 0
 374.335 364.509 342.64 370.786 338.417 368.75 c 1
 313.833 368.75 l 1
 313.833 267.083 l 1
 363.833 267.083 l 2
 389.258 267.083 436.38 268.768 473.778 218.333 c 0
 492.563 193 501.111 163.518 501.111 134.566 c 0
 501.111 70.3635 459.074 8.7712 393.417 0.833356 c 0
 386.633 0.013176 379.82 2.30372e-05 373 2.30372e-05 c 2
 235.5 2.30372e-05 l 1
 235.5 2.30372e-05 196.036 1.30588 195.676 31.1793 c 0
 195.676 55.7633 213.193 61.5595 232.583 61.6667 c 2
 257.167 61.6667 l 1
 257.167 368.75 l 1
 172.98 368.75 l 1
 172.98 348.058 173.169 327.358 172.98 306.667 c 2
 172.583 288.333 l 1
 172.541 258.75 l 1
 172.167 245.417 l 2
 153.936 194.595 170.005 -6.78337 78.9796 -7.96144 c 0
 44.0753 -7.96144 19.0232 13.6531 13.9546 55 c 0
 13.4572 59.0576 13.2187 62.8466 13.2187 66.3859 c 0
 13.2187 88.3798 22.4267 100.732 35.9167 108 c 0
 42.374 111.479 49.3204 113.11 56.1678 113.11 c 0
 73.3066 113.11 89.825 102.89 96.5012 85.8333 c 0
 98.3351 81.1482 99.1687 76.1741 100.083 71.25 c 1
 106.019 97.8084 110.298 124.124 112.167 203.75 c 2
 113 248.333 l 1
 113.39 262.5 l 1
 113.39 290.833 l 1
 113.833 309.167 l 2
 114.014 329.025 113.833 348.891 113.833 368.75 c 1
 87.1666 368.75 l 2
EndSplineSet
EndChar
StartChar: afii10104
Encoding: 1111 1111 167
Width: 525
Flags: W
HStem: 7.89836e-05 61.6666<106.21 420.5 106.21 420.5> 368.75 61.667<127.167 273.417> 510.625 99.8709<157.567 192.293 360.995 397.096>
VStem: 122.537 99.5803<548.066 565.735> 239.667 70<61.6667 395.417> 326.538 99.7234<548.189 565.101>
Fore
332.847 584.998 m 0
 342.875 602.609 359.225 610.496 375.493 610.496 c 0
 393.44 610.496 411.288 600.898 420.444 584.166 c 0
 424.402 576.927 426.261 569.027 426.261 561.175 c 0
 426.261 550.749 418.108 510.625 376.085 510.625 c 0
 345.906 510.625 326.538 535.434 326.538 560.944 c 0
 326.538 569.157 328.546 577.444 332.847 584.998 c 0
128.702 584.582 m 0
 138.65 602.344 155.255 610.424 171.777 610.424 c 0
 189.326 610.424 206.781 601.309 216.069 584.998 c 0
 220.19 577.76 222.118 569.742 222.118 561.728 c 0
 222.118 551.507 212.176 510.626 172.409 510.626 c 0
 142.726 510.626 122.537 535.19 122.537 560.941 c 0
 122.537 568.94 124.485 577.054 128.702 584.582 c 0
EndSplineSet
Refer: 24 305 S 1 0 0 1 -6.10352e-05 9.15527e-05 2
EndChar
StartChar: uni049B
Encoding: 1179 1179 168
Width: 525
Flags: W
HStem: -1.07288e-05 61.6662<54.1852 102 55.75 209.884 351.167 457.833> 368.75 61.664<51.8718 206.375 309.754 451.167>
VStem: 102 56.667<61.6662 368.75> 451.167 56.659<-107.214 25.4167>
Fore
472.417 61.6662 m 2
 501.72 61.3556 507.66 46.8164 507.826 25.4167 c 2
 507.826 -102.083 l 2
 507.641 -130.269 494.135 -137.918 481.509 -137.918 c 0
 472.577 -137.918 464.086 -134.091 461.061 -130.997 c 0
 452.003 -122.003 451.167 -116.094 451.167 -98.3333 c 2
 451.167 -1.07288e-05 l 1
 351.167 -1.07288e-05 l 2
 321.092 0.354644 315.567 17.69 315.567 30.7578 c 0
 315.915 64.9607 350.36 60.8421 351.581 61.6662 c 1
 365.75 61.6662 l 1
 242.833 215.833 l 1
 242 215.833 l 1
 158.667 141.25 l 1
 158.667 61.6662 l 1
 202 61.6662 l 2
 215.949 61.6662 231.998 62.3105 240.481 44.9837 c 0
 241.576 42.7462 243.028 37.2707 243.028 30.8446 c 0
 243.028 20.9618 239.595 8.83047 226.155 2.77041 c 0
 220.012 0.000437284 213.185 -1.07288e-05 206.583 -1.07288e-05 c 2
 55.75 -1.07288e-05 l 1
 55.75 -1.07288e-05 17.3601 1.58107 17.2342 30.8761 c 0
 17.2342 37.1478 18.6163 49.857 32 57.6454 c 0
 40.0941 62.2937 49.7037 61.6662 58.6666 61.6662 c 2
 102 61.6662 l 1
 102 368.75 l 1
 58.6666 368.75 l 2
 43.4405 368.75 29.0551 368.756 20.6012 384.583 c 0
 19.272 387.098 17.3071 393.24 17.3071 400.332 c 0
 17.3071 409.514 20.601 420.289 32.8333 426.846 c 0
 39.9066 430.604 47.9937 430.414 55.75 430.414 c 2
 206.167 430.414 l 2
 220.862 430.338 234.875 428.659 241.167 412.077 c 0
 242.654 408.33 243.513 403.953 243.513 399.433 c 0
 243.513 389.375 239.261 378.609 228.217 372.5 c 0
 220.252 368.121 210.75 368.75 202 368.75 c 2
 158.667 368.75 l 1
 158.667 217.083 l 1
 327.833 368.75 l 1
 312.415 368.75 l 2
 285.935 369.181 277.693 383.328 277.693 397.309 c 0
 277.693 407.526 282.095 417.656 286.996 422.278 c 0
 295.334 430.142 304.175 430.414 315.333 430.414 c 2
 448.667 430.414 l 2
 471.476 430.414 486.83 423.987 486.83 399.039 c 0
 486.673 365.728 452.011 369.318 451.167 368.75 c 1
 431.167 368.75 l 2
 415.667 368.75 413.445 368.342 404.5 360.771 c 2
 319.917 285.128 l 2
 308.25 274.735 296.822 264.167 284.917 254.167 c 1
 426.835 76.25 l 2
 438.801 61.4095 438.944 61.6662 457.833 61.6662 c 2
 472.417 61.6662 l 2
EndSplineSet
EndChar
StartChar: uni04A1
Encoding: 1185 1185 169
Width: 525
Flags: W
HStem: -7.58469e-06 61.6666<132.75 268.875 378.583 476.083> 368.75 61.667<60.25 260.979 343.267 457.75>
VStem: 19 70<339.583 395.173> 167.75 56.667<61.6666 368.75>
Fore
295.013 30.8333 m 0
 295.013 7.51562 279.584 -7.58469e-06 258.167 -7.58469e-06 c 2
 132.75 -7.58469e-06 l 1
 132.75 -7.58469e-06 97.2747 1.60301 97.1501 31.0175 c 0
 97.1501 55.5736 113.281 61.6666 135.667 61.6666 c 2
 167.75 61.6666 l 1
 167.75 368.75 l 1
 89 368.75 l 1
 89 339.583 l 2
 89 317.302 84.7448 301.25 53.1667 301.25 c 0
 47.0064 301.25 33.939 301.25 25.0054 313.12 c 0
 18.2867 322.048 19 333.171 19 343.75 c 2
 19 387.917 l 2
 19 402.43 18.2543 418.682 35.6667 427.274 c 0
 43.2504 430.981 52.0571 430.417 60.25 430.417 c 2
 252.333 430.417 l 2
 267.306 430.417 283.861 431.214 292.26 413.318 c 0
 294.015 409.57 295.104 404.767 295.104 399.68 c 0
 295.104 390.576 291.618 380.56 282.236 374.047 c 0
 274.561 368.719 265.459 368.75 256.5 368.75 c 2
 224.417 368.75 l 1
 224.417 227.083 l 1
 354 368.75 l 1
 332.533 368.75 317.593 377.523 317.593 399.126 c 0
 318.968 435.01 347.092 426.362 353.583 430.417 c 1
 457.75 430.417 l 2
 478.778 430.208 493.351 421.854 493.351 399.56 c 0
 493.129 393.994 491.744 379.163 477.726 372.309 c 0
 469.127 368.105 459.571 368.75 450.25 368.75 c 0
 437.617 368.75 433.136 370.385 422.935 359.883 c 0
 420.449 357.324 336.33 264.937 326.5 254.583 c 1
 326.5 253.75 l 1
 331.793 246.408 336.701 238.825 341.653 231.25 c 2
 443.167 75.8333 l 2
 450.717 64.2478 452.333 61.6666 466.083 61.6666 c 2
 476.083 61.6666 l 1
 476.083 61.6666 510.595 60.2318 510.837 31.3157 c 0
 510.837 6.8844 494.761 -6.99361e-06 474.833 -7.58469e-06 c 2
 378.583 -7.58469e-06 l 2
 357.547 -7.58469e-06 341.31 7.27967 341.31 30.4594 c 0
 341.531 36.7395 342.037 48.8344 355.25 57.1608 c 0
 363.979 62.5 374.633 61.6666 384.417 61.6666 c 1
 287.333 210.833 l 1
 272.907 196.145 259.299 180.629 245.428 165.417 c 2
 233.708 152.5 l 2
 224.794 142.303 224.417 139.448 224.417 129.167 c 2
 224.417 61.6666 l 1
 256.5 61.6666 l 2
 277.081 61.6666 295.013 56.6562 295.013 30.8333 c 0
EndSplineSet
EndChar
StartChar: uni049D
Encoding: 1181 1181 170
Width: 525
Flags: W
HStem: -4.52995e-06 61.665<39.0615 179.917 371.167 475.73> 232.083 60.417<142.417 202 262.416 280.75> 368.75 61.663<49.5 187.043 338.665 465.71>
VStem: 85.75 56.667<61.665 368.75> 202 60.416<192.083 232.083 292.5 327.5>
Fore
49.5 -4.52995e-06 m 2
 28.623 -4.52995e-06 12.1641 6.45125 12.1641 30.468 c 0
 13.1782 66.7622 49.5064 60.962 51.1667 61.665 c 1
 85.75 61.665 l 1
 85.75 368.75 l 1
 51.1667 368.75 l 2
 23.6037 368.75 11.6298 381.977 11.6298 398.176 c 0
 11.6298 401.996 12.2957 405.981 13.58 409.997 c 0
 18.9122 426.567 29.9184 430.323 49.5 430.413 c 2
 179.917 430.413 l 1
 179.917 430.413 215.531 429.184 216.01 399.061 c 0
 216.01 373.163 197.087 368.75 177 368.75 c 2
 142.417 368.75 l 1
 142.417 292.5 l 1
 202 292.5 l 1
 202 327.5 l 2
 202 347.992 206.202 357.291 218.25 363.333 c 0
 220.625 364.524 226.271 366.168 232.811 366.168 c 0
 242.354 366.168 253.799 362.667 259.76 349.151 c 0
 262.833 342.083 262.416 334.167 262.416 326.667 c 2
 262.416 292.5 l 1
 275.75 292.5 l 2
 285.308 292.77 288.011 293.422 297 303.333 c 2
 353.667 368.75 l 1
 338.665 368.75 l 2
 313.234 369.043 302.862 384.533 302.862 399.551 c 0
 302.862 404.678 304.071 409.75 306.303 414.144 c 0
 312.088 425.419 321.27 430.298 339.917 430.413 c 2
 456.583 430.413 l 1
 456.583 430.413 491.932 429.043 492.272 399.289 c 0
 492.272 375.724 476.503 368.75 454.917 368.75 c 2
 428.25 368.75 l 1
 337 262.917 l 1
 337 261.667 l 1
 461.583 61.665 l 1
 474.917 61.665 l 2
 495.702 61.482 510.604 53.2304 510.604 31.0287 c 0
 509.707 -3.86545 477.42 1.10723 475.73 -4.52995e-06 c 1
 371.167 -4.52995e-06 l 2
 348.256 0.330207 335.983 13.729 335.983 30.1623 c 0
 335.983 33.6155 336.525 37.2028 337.624 40.8309 c 0
 343.418 59.9582 359.417 61.5642 372.414 61.665 c 2
 386.583 61.665 l 1
 280.75 232.083 l 1
 262.416 232.083 l 1
 262.416 192.917 l 2
 262.416 180.515 263.801 163.676 246.145 154.758 c 0
 242.572 152.979 237.638 151.792 232.331 151.792 c 0
 222.82 151.792 212.109 155.606 205.878 166.667 c 0
 201.548 174.458 202 183.5 202 192.083 c 2
 202 232.083 l 1
 142.417 232.083 l 1
 142.417 61.665 l 1
 177 61.665 l 2
 206.662 61.665 216.711 46.691 216.711 31.9466 c 0
 216.711 26.2488 215.21 20.5852 212.761 15.8333 c 0
 207.169 5.14099 198.084 -4.52995e-06 179.917 -4.52995e-06 c 2
 49.5 -4.52995e-06 l 2
EndSplineSet
EndChar
StartChar: uni04D5
Encoding: 1237 1237 171
Width: 525
Flags: W
HStem: -5.54813 61.2406<139.604 164.65 384.625 403.139> 191.25 60.417<292 472.068> 376.569 61.7453<131.258 192.622 358.883 396.137>
VStem: 32.4826 56.6489<94.247 130.654> 40.5695 88.3215<353.039 395.23>
Fore
233.667 188.75 m 1xf0
 126.056 185.661 89.1315 149.961 89.1315 117.191 c 0
 89.1315 114.915 89.3096 112.653 89.6546 110.417 c 0
 94.5775 78.5084 122.876 55.6925 156.332 55.6925 c 0
 172.968 55.6925 190.879 61.3334 207.825 74.3022 c 0
 236.438 96.2012 233.667 113.644 233.667 188.75 c 1xf0
447 251.667 m 1
 441.989 348.611 407.303 370.734 389.917 375.417 c 0
 387.135 376.166 384.042 376.569 380.716 376.569 c 0
 352.069 376.569 306.155 346.717 292.833 251.667 c 1
 447 251.667 l 1
272.417 367.5 m 1
 301.013 417.051 340.209 438.314 377.557 438.314 c 0
 414.717 438.314 450.048 417.263 471.287 382.083 c 0
 493.525 345.247 505.101 284.736 505.101 243.199 c 0
 505.101 223.999 502.627 208.853 497.59 201.974 c 0
 490.184 191.864 478.387 191.25 465.75 191.25 c 2
 292 191.25 l 1
 300.466 124.862 326.61 93.17 344.5 77.5 c 0
 361.239 62.9665 377.37 56.2988 391.88 56.2988 c 0
 414.399 56.2988 433.016 72.3588 443.95 100 c 0
 447.372 109.122 450.44 137.036 476.102 137.036 c 0
 498.269 136.35 502.931 119.666 502.931 107.78 c 0
 502.931 99.6371 500.958 89.6162 496.36 77.5 c 0
 480.701 36.2328 443.31 -5.30649 389.542 -5.30649 c 0
 385.19 -5.30649 380.731 -5.03434 376.167 -4.46785 c 0
 334.573 0.695021 299.083 28.7501 277 63.3334 c 1
 242.334 13.5008 192.715 -5.54814 150.459 -5.54813 c 0
 130.292 -5.54813 111.803 -1.2092 97.4167 6.19298 c 0
 58.6833 26.1226 32.4826 71.4552 32.4826 117.039 c 0xf0
 32.4826 144.268 41.8318 171.588 63.4438 193.635 c 0
 87.853 218.537 126.695 242.558 234.083 249.583 c 1
 234.083 278.333 l 2
 234.083 320.081 221.292 377.029 153.378 377.029 c 0
 140.18 376.862 133.116 376.107 128.25 375.833 c 1
 128.684 372.357 128.891 369.086 128.891 366.009 c 0
 128.891 344.149 118.47 332.039 105.331 325.286 c 0
 98.6503 321.852 91.757 320.279 85.0719 320.279 c 0
 61.5297 320.279 40.5695 339.791 40.5695 366.286 c 0xe8
 40.5695 424.174 108.141 438.646 154.374 438.646 c 0
 230.869 438.646 261.754 386.285 271.583 367.5 c 1
 272.417 367.5 l 1
EndSplineSet
EndChar
StartChar: uni04A3
Encoding: 1187 1187 172
Width: 525
Flags: W
HStem: -1.07288e-05 61.6662<54.1852 102 55.75 209.884 311.626 457.417 316.268 364.083 318.25 488.065> 206.667 60.416<158.667 364.083> 368.75 61.664<51.8719 206.375 51.8719 206.167 316.583 468.565>
VStem: 102 56.667<61.6662 368.75> 364.083 56.667<61.6662 368.75> 457.417 56.666<-112.123 24.1666>
Fore
473.667 61.6662 m 2
 502.464 61.6662 513.938 55.2592 514.083 24.1666 c 2
 514.083 -95 l 2
 514.083 -112.059 514.482 -132.509 491.582 -137.646 c 0
 489.107 -138.197 486.698 -138.477 484.38 -138.477 c 0
 468.851 -138.477 457.417 -125.913 457.417 -98.3333 c 2
 457.417 -1.07288e-05 l 1
 318.25 -1.07288e-05 l 2
 305.003 -1.07288e-05 288.889 0.704241 281.707 17.9167 c 0
 280.123 21.7126 279.194 26.2279 279.194 30.9142 c 0
 279.194 40.7665 283.303 51.375 294.083 57.6454 c 0
 302.177 62.2937 311.787 61.6662 320.75 61.6662 c 2
 364.083 61.6662 l 1
 364.083 206.667 l 1
 158.667 206.667 l 1
 158.667 61.6662 l 1
 202 61.6662 l 2
 215.949 61.6662 231.998 62.3105 240.481 44.9837 c 0
 241.576 42.7462 243.028 37.2707 243.028 30.8446 c 0
 243.028 20.9618 239.595 8.83047 226.155 2.77041 c 0
 220.012 0.000437284 213.185 -1.07288e-05 206.583 -1.07288e-05 c 2
 55.75 -1.07288e-05 l 1
 55.75 -1.07288e-05 17.3602 1.58104 17.2343 30.8767 c 0
 17.2343 37.1486 18.6168 49.8572 32 57.6454 c 0
 40.0942 62.2937 49.7038 61.6662 58.6667 61.6662 c 2
 102 61.6662 l 1
 102 368.75 l 1
 58.6667 368.75 l 2
 43.4405 368.75 29.0551 368.756 20.6013 384.583 c 0
 19.2721 387.098 17.3072 393.24 17.3072 400.332 c 0
 17.3072 409.514 20.6011 420.289 32.8333 426.846 c 0
 39.9067 430.604 47.9938 430.414 55.75 430.414 c 2
 206.167 430.414 l 2
 220.862 430.338 234.875 428.659 241.167 412.077 c 0
 242.654 408.33 243.514 403.952 243.514 399.432 c 0
 243.514 389.374 239.261 378.609 228.217 372.5 c 0
 220.253 368.121 210.75 368.75 202 368.75 c 2
 158.667 368.75 l 1
 158.667 267.083 l 1
 364.083 267.083 l 1
 364.083 368.75 l 1
 320.75 368.75 l 2
 306.56 368.75 290.667 368.236 282.269 385.417 c 0
 281.176 387.653 279.74 393.136 279.74 399.565 c 0
 279.74 409.495 283.167 421.682 296.583 427.646 c 0
 302.833 430.417 309.85 430.38 316.583 430.414 c 2
 467 430.414 l 1
 467 430.414 505.259 428.991 505.517 399.52 c 0
 505.517 392.906 503.926 380.399 490.711 372.771 c 0
 482.656 368.123 473.046 368.75 464.083 368.75 c 2
 420.75 368.75 l 1
 420.75 61.6662 l 1
 473.667 61.6662 l 2
EndSplineSet
EndChar
StartChar: uni04A5
Encoding: 1189 1189 173
Width: 525
Flags: W
HStem: -7.56979e-06 61.6642<37.5568 170.417 45.8332 179.882 256.941 299.583 266.667 391.25> 206.667 60.416<137.5 299.583> 368.75 61.667<45.8332 170.417 267.917 463.75>
VStem: 80.8333 56.6667<61.6642 368.75> 299.583 56.667<61.6642 368.75> 435 70<328.802 388.75>
Fore
169.167 61.6642 m 2
 190.597 61.6642 207.249 55.4441 207.249 31.1736 c 0
 206.169 -4.31753 176.189 2.85557 170.417 -7.56979e-06 c 1
 45.8332 -7.56979e-06 l 1
 45.8332 -7.56979e-06 10.3583 1.60213 10.2335 31.0086 c 0
 10.2335 55.3811 26.3636 61.6642 48.7499 61.6642 c 2
 80.8333 61.6642 l 1
 80.8333 368.75 l 1
 48.7499 368.75 l 2
 26.8979 368.75 10.2335 374.656 10.2335 399.409 c 0
 10.5818 433.91 44.3782 429.431 45.8332 430.417 c 1
 170.417 430.417 l 2
 192.268 430.284 207.248 422.163 207.248 399.849 c 0
 206.16 364.389 172.952 370.482 169.167 368.75 c 1
 137.5 368.75 l 1
 137.5 267.083 l 1
 299.583 267.083 l 1
 299.583 368.75 l 1
 267.917 368.75 l 2
 246.134 368.75 229.835 375.529 229.835 399.274 c 0
 230.198 417.348 240.585 426.007 250.833 428.988 c 0
 257.88 431.035 265.664 430.417 272.917 430.417 c 2
 463.75 430.417 l 2
 493.141 430.417 505 425.99 505 388.75 c 2
 505 343.75 l 2
 506.08 310.678 491.333 301.25 470.833 301.25 c 0
 439.031 301.25 435 318.021 435 339.583 c 2
 435 368.75 l 1
 356.25 368.75 l 1
 356.25 61.6642 l 1
 388.333 61.6642 l 2
 411.071 61.6642 426.852 54.8915 426.852 31.1623 c 0
 426.173 -3.86309 393.441 1.47349 391.25 -7.56979e-06 c 1
 266.667 -7.56979e-06 l 1
 266.667 -7.56979e-06 230.092 1.45444 229.834 31.1714 c 0
 229.834 55.0754 245.964 61.6642 267.917 61.6642 c 2
 299.583 61.6642 l 1
 299.583 206.667 l 1
 137.5 206.667 l 1
 137.5 61.6642 l 1
 169.167 61.6642 l 2
EndSplineSet
EndChar
StartChar: afii10102
Encoding: 1109 1109 174
Width: 525
Flags: W
HStem: -5.95082 62.1293<250.519 295.623> 377.046 62.2655<221.957 281.314>
VStem: 72.6708 61.4122<311.263 338.12> 397.01 62.0098<105.823 130.267>
Fore
139.083 32.4999 m 1
 131.225 12.6525 128.216 7.24947 122.833 2.38237 c 0
 117.266 -2.65127 109.735 -5.27704 102.158 -5.27704 c 0
 91.5257 -5.27704 80.8029 -0.107619 75.2896 10.8332 c 0
 72.1683 17.0832 72 24.0203 72 30.8332 c 2
 72 109.167 l 2
 72 135.228 67.4344 158.121 88.25 168.737 c 0
 91.6633 170.477 99.0308 172.367 107.293 172.367 c 0
 117.924 172.367 130.037 169.239 137.113 158.639 c 0
 146.561 144.486 150.476 98.7693 196.583 72.4315 c 0
 218.001 60.1978 245.819 56.1784 271.816 56.1784 c 0
 299.431 56.1784 324.991 60.7135 338.645 64.7557 c 0
 381.795 77.5715 397.01 103.111 397.01 124.824 c 0
 397.01 133.106 394.796 140.832 391.074 147.082 c 0
 371.902 178.628 322.96 188.661 283.667 195.114 c 2
 229.917 203.94 l 2
 173.334 213.232 118.855 226.449 89.1783 267.5 c 0
 79.7642 280.524 72.6708 300.407 72.6708 322.118 c 0
 72.6708 353.608 87.593 388.944 132 412.778 c 0
 155.963 425.639 205.638 439.312 260.604 439.312 c 0
 296.4 439.312 334.439 433.513 369.083 417.917 c 1
 377.901 433.339 389.028 439.021 399.255 439.021 c 0
 410.734 439.021 421.078 431.864 425.75 423.286 c 0
 428.985 417.346 429.405 410.765 429.499 404.167 c 2
 429.499 328.75 l 1
 429.499 328.75 427.707 288.845 395.639 288.748 c 0
 355.836 288.748 361.106 316.131 357.912 330.417 c 0
 349.218 369.298 302.164 377.046 260.463 377.046 c 0
 183.45 377.046 134.083 354.989 134.083 321.25 c 0
 135.194 296.44 156.999 278.432 244.5 264.044 c 2
 295.333 255.686 l 2
 326.468 250.566 431.463 235.929 455.062 154.167 c 0
 457.632 145.14 459.02 135.341 459.02 125.192 c 0
 459.02 86.4547 438.806 42.6285 387 17.2712 c 0
 357.161 2.66751 316.567 -5.95082 274.679 -5.95082 c 0
 226.358 -5.95082 176.316 5.51866 139.083 32.4999 c 1
EndSplineSet
EndChar
StartChar: uni04E9
Encoding: 1257 1257 175
Width: 525
Flags: W
HStem: -5.4092 61.8416<207.44 302.212> 206.667 60.416<126.833 396.417> 377.057 61.9737<223.18 289.369>
Fore
396.417 206.667 m 1
 126.833 206.667 l 1
 133.384 123.147 186.205 69.3326 240.583 58.3333 c 0
 247.072 57.1097 253.997 56.4324 261.2 56.4324 c 0
 299.452 56.4324 345.547 75.5314 375.884 133.333 c 0
 387.8 156.038 394.333 181.176 396.417 206.667 c 1
391.833 267.083 m 1
 370.601 340.394 316.589 377.057 262.15 377.057 c 0
 237.05 377.057 211.86 369.264 189.75 353.675 c 0
 158.849 331.889 141.368 301.692 131.417 267.083 c 1
 391.833 267.083 l 1
87.935 335 m 0
 121.199 391.854 185.334 439.031 261.026 439.031 c 0
 281.416 439.031 302.644 435.608 324.333 428.028 c 0
 422.662 393.65 466.837 299.158 466.837 213.565 c 0
 466.837 193.539 464.418 174.001 459.71 155.833 c 0
 432.086 49.2408 343.921 -5.4092 260.503 -5.4092 c 0
 154.376 -5.4092 94.3158 79.3661 76.6 118.75 c 0
 62.9005 149.205 56.1025 182.416 56.1025 215.62 c 0
 56.1025 257.237 66.7812 298.843 87.935 335 c 0
EndSplineSet
EndChar
StartChar: uni04AB
Encoding: 1195 1195 176
Width: 525
Flags: W
HStem: -235.833 61.666<192.441 242.716> 378.472 60.2782<287.932 342.494>
VStem: 72.8714 69.1865<200.087 244.245> 255.333 70<-33.3333 -2.5> 342.947 70.6667<-143.991 -113.683>
Fore
255.333 -2.5 m 1
 139.959 18.2246 96.3299 105.84 83.3342 145 c 0
 78.0839 160.845 72.8714 186.3 72.8714 216.148 c 0
 72.8714 272.343 91.3475 344.11 162.833 396.632 c 0
 203.593 426.52 246.284 438.741 299.083 438.75 c 0
 385.905 438.75 452.41 427.153 453.433 365.828 c 0
 453.433 341.251 438.043 329.907 430.33 325.721 c 0
 423.694 322.119 416.558 320.444 409.523 320.444 c 0
 387.95 320.444 367.32 336.193 364.917 360.41 c 0
 364.578 364.583 364.917 368.731 365.333 372.917 c 1
 353.063 374.777 332.298 378.472 307.964 378.472 c 0
 267.9 378.472 218.159 368.456 180.72 323.748 c 0
 155.71 293.882 142.058 254.935 142.058 216.033 c 0
 142.058 184.14 173.027 57.1908 300.012 56.5694 c 0
 319.125 56.5694 366.873 60.3372 390.51 104.167 c 0
 400.536 122.756 400.476 137.44 430.464 137.467 c 0
 454.321 137.467 464.759 125.816 464.759 109.26 c 0
 464.759 77.2961 425.854 27.0502 369.5 7.06706 c 0
 355.16 1.98248 340.333 -0.994606 325.333 -3.33336 c 1
 325.333 -18.75 l 1
 354.069 -27.599 375.565 -41.4614 391.762 -62.5004 c 0
 406.288 -81.3694 413.614 -103.02 413.614 -124.347 c 0
 413.614 -163.636 388.753 -201.828 338.25 -219.512 c 0
 319.727 -225.998 280.099 -235.833 205.333 -235.833 c 0
 179.548 -235.833 167.806 -222.644 167.806 -206.465 c 0
 167.806 -202.76 168.422 -198.898 169.626 -195.002 c 0
 176.786 -171.834 200.386 -174.215 209.917 -174.167 c 2
 227.417 -173.65 l 2
 323.936 -170.547 342.947 -145.926 342.947 -125.187 c 0
 342.947 -120.689 342.053 -116.374 340.861 -112.5 c 0
 326.755 -66.6596 265.862 -83.9759 257.282 -54.5833 c 0
 255.253 -47.6229 255.333 -40.5208 255.333 -33.3333 c 2
 255.333 -2.5 l 1
EndSplineSet
EndChar
StartChar: afii10110
Encoding: 1118 1118 177
Width: 525
Flags: W
HStem: 370 61<57.9999 190.5 335.5 468 343 468> 492.917 63.286<233.921 292.76>
VStem: 42.9999 87<-167 -132.5> 110.474 99.249<582.839 626.282> 313.57 99.951<598.987 616.783>
Fore
185.833 563.333 m 1xd8
 209.987 556.879 234.826 556.203 253.58 556.203 c 0
 329.108 556.203 322.944 561.564 337.5 563.75 c 1
 320.493 576.371 313.57 591.716 313.57 606.259 c 0
 313.57 627.307 328.072 646.677 347.5 653.682 c 0
 352.673 655.487 358.052 656.354 363.408 656.354 c 0
 389.361 656.354 414.765 635.998 413.521 603.333 c 2
 412.625 593.333 l 2
 411.823 576.987 420.822 539.747 375.417 513.231 c 0
 356.497 502.181 325.104 492.917 260.417 492.917 c 0
 207.424 492.917 153.382 498.244 125.833 531.667 c 0
 106.321 555.339 110.474 575.995 110.474 589.684 c 0
 110.474 599.104 109.858 600.119 109.858 605.143 c 0
 109.858 625.822 120.953 648.438 147.917 655 c 0
 151.717 655.925 155.546 656.368 159.334 656.368 c 0
 169.412 656.368 209.723 646.339 209.723 606.226 c 0
 209.723 581.637 191.721 567.976 185.833 563.333 c 1xd8
EndSplineSet
Refer: 120 121 S 1 0 0 1 -0.00012207 0.00012207 2
EndChar
StartChar: uni04AF
Encoding: 1199 1199 178
Width: 525
Flags: W
HStem: -222.083 61.666<176.241 227.5 177.917 354.75> 368.75 61.663<49.5585 207.014 320.417 478.568>
VStem: 227.5 70<-160.417 -20.8333>
Fore
92.5 368.75 m 1
 55 368.75 l 2
 40.3158 368.75 26.2798 369.151 18.2896 385 c 0
 16.0721 389.445 14.9787 394.404 14.9787 399.367 c 0
 14.9787 411.101 21.0933 422.854 32.9167 427.877 c 0
 39.2379 430.544 46.2004 430.413 52.9167 430.413 c 2
 204.167 430.413 l 2
 224.755 430.413 233.1 425.3 238.75 414.547 c 0
 240.035 412.102 241.918 406.022 241.918 398.981 c 0
 241.918 389.86 238.758 379.125 227.045 372.588 c 0
 219.656 368.463 211.11 368.75 202.917 368.75 c 2
 167.083 368.75 l 1
 230.555 188.75 l 1
 249.036 130 l 1
 260.247 85.8333 l 1
 262.5 70 l 1
 264.361 84.1667 l 1
 275.09 127.5 l 1
 293.612 186.667 l 1
 357.5 368.75 l 1
 322.083 368.75 l 2
 291.243 368.75 282.608 379.668 282.608 398.198 c 0
 283.62 436.37 312.814 426.928 320.417 430.413 c 1
 471.667 430.413 l 2
 498.66 430.413 509.813 416.471 509.813 400.74 c 0
 509.813 396.93 509.159 393.014 507.917 389.167 c 0
 501.928 369.6 487.552 368.75 469.583 368.75 c 2
 432.083 368.75 l 1
 303.67 16.6667 l 1
 298.403 0.41666 l 1
 297.5 -20.8333 l 1
 297.5 -160.417 l 1
 344.167 -160.417 l 2
 375.897 -159.088 387.067 -174.851 387.067 -190.59 c 0
 387.067 -195.268 386.08 -199.943 384.354 -204.167 c 0
 377.41 -221.089 361.166 -222.083 348.333 -222.083 c 2
 177.917 -222.083 l 2
 170.833 -222.083 152.429 -223.589 142.5 -207.917 c 0
 140.858 -205.211 138.255 -198.165 138.255 -190.161 c 0
 138.255 -181.125 141.572 -170.868 153.333 -164.254 c 0
 161.667 -159.614 171.65 -160.417 180.833 -160.417 c 2
 227.5 -160.417 l 1
 227.5 -21.25 l 1
 226.667 -1.90735e-06 l 1
 92.5 368.75 l 1
EndSplineSet
EndChar
StartChar: uni04B1
Encoding: 1201 1201 179
Width: 525
Flags: W
HStem: -222.083 61.666<176.241 227.5 177.917 354.75> -61.6667 61.6667<128.294 227.5 297.5 386.25> 368.75 61.663<49.5585 207.014 49.5585 204.167 320.417 478.568>
VStem: 227.5 70<-160.417 -61.6667>
Fore
138.75 -61.6667 m 2
 117.839 -61.6667 103.082 -53.2202 103.082 -31.1129 c 0
 104.034 4.33963 136.794 -1.2942 138.75 -7.62939e-06 c 1
 227.5 -7.62939e-06 l 1
 92.5 368.75 l 1
 55 368.75 l 2
 40.3158 368.75 26.2798 369.151 18.2896 385 c 0
 16.0721 389.445 14.9787 394.404 14.9787 399.367 c 0
 14.9787 411.101 21.0933 422.854 32.9166 427.877 c 0
 39.2379 430.544 46.2004 430.413 52.9166 430.413 c 2
 204.167 430.413 l 2
 224.755 430.413 233.1 425.3 238.75 414.547 c 0
 240.035 412.102 241.918 406.022 241.918 398.981 c 0
 241.918 389.86 238.758 379.125 227.045 372.588 c 0
 219.656 368.463 211.11 368.75 202.917 368.75 c 2
 167.083 368.75 l 1
 230.555 188.75 l 1
 249.036 130 l 1
 260.247 85.8333 l 1
 262.5 70 l 1
 264.361 84.1667 l 1
 275.09 127.5 l 1
 293.612 186.667 l 1
 357.5 368.75 l 1
 322.083 368.75 l 2
 291.243 368.75 282.608 379.668 282.608 398.198 c 0
 283.62 436.37 312.814 426.928 320.417 430.413 c 1
 471.667 430.413 l 2
 498.66 430.413 509.813 416.471 509.813 400.74 c 0
 509.813 396.93 509.159 393.014 507.917 389.167 c 0
 501.928 369.6 487.552 368.75 469.583 368.75 c 2
 432.083 368.75 l 1
 297.5 -7.62939e-06 l 1
 386.25 -7.62939e-06 l 1
 386.25 -7.62939e-06 421.151 -1.36232 421.503 -31.128 c 0
 421.503 -54.5173 405.458 -61.6667 385.833 -61.6667 c 2
 297.5 -61.6667 l 1
 297.5 -160.417 l 1
 344.167 -160.417 l 2
 375.897 -159.088 387.067 -174.851 387.067 -190.59 c 0
 387.067 -195.268 386.08 -199.943 384.354 -204.167 c 0
 377.41 -221.089 361.166 -222.083 348.333 -222.083 c 2
 177.917 -222.083 l 2
 170.833 -222.083 152.429 -223.589 142.5 -207.917 c 0
 140.858 -205.211 138.255 -198.165 138.255 -190.161 c 0
 138.255 -181.125 141.572 -170.868 153.333 -164.254 c 0
 161.667 -159.614 171.65 -160.417 180.833 -160.417 c 2
 227.5 -160.417 l 1
 227.5 -61.6667 l 1
 138.75 -61.6667 l 2
EndSplineSet
EndChar
StartChar: uni04B3
Encoding: 1203 1203 180
Width: 525
Flags: W
HStem: 1.3262e-06 61.6666<52.3537 107.417 62.4167 191.426 322.504 333.25 322.504 444.083> 368.75 61.663<68.25 196.167 317.415 452.742>
VStem: 444.083 56.66<-107.214 25>
Fore
333.25 1.3262e-06 m 2
 311.757 1.3262e-06 296.835 8.24145 296.835 30.5672 c 0
 297.527 65.5457 331.112 60.523 332.831 61.6666 c 1
 347 61.6666 l 1
 258.667 183.75 l 1
 173.667 61.6666 l 1
 189.5 61.6666 l 2
 219.609 61.3582 224.411 44.4882 224.754 32.0833 c 0
 224.891 27.1449 224.845 14.1159 212.299 5.38042 c 0
 204.735 0.114346 195.851 1.3262e-06 187 1.3262e-06 c 2
 62.4167 1.3262e-06 l 1
 62.4167 1.3262e-06 27.692 1.19173 27.1447 31.6468 c 0
 27.1447 50.5682 37.2908 61.6666 67.4167 61.6666 c 2
 107.417 61.6666 l 1
 230.75 222.083 l 1
 114.083 368.75 l 1
 73.6667 368.75 l 2
 60.5417 368.75 44.9103 368.123 36.1667 385 c 0
 33.8971 389.506 33.045 394.581 33.045 399.583 c 0
 33.045 411.915 38.0309 430.069 68.25 430.413 c 2
 192.833 430.413 l 2
 213.895 430.413 230.912 424.825 230.912 399.583 c 0
 230.912 387.635 226.11 369.228 196.167 368.75 c 2
 183.25 368.75 l 1
 259.083 269.583 l 1
 332 368.75 l 1
 317.415 368.75 l 2
 291.029 369.198 282.82 383.761 282.82 397.843 c 0
 282.82 407.342 286.555 416.622 290.967 421.203 c 0
 298.528 429.052 306.876 430.282 317.833 430.413 c 2
 443.25 430.413 l 2
 472.026 430.413 481.044 414.303 481.044 399.889 c 0
 481.044 392.919 478.935 386.346 475.932 382.182 c 0
 468.749 372.223 461.816 368.75 443.667 368.75 c 2
 420.333 368.75 l 2
 405.913 368.75 402.074 370.012 393.19 359.087 c 2
 287 221.667 l 1
 405.665 72.5 l 2
 413.959 62.5751 416.613 62.0154 426.583 61.6666 c 2
 459.5 61.6666 l 2
 486.823 61.6666 500.532 57.0885 500.743 25 c 2
 500.743 -102.083 l 2
 500.558 -130.269 487.052 -137.918 474.425 -137.918 c 0
 465.494 -137.918 457.002 -134.091 453.978 -130.997 c 0
 444.919 -122.003 444.083 -116.094 444.083 -98.3334 c 2
 444.083 1.3262e-06 l 1
 333.25 1.3262e-06 l 2
EndSplineSet
EndChar
StartChar: afii10193
Encoding: 1119 1119 181
Width: 525
Flags: W
HStem: -4.69387e-06 61.6667<49.5 473.25> 368.75 61.664<51.8717 206.375 316.583 468.565>
VStem: 102 56.667<61.6667 368.75> 232.833 57.084<-96.25 -4.69387e-06> 364.083 56.667<61.6667 368.75>
Fore
102 368.75 m 1
 58.6666 368.75 l 2
 43.4404 368.75 29.055 368.756 20.6011 384.583 c 0
 19.2719 387.098 17.3071 393.24 17.3071 400.332 c 0
 17.3071 409.514 20.601 420.289 32.8332 426.846 c 0
 39.9066 430.604 47.9936 430.414 55.7499 430.414 c 2
 206.167 430.414 l 2
 220.862 430.338 234.875 428.66 241.167 412.077 c 0
 242.654 408.33 243.513 403.953 243.513 399.433 c 0
 243.513 389.375 239.261 378.609 228.217 372.5 c 0
 220.252 368.121 210.75 368.75 202 368.75 c 2
 158.667 368.75 l 1
 158.667 61.6667 l 1
 364.083 61.6667 l 1
 364.083 368.75 l 1
 320.75 368.75 l 2
 306.56 368.75 290.666 368.236 282.269 385.417 c 0
 281.176 387.653 279.74 393.136 279.74 399.565 c 0
 279.74 409.495 283.167 421.682 296.583 427.646 c 0
 302.833 430.417 309.85 430.38 316.583 430.414 c 2
 467 430.414 l 1
 467 430.414 505.237 428.988 505.492 399.517 c 0
 505.492 392.902 503.914 380.392 490.71 372.771 c 0
 482.656 368.123 473.046 368.75 464.083 368.75 c 2
 420.75 368.75 l 1
 420.75 61.6667 l 1
 464.5 61.6667 l 2
 495.58 61.6667 505.525 51.032 505.525 31.4607 c 0
 504.393 -2.26576 474.645 0.890042 473.25 -4.69387e-06 c 1
 289.917 -4.69387e-06 l 1
 289.917 -96.25 l 2
 289.917 -101.921 290.787 -114.642 285.996 -123.333 c 0
 280.21 -133.45 270.77 -138.312 261.396 -138.312 c 0
 251.899 -138.312 242.471 -133.321 236.98 -123.75 c 0
 232.007 -115.373 232.833 -102.695 232.833 -96.25 c 2
 232.833 -4.69387e-06 l 1
 49.5 -4.69387e-06 l 1
 49.5 -4.69387e-06 17.8381 1.13442 17.2201 31.1072 c 0
 17.2201 37.4935 18.8134 49.6721 31.5833 57.4075 c 0
 39.66 62.2217 49.2417 61.6667 58.25 61.6667 c 2
 102 61.6667 l 1
 102 368.75 l 1
EndSplineSet
EndChar
StartChar: uni04B9
Encoding: 1209 1209 182
Width: 525
Flags: W
HStem: -1.83582e-05 61.6662<316.268 364.083 317.833 471.968> 167.5 60.417<221.262 231.167 291.583 364.083> 368.75 61.664<51.8718 206.583 313.955 468.667 313.955 468.667>
VStem: 102 56.667<310.417 368.75> 231.167 60.416<130 167.5 227.917 265.417> 364.083 56.667<61.6662 368.75>
Fore
102 368.75 m 1
 58.6666 368.75 l 2
 43.4405 368.75 29.0551 368.756 20.6012 384.583 c 0
 19.272 387.098 17.3071 393.24 17.3071 400.332 c 0
 17.3071 409.514 20.601 420.289 32.8333 426.846 c 0
 39.9066 430.604 47.9937 430.414 55.75 430.414 c 2
 206.583 430.414 l 2
 220.677 430.329 234.858 428.705 241.167 412.077 c 0
 242.654 408.33 243.513 403.952 243.513 399.432 c 0
 243.513 389.375 239.261 378.609 228.217 372.5 c 0
 220.252 368.121 210.75 368.75 202 368.75 c 2
 158.667 368.75 l 1
 158.667 310.417 l 2
 158.667 293.555 156.852 261.359 185.75 239.418 c 0
 200.875 228.065 213.568 227.917 231.167 227.917 c 1
 231.167 265.417 l 2
 231.167 280.142 232.342 295.405 247.833 302.231 c 0
 250.1 303.222 255.333 304.565 261.455 304.565 c 0
 271.11 304.565 282.976 301.225 288.907 287.899 c 0
 292.139 280.636 291.583 272.344 291.583 264.583 c 2
 291.583 227.917 l 1
 364.083 227.917 l 1
 364.083 368.75 l 1
 320.75 368.75 l 2
 305.524 368.75 291.138 368.756 282.685 384.583 c 0
 281.355 387.098 279.391 393.24 279.391 400.332 c 0
 279.391 409.514 282.685 420.289 294.917 426.846 c 0
 301.99 430.604 310.077 430.414 317.833 430.414 c 2
 468.667 430.414 l 2
 482.761 430.329 496.941 428.705 503.25 412.077 c 0
 504.737 408.33 505.596 403.952 505.596 399.432 c 0
 505.596 389.374 501.344 378.609 490.3 372.5 c 0
 482.336 368.121 472.833 368.75 464.083 368.75 c 2
 420.75 368.75 l 1
 420.75 61.6662 l 1
 464.083 61.6662 l 2
 478.033 61.6662 494.081 62.3105 502.564 44.9837 c 0
 503.659 42.7461 505.111 37.2706 505.111 30.8444 c 0
 505.111 20.9621 501.678 8.83157 488.238 2.7704 c 0
 482.095 5.97253e-05 475.269 -1.83582e-05 468.667 -1.83582e-05 c 2
 317.833 -1.83582e-05 l 1
 317.833 -1.83582e-05 279.472 1.54627 279.318 30.8748 c 0
 279.318 37.1464 280.699 49.8564 294.083 57.6454 c 0
 302.177 62.2937 311.787 61.6662 320.75 61.6662 c 2
 364.083 61.6662 l 1
 364.083 167.5 l 1
 291.583 167.5 l 1
 291.583 130.833 l 2
 291.583 115.021 290.843 99.3474 273.244 92.5 c 0
 269.704 91.1359 265.568 90.3273 261.275 90.3273 c 0
 251.76 90.3273 241.477 94.2992 235.222 105 c 0
 230.82 112.641 231.167 121.52 231.167 130 c 2
 231.167 167.5 l 1
 211.357 167.5 168.787 165.431 132.118 209.583 c 0
 104.474 242.876 102 276.128 102 315 c 2
 102 368.75 l 1
EndSplineSet
EndChar
StartChar: uni04B7
Encoding: 1207 1207 183
Width: 525
Flags: W
HStem: 3.11434e-05 61.6663<311.626 457.417 316.268 364.083 318.25 488.065> 167.5 60.417<227.417 364.083> 368.75 61.664<51.8719 206.375 51.8719 206.167 316.583 468.565>
VStem: 102 56.667<301.018 368.75> 364.083 56.667<61.6663 368.75> 457.417 56.666<-112.123 24.1667>
Fore
473.667 61.6663 m 2
 502.464 61.6663 513.938 55.2593 514.083 24.1667 c 2
 514.083 -95 l 2
 514.083 -112.058 514.482 -132.509 491.582 -137.646 c 0
 489.107 -138.197 486.698 -138.477 484.38 -138.477 c 0
 468.851 -138.477 457.417 -125.913 457.417 -98.3333 c 2
 457.417 3.11434e-05 l 1
 318.25 3.11434e-05 l 2
 305.003 3.11434e-05 288.889 0.704281 281.707 17.9167 c 0
 280.123 21.7126 279.194 26.2279 279.194 30.9142 c 0
 279.194 40.7665 283.303 51.3751 294.083 57.6454 c 0
 302.177 62.2938 311.787 61.6663 320.75 61.6663 c 2
 364.083 61.6663 l 1
 364.083 167.5 l 1
 230.75 167.5 l 2
 220.283 167.5 209.846 167.389 199.5 169.167 c 0
 150.655 177.936 105.874 223.142 102.262 288.333 c 0
 101.778 297.064 102 305.833 102 314.583 c 2
 102 368.75 l 1
 58.6667 368.75 l 2
 43.4405 368.75 29.0552 368.756 20.6013 384.583 c 0
 19.2721 387.098 17.3072 393.24 17.3072 400.332 c 0
 17.3072 409.514 20.6011 420.289 32.8334 426.846 c 0
 39.9067 430.604 47.9938 430.414 55.75 430.414 c 2
 206.167 430.414 l 2
 220.862 430.338 234.875 428.66 241.167 412.077 c 0
 242.655 408.33 243.514 403.952 243.514 399.432 c 0
 243.514 389.374 239.261 378.609 228.218 372.5 c 0
 220.253 368.121 210.75 368.75 202 368.75 c 2
 158.667 368.75 l 1
 158.667 313.333 l 2
 158.667 288.704 158.211 268.323 176.82 247.654 c 0
 196.3 226.018 217.93 227.917 227.417 227.917 c 2
 364.083 227.917 l 1
 364.083 368.75 l 1
 320.75 368.75 l 2
 306.56 368.75 290.667 368.236 282.269 385.417 c 0
 281.176 387.653 279.74 393.136 279.74 399.565 c 0
 279.74 409.495 283.167 421.682 296.583 427.646 c 0
 302.833 430.417 309.85 430.38 316.583 430.414 c 2
 467 430.414 l 1
 467 430.414 505.259 428.991 505.517 399.52 c 0
 505.517 392.906 503.926 380.399 490.711 372.771 c 0
 482.656 368.123 473.046 368.75 464.083 368.75 c 2
 420.75 368.75 l 1
 420.75 61.6663 l 1
 473.667 61.6663 l 2
EndSplineSet
EndChar
StartChar: afii10101
Encoding: 1108 1108 184
Width: 525
Flags: W
HStem: -5.70826 61.9058<260.009 307.486> 206.667 60.416<142.417 322.417> 377.098 61.5543<266.507 310.275>
Fore
142.417 206.667 m 1
 145.409 156.206 170.341 111.978 210.333 84.0992 c 0
 236.474 65.8764 268.546 56.1976 299.036 56.1976 c 0
 315.936 56.1976 332.35 59.1709 347 65.3109 c 0
 408.14 90.9362 382.175 137.287 429.513 137.461 c 0
 454.469 137.461 464.775 127.197 464.775 111.476 c 0
 464.775 103.227 461.938 93.4758 456.891 82.9167 c 0
 429.609 25.8381 364.43 -5.70825 294.961 -5.70826 c 0
 225.057 -5.70826 150.808 26.2352 106.457 96.2501 c 0
 83.2632 132.865 72.1016 174.309 72.1016 215.475 c 0
 72.1016 294.702 113.442 372.899 189.917 413.669 c 0
 221.201 430.347 256.853 438.652 291.974 438.652 c 0
 328.575 438.652 364.599 429.632 394.5 411.667 c 1
 406.167 421.803 l 2
 417.832 431.835 428.288 435.81 437.056 435.81 c 0
 450.112 435.81 459.428 426.998 463.423 416.244 c 0
 466.05 408.75 465.333 400.303 465.333 392.5 c 2
 465.333 331.667 l 1
 465.333 331.667 463.548 290.518 431.397 290.415 c 0
 383.712 290.415 409.173 326.726 356.583 359.167 c 0
 337.012 371.24 314.653 377.098 291.913 377.098 c 0
 241.101 377.098 188.384 347.85 160.616 293.333 c 0
 156.31 284.878 152.911 276.075 149.917 267.083 c 1
 309.083 267.083 l 2
 318.052 267.083 351.914 271.905 358.564 247.08 c 0
 359.642 243.054 360.188 239.196 360.188 235.572 c 0
 360.188 218.542 348.122 206.667 322.417 206.667 c 2
 142.417 206.667 l 1
EndSplineSet
EndChar
StartChar: afii10846
Encoding: 1241 1241 185
Width: 525
Flags: W
HStem: -5.45798 61.9249<230.728 261.109> 163.333 60.417<81.3334 386.333> 373.619 63.0907<217.478 280.507>
Fore
378.833 163.333 m 1
 115.083 163.333 l 1
 122.834 115.105 144.427 70.0655 210.5 58.7296 c 0
 219.173 57.2415 228.058 56.4669 237.013 56.4669 c 0
 285.206 56.4669 335.436 78.9045 365.752 133.333 c 0
 371.09 142.917 375.166 153.01 378.833 163.333 c 1
386.333 223.75 m 1
 380.285 321.538 303.237 373.619 226.114 373.619 c 0
 208.842 373.619 191.566 371.007 175.083 365.711 c 0
 115.797 346.662 143.642 314.213 98.2059 314.167 c 0
 69.3316 314.167 62.5834 325.468 62.5834 355 c 2
 62.5834 400 l 2
 62.5834 425.17 77.7009 435.623 92.8745 435.623 c 0
 98.4333 435.623 104 434.22 108.833 431.624 c 0
 119.938 425.555 122.793 418.915 131.143 418.915 c 0
 133.462 418.915 136.205 419.427 139.667 420.606 c 2
 149.25 423.87 l 2
 176.918 432.567 204.371 436.71 230.836 436.71 c 0
 330.177 436.71 415.59 378.336 446.139 283.333 c 0
 453.637 259.969 457.046 236.959 457.046 214.773 c 0
 457.046 135.16 413.147 66.1517 356.75 29.415 c 0
 320.829 6.04948 280.283 -5.45798 237.92 -5.45798 c 0
 223.536 -5.45798 208.943 -4.1313 194.25 -1.49168 c 0
 124.638 11.0618 56.0376 56.8119 44.5858 165 c 0
 43.7594 172.81 43.2973 179.712 43.2973 185.779 c 0
 43.2973 213.429 52.8935 223.75 81.3334 223.75 c 2
 386.333 223.75 l 1
EndSplineSet
EndChar
StartChar: afii10107
Encoding: 1114 1114 186
Width: 525
Flags: W
HStem: -8.01682e-06 61.6666<40 144.167 236.667 257.083 239.583 376.326> 206.667 60.416<123.333 257.083 313.75 376.421> 368.75 61.658<40 144.167 236.25 348.522>
VStem: 66.6667 56.6663<61.6666 368.75> 257.083 56.667<61.6666 206.667 267.083 368.75> 430.934 69.9806<102.499 151.113>
Fore
313.75 61.6666 m 1
 347.917 61.6666 l 2
 363.945 61.6666 392.387 58.741 415.403 88.3333 c 0
 426.068 102.057 430.934 118.083 430.934 133.826 c 0
 430.934 168.399 407.468 201.606 370.417 206.059 c 0
 363.333 206.904 356.235 206.667 349.167 206.667 c 2
 313.75 206.667 l 1
 313.75 61.6666 l 1
144.167 430.408 m 2
 165.461 430.243 180.239 421.948 180.239 399.858 c 0
 179.295 364.602 150.094 372.626 144.167 368.75 c 1
 123.333 368.75 l 1
 123.333 267.083 l 1
 257.083 267.083 l 1
 257.083 368.75 l 1
 236.25 368.75 l 1
 236.25 368.75 200.535 370.095 200.177 399.856 c 0
 200.177 421.947 214.955 430.243 236.25 430.408 c 2
 340.417 430.408 l 1
 340.417 430.408 374.881 429.047 375.24 399.248 c 0
 375.24 375.76 359.127 368.75 337.917 368.75 c 2
 313.75 368.75 l 1
 313.75 267.083 l 1
 363.75 267.083 l 2
 389.091 267.083 435.889 268.889 473.333 218.75 c 0
 492.282 193.377 500.915 163.719 500.915 134.577 c 0
 500.915 70.4203 459.071 8.76378 393.333 0.833325 c 0
 386.549 0.0148855 379.736 -8.01682e-06 372.917 -8.01682e-06 c 2
 239.583 -8.01682e-06 l 2
 210.287 -8.01682e-06 199.642 13.9486 199.642 29.3465 c 0
 199.642 33.2882 200.339 37.3248 201.6 41.2467 c 0
 207.665 59.9839 222.697 61.5749 236.667 61.6666 c 2
 257.083 61.6666 l 1
 257.083 206.667 l 1
 123.333 206.667 l 1
 123.333 61.6666 l 1
 144.167 61.6666 l 1
 144.167 61.6666 179.881 60.3226 180.239 30.5718 c 0
 180.239 8.45896 165.321 -5.72205e-06 144.167 -8.01682e-06 c 2
 40 -8.01682e-06 l 1
 40 -8.01682e-06 5.53545 1.36246 5.17643 31.1798 c 0
 5.17643 55.7634 22.6929 61.5595 42.0833 61.6666 c 2
 66.6667 61.6666 l 1
 66.6667 368.75 l 1
 42.5001 368.75 l 2
 21.2891 368.75 5.17662 375.76 5.17662 399.249 c 0
 6.12335 434.331 38.1924 429.212 40 430.408 c 1
 144.167 430.408 l 2
EndSplineSet
EndChar
StartChar: afii10071
Encoding: 1105 1105 187
Width: 525
Flags: W
HStem: -5.99976 61<220.5 351> 191 60<126 424> 379 61<210.5 335> 510.684 99.589<140.76 159.245 344.927 363.411>
Fore
309.024 575 m 0
 316.562 599.997 335.406 610.273 354.448 610.273 c 0
 372.374 610.273 390.474 601.166 399.482 586.66 c 0
 404.46 578.643 406.778 569.764 406.778 560.984 c 0
 406.778 519.487 368.274 510.684 357.591 510.684 c 0
 332.304 510.684 306.777 531.711 306.777 560.198 c 0
 306.777 564.946 307.486 569.901 309.024 575 c 0
104.857 575 m 0
 112.394 599.996 131.239 610.272 150.282 610.272 c 0
 168.207 610.272 186.308 601.166 195.315 586.66 c 0
 200.293 578.643 202.611 569.764 202.611 560.984 c 0
 202.611 519.487 164.107 510.684 153.424 510.684 c 0
 128.137 510.684 102.61 531.712 102.61 560.198 c 0
 102.61 564.946 103.32 569.901 104.857 575 c 0
EndSplineSet
Refer: 100 101 S 1 0 0 1 -3.05176e-05 0.000244141 2
EndChar
